<svg width="1437" height="1183" viewBox="0 0 1437 1183" fill="none" xmlns="http://www.w3.org/2000/svg">
<path d="M1437 806.865C1437 1252.48 1115.32 1154.7 718.5 1154.7C321.683 1154.7 0 1252.48 0 806.865C0 361.246 321.683 0 718.5 0C1115.32 0 1437 361.246 1437 806.865Z" fill="#F5C371"/>
<path d="M1437 806.865C1437 1252.48 1115.32 1154.7 718.5 1154.7C321.683 1154.7 0 1252.48 0 806.865C0 361.246 321.683 0 718.5 0C1115.32 0 1437 361.246 1437 806.865Z" fill="#F2E3B5"/>
<path d="M1334.77 806.865C1334.77 1189.08 1036.91 1151.43 696.549 1151.43C356.19 1151.43 102.225 1189.08 102.225 806.865C102.225 424.647 378.14 114.798 718.499 114.798C1058.86 114.798 1334.77 424.647 1334.77 806.865Z" fill="#F5C371"/>
<path d="M1334.77 806.865C1334.77 1189.08 1036.91 1151.43 696.549 1151.43C356.19 1151.43 102.225 1189.08 102.225 806.865C102.225 424.647 378.14 114.798 718.499 114.798C1058.86 114.798 1334.77 424.647 1334.77 806.865Z" fill="#EBC381"/>
<path d="M1235.47 806.865C1235.47 1127.49 1004.02 1151.43 718.501 1151.43C432.986 1151.43 201.531 1127.49 201.531 806.865C201.531 486.237 432.986 226.316 718.501 226.316C1004.02 226.316 1235.47 486.237 1235.47 806.865Z" fill="#DEA850"/>
<path d="M1235.47 806.865C1235.47 1127.49 1004.02 1151.43 718.501 1151.43C432.986 1151.43 201.531 1127.49 201.531 806.865C201.531 486.237 432.986 226.316 718.501 226.316C1004.02 226.316 1235.47 486.237 1235.47 806.865Z" fill="#DEA850"/>
<path d="M986.03 880.181C970.408 942.723 857.969 957.96 786.852 958.621C756.464 958.893 733.627 956.522 729.089 954.073C728.345 953.685 727.638 953.179 726.894 952.635L726.857 952.596C723.882 950.225 720.943 946.416 718.34 941.635C718.34 941.635 718.34 941.596 718.302 941.596C718.228 941.402 718.116 941.207 718.005 941.052C717.968 940.935 717.893 940.857 717.819 940.702C717.596 940.274 717.372 939.808 717.149 939.38C716.852 938.836 716.591 938.253 716.331 937.67C715.252 935.26 714.248 932.656 713.393 929.896C712.797 927.991 712.24 926.048 711.83 924.027C711.83 923.988 711.793 923.91 711.793 923.832C711.347 921.811 710.938 919.751 710.715 917.613C710.715 917.574 710.715 917.535 710.677 917.496C710.305 914.776 710.119 911.977 710.082 909.178C710.082 907.157 710.157 905.175 710.38 903.153C710.752 899.033 711.644 894.952 713.021 891.065C713.318 890.248 713.616 889.432 713.951 888.655C714.992 886.167 716.294 883.796 717.856 881.541C719.902 878.51 722.431 875.711 725.481 873.223C727.378 872.368 729.386 871.513 731.469 870.658C761.411 858.491 809.504 848.579 809.504 848.579C809.504 848.579 771.305 811.342 717.93 811.303H717.819V730.453H717.93L798.643 714.011C812.851 716.304 826.762 719.53 840.078 723.495H840.115C848.149 725.905 855.997 728.626 863.659 731.58C867.639 733.135 871.582 734.729 875.413 736.439C937.342 763.493 981.79 807.805 987.555 852.622C988.782 861.834 988.299 871.085 986.03 880.181Z" fill="url(#paint0_linear_1534_2816)"/>
<path opacity="0.45" d="M986.029 880.179C970.407 942.721 857.968 957.958 786.851 958.619C756.463 958.891 733.626 956.52 729.088 954.071C728.344 953.683 727.637 953.177 726.893 952.633L726.856 952.594C723.881 950.223 720.942 946.414 718.339 941.633C718.339 941.633 718.339 941.594 718.301 941.594C718.227 941.4 718.116 941.205 718.004 941.05C717.967 940.933 717.892 940.855 717.818 940.7C717.595 940.272 717.372 939.806 717.148 939.378C716.851 938.834 716.591 938.251 716.33 937.668C715.252 935.258 714.247 932.654 713.392 929.894C712.797 927.989 712.239 926.046 711.83 924.025C711.83 923.986 711.792 923.908 711.792 923.83C711.346 921.809 710.937 919.749 710.714 917.611C710.714 917.572 710.714 917.533 710.677 917.494C709.524 908.71 710.007 899.459 713.02 891.024C713.317 890.207 713.615 889.391 713.95 888.614C714.991 886.126 716.293 883.755 717.855 881.5C719.901 878.469 722.43 875.67 725.48 873.182C727.377 872.327 729.385 871.472 731.468 870.617C738.61 877.147 754.194 887.603 779.822 885.854C816.719 883.327 805.821 911.897 840.263 918.777C874.742 925.657 869.275 892.812 903.159 903.54C937.006 914.268 936.374 878.935 967.841 882.045C980.747 883.366 986.996 870.034 987.591 852.581C988.781 861.832 988.298 871.083 986.029 880.179Z" fill="url(#paint1_linear_1534_2816)"/>
<path d="M701.635 996.093C702.044 1010.51 701.524 1022.72 699.515 1030.38C698.734 1033.41 697.73 1035.7 696.465 1037.18C696.019 1037.72 695.535 1038.11 694.978 1038.38C689.212 1041.53 685.27 1035.86 685.27 1035.86C683.559 1036.32 682.183 1036.32 681.029 1036.01H680.992C680.509 1035.9 680.062 1035.7 679.69 1035.51C676.641 1033.87 676.194 1029.83 676.194 1029.83C670.764 1032.05 666.189 1025.75 666.189 1025.75C666.189 1025.75 665.185 1026.37 663.548 1027.03C663.511 1027.07 663.511 1027.07 663.511 1027.07C663.139 1027.19 662.804 1027.34 662.395 1027.46C662.321 1027.5 662.283 1027.5 662.283 1027.5C657.969 1028.86 650.976 1029.44 646.29 1021.67C643.128 1016.42 643.649 1002 645.434 985.209C646.029 979.729 646.773 974.054 647.554 968.34C649.786 951.587 652.501 934.717 653.543 923.756C655.96 897.557 659.866 902.26 676.231 900.084C679.653 899.617 683.522 898.762 687.464 897.674C697.246 895.03 707.773 891.143 713.984 888.656C712.199 892.893 711.083 897.363 710.562 901.91C708.851 915.904 712.533 930.636 718.038 941.053C703.16 953.025 701.115 977.474 701.635 996.093Z" fill="url(#paint2_linear_1534_2816)"/>
<path opacity="0.45" d="M701.623 996.095C702.032 1010.52 701.512 1022.72 699.503 1030.38C674.285 1013.35 688.27 997.261 672.239 989.487C663.276 985.173 654.237 976.116 647.579 968.342C649.811 951.589 652.526 934.719 653.568 923.758C655.985 897.559 659.891 902.262 676.256 900.086C679.678 899.619 683.547 898.764 687.489 897.676L708.393 898.997C708.393 898.997 709.211 900.086 710.587 901.913C708.876 915.906 712.558 930.638 718.063 941.055C703.148 953.027 701.103 977.476 701.623 996.095Z" fill="url(#paint3_linear_1534_2816)"/>
<g opacity="0.45">
<path opacity="0.45" d="M688.459 1019.45C688.012 1022.36 686.153 1037.83 696.456 1037.17C696.009 1037.72 695.526 1038.11 694.968 1038.38C689.203 1041.53 685.26 1035.85 685.26 1035.85C683.549 1036.32 682.173 1036.32 681.02 1036.01C685.111 1034.76 687.901 1022.05 688.459 1019.45Z" fill="url(#paint4_linear_1534_2816)"/>
<path opacity="0.45" d="M671.988 1010.47C670.611 1024.66 670.611 1028.2 674.703 1027.5C678.162 1026.88 680.319 1018.91 680.914 1016.54C680.319 1019.61 677.864 1032.59 679.724 1035.51C676.674 1033.87 676.228 1029.83 676.228 1029.83C670.797 1032.05 666.222 1025.75 666.222 1025.75C666.222 1025.75 665.218 1026.37 663.582 1027.03C665.664 1026.02 669.719 1022.44 671.988 1010.47Z" fill="url(#paint5_linear_1534_2816)"/>
<path opacity="0.45" d="M645.472 985.209C647.704 1000.84 652.763 1025.87 662.322 1027.5C658.007 1028.86 651.014 1029.44 646.328 1021.67C643.129 1016.38 643.65 1002 645.472 985.209Z" fill="url(#paint6_linear_1534_2816)"/>
</g>
<g opacity="0.25">
<path opacity="0.25" d="M953.11 836.694C948.126 875.953 875.596 883.649 805.484 891.112C765.611 895.349 727.561 899.392 710.154 909.226C710.154 907.205 710.228 905.222 710.452 903.201C729.644 893.872 765.202 890.102 805.001 885.826C869.98 878.907 943.625 871.055 948.089 835.994C955.9 774.657 841.154 723.97 840.112 723.504H840.15C848.184 725.914 856.032 728.635 863.694 731.589C867.674 733.144 871.616 734.737 875.447 736.448C907.807 754.522 958.987 790.672 953.11 836.694Z" fill="white"/>
</g>
<path d="M725.547 912.059C725.51 912.72 725.472 913.419 725.435 914.08C725.361 915.207 725.249 916.374 725.063 917.501C725.026 917.54 725.026 917.54 725.026 917.617V917.656C724.766 919.794 724.394 921.815 723.947 923.837C723.761 924.614 723.576 925.353 723.39 926.091C723.204 926.791 723.018 927.451 722.832 928.151C722.423 929.628 721.939 931.105 721.418 932.505C720.786 934.293 720.079 936.003 719.373 937.674C718.852 938.841 718.294 940.007 717.736 941.095C717.624 941.289 717.55 941.484 717.438 941.639C717.401 941.639 717.401 941.678 717.401 941.678C714.798 946.459 711.859 950.268 708.884 952.639C708.884 952.639 708.846 952.639 708.846 952.678C708.103 953.223 707.396 953.728 706.652 954.117C702.114 956.565 679.314 958.936 648.889 958.664C610.132 958.276 559.175 953.611 518.223 939.307C483.967 927.374 456.852 908.716 449.711 880.224C437.846 832.803 475.487 781.921 536.375 748.299C541.768 745.306 547.347 742.468 553.075 739.786C558.617 737.182 564.308 734.694 570.147 732.44C590.939 724.16 613.516 717.863 637.098 714.093L717.81 730.535H717.922V811.385H717.81C664.436 811.424 626.237 848.662 626.237 848.662L626.386 848.7C629.659 849.4 682.178 860.478 710.26 873.305C713.273 875.793 715.802 878.592 717.848 881.623C719.41 883.878 720.712 886.288 721.753 888.737C722.088 889.553 722.422 890.33 722.683 891.147C722.98 891.963 723.241 892.779 723.464 893.596C723.985 895.228 724.357 896.9 724.654 898.61C724.803 899.465 724.952 900.32 725.063 901.175C725.324 902.886 725.472 904.596 725.51 906.345C725.696 908.211 725.658 910.154 725.547 912.059Z" fill="url(#paint7_linear_1534_2816)"/>
<path d="M789.48 1021.68C784.756 1029.46 777.801 1028.87 773.486 1027.51C773.486 1027.51 773.449 1027.51 773.375 1027.47C772.966 1027.36 772.594 1027.2 772.259 1027.08C772.259 1027.08 772.222 1027.08 772.222 1027.05C770.585 1026.42 769.581 1025.76 769.581 1025.76C769.581 1025.76 765.006 1032.06 759.576 1029.84C759.576 1029.84 759.129 1033.85 756.079 1035.52C755.707 1035.71 755.261 1035.91 754.777 1036.02H754.74C753.624 1036.34 752.211 1036.34 750.5 1035.87C750.5 1035.87 746.557 1041.54 740.792 1038.4C740.271 1038.09 739.788 1037.7 739.304 1037.19C734.804 1032.1 733.576 1016.2 734.134 996.105C734.506 983.395 733.614 967.963 728.295 955.68C727.291 953.309 726.1 951.055 724.724 948.995C722.79 946.002 720.447 943.358 717.694 941.143C718.289 940.054 718.81 938.927 719.331 937.722C720.075 936.09 720.744 934.34 721.377 932.552C721.897 931.153 722.381 929.676 722.79 928.199C722.976 927.499 723.162 926.839 723.348 926.139C723.534 925.4 723.72 924.662 723.906 923.884C724.352 921.824 724.724 919.764 724.984 917.665C724.984 917.626 724.984 917.587 725.022 917.549C725.133 916.421 725.282 915.255 725.356 914.128C725.58 911.524 725.654 908.919 725.542 906.276C725.468 904.566 725.319 902.817 725.096 901.106C724.984 900.251 724.836 899.396 724.687 898.541C724.389 896.831 723.98 895.159 723.497 893.527C723.274 892.71 722.976 891.894 722.716 891.078C722.418 890.262 722.12 889.445 721.786 888.668C730.452 892.127 747.748 898.463 759.538 900.057C765.973 900.912 770.474 900.718 773.747 901.767C778.768 903.322 780.776 907.87 782.227 923.768C783.603 938.461 787.992 963.765 790.298 985.222C792.121 1002.01 792.679 1016.4 789.48 1021.68Z" fill="url(#paint8_linear_1534_2816)"/>
<g opacity="0.45">
<path opacity="0.45" d="M747.34 1019.45C747.787 1022.37 749.646 1037.84 739.343 1037.18C739.79 1037.72 740.273 1038.11 740.831 1038.38C746.596 1041.53 750.539 1035.86 750.539 1035.86C752.25 1036.32 753.626 1036.32 754.779 1036.01C750.651 1034.77 747.898 1022.06 747.34 1019.45Z" fill="url(#paint9_linear_1534_2816)"/>
<path opacity="0.45" d="M763.784 1010.48C765.161 1024.67 765.161 1028.2 761.069 1027.5C757.61 1026.88 755.453 1018.91 754.858 1016.54C755.453 1019.61 757.908 1032.6 756.048 1035.51C759.098 1033.88 759.544 1029.84 759.544 1029.84C764.975 1032.05 769.55 1025.75 769.55 1025.75C769.55 1025.75 770.554 1026.38 772.19 1027.04C770.145 1026.03 766.091 1022.45 763.784 1010.48Z" fill="url(#paint10_linear_1534_2816)"/>
<path opacity="0.45" d="M790.339 985.217C788.108 1000.84 783.049 1025.88 773.49 1027.51C777.805 1028.87 784.797 1029.45 789.484 1021.68C792.683 1016.39 792.125 1002.01 790.339 985.217Z" fill="url(#paint11_linear_1534_2816)"/>
</g>
<g opacity="0.25">
<path opacity="0.25" d="M725.536 912.066C725.499 912.727 725.462 913.427 725.425 914.088C725.35 915.215 725.239 916.381 725.053 917.508C725.015 917.547 725.015 917.547 725.015 917.625C705.823 908.257 657.693 899.239 619.382 895.158C549.27 887.695 476.741 879.96 471.756 840.74C466.661 800.548 505.046 767.858 536.401 748.228C540.939 745.391 545.365 742.787 549.456 740.532C553.287 738.822 557.23 737.228 561.21 735.673C564.148 734.546 567.161 733.419 570.174 732.369C574.972 730.659 579.807 729.065 584.717 727.588H584.754C583.675 728.055 468.967 778.742 476.778 840.079C481.241 875.14 554.887 882.992 619.866 889.91C658.772 894.031 705.451 903.01 725.536 912.066Z" fill="white"/>
</g>
<path opacity="0.45" d="M863.705 731.58C854.592 731.658 842.243 728.82 833.949 733.951C820.67 742.192 798.911 730.453 782.657 740.715C769.118 749.305 742.896 750.277 717.976 754.747C717.938 754.708 717.901 754.747 717.864 754.786C712.992 755.641 708.156 756.613 703.507 757.856C674.941 765.319 655.6 745.651 630.828 751.326C606.019 757.001 597.874 736.789 576.598 740.715C565.514 742.775 557.927 741.453 553.166 739.704C578.495 727.81 606.987 718.831 637.151 714.011L717.864 730.453H717.976L798.688 714.011C821.526 717.665 843.396 723.728 863.705 731.58Z" fill="url(#paint12_linear_1534_2816)"/>
<path d="M592.88 672.421C568.294 701.419 534.224 729.911 495.244 729.911C479.92 729.911 466.715 728.744 455.371 726.762C407.911 718.677 392.512 697.376 388.235 694.072C382.953 689.952 373.729 692.634 354.387 687.581C335.046 682.528 318.866 649.838 325.822 646.806C332.294 644.046 346.651 662.743 350.631 665.697C350.631 665.697 350.631 665.697 350.668 665.736C350.965 665.93 351.189 666.086 351.375 666.124C352.156 666.241 352.416 665.425 352.639 663.987C353.048 660.955 353.085 655.241 356.693 650.499C361.975 643.541 367.443 641.209 370.158 646.417C370.195 646.534 370.269 646.612 370.307 646.728C372.427 651.859 362.533 657.612 365.769 663.753C369.079 670.089 384.813 668.029 386.003 661.538C387.193 655.046 381.911 649.993 378.304 648.594C377.039 648.089 376.183 646.728 375.849 645.135C375.216 642.18 376.518 638.371 380.796 637.788C387.342 636.816 396.678 638.954 399.393 651.548C402.071 664.103 408.431 674.754 424.09 676.425C473.894 681.711 521.615 638.293 542.853 603.232C545.531 617.809 553.379 637.516 574.171 657.262C579.49 662.315 585.664 667.407 592.88 672.421Z" fill="url(#paint13_linear_1534_2816)"/>
<path d="M1081.18 687.505C1061.8 692.558 1052.62 689.876 1047.3 693.996C1043.88 696.64 1033.24 710.944 1004.56 720.661C989.014 725.909 968.185 729.835 940.289 729.835C901.272 729.835 867.239 701.343 842.653 672.385L842.616 672.346C843.695 671.568 844.773 670.83 845.852 670.052C847.005 669.236 848.121 668.42 849.162 667.526C850.092 666.826 850.985 666.126 851.877 665.388C853.774 663.833 855.634 662.278 857.382 660.723C860.023 658.391 862.478 656.059 864.747 653.766C866.309 652.211 867.76 650.656 869.099 649.101C871.442 646.458 873.599 643.815 875.533 641.172C880.071 635.03 883.53 629.044 886.134 623.369C889.556 615.945 891.564 609.065 892.643 603.04C892.68 603.04 892.68 603.079 892.68 603.079C911.24 633.709 950.034 670.752 992.734 676.038C998.871 676.816 1005.16 676.932 1011.41 676.272C1027.06 674.639 1033.43 663.989 1036.1 651.433C1038.82 638.878 1048.12 636.741 1054.7 637.673C1061.28 638.645 1060.84 647.08 1057.19 648.479C1053.58 649.879 1048.27 654.932 1049.49 661.423C1050.72 667.914 1066.42 669.975 1069.73 663.639C1073.04 657.342 1062.62 651.472 1065.34 646.264C1068.05 641.055 1073.52 643.426 1078.8 650.345C1084.12 657.303 1081.67 666.282 1084.12 665.971C1086.54 665.66 1102.68 643.698 1109.64 646.691C1116.7 649.762 1100.52 682.452 1081.18 687.505Z" fill="url(#paint14_linear_1534_2816)"/>
<path d="M672.292 373.277C669.837 374.871 667.828 377.436 667.382 378.019C668.758 375.687 670.692 374.171 672.292 373.277Z" stroke="black" stroke-width="0.6528" stroke-miterlimit="10"/>
<path opacity="0.45" d="M703.49 737.413C703.49 737.413 708.772 766.488 711.784 772.785C714.797 779.121 722.05 778.188 722.05 778.188" stroke="white" stroke-width="0.684" stroke-miterlimit="10"/>
<path opacity="0.45" d="M720.272 740.747L721.165 811.335" stroke="white" stroke-width="0.684" stroke-miterlimit="10"/>
<path d="M892.738 603.124C891.659 609.149 889.651 616.029 886.229 623.453C883.625 629.128 880.166 635.114 875.591 641.255C873.657 643.86 871.5 646.503 869.156 649.185C867.817 650.701 866.367 652.294 864.805 653.849C862.536 656.22 860.118 658.514 857.44 660.807C855.692 662.362 853.869 663.917 851.935 665.471C851.043 666.21 850.15 666.91 849.22 667.609C848.141 668.464 847.025 669.32 845.91 670.136C844.868 670.913 843.79 671.652 842.711 672.429L842.674 672.39C839.066 668.154 835.681 663.878 832.52 659.68C832.482 659.68 832.482 659.68 832.482 659.68C813.253 634.375 802.057 611.947 802.057 611.947C802.057 611.947 796.589 643.704 800.235 661.196C803.88 678.726 809.756 700.532 807.041 711.416C804.326 722.3 755.527 743.134 717.774 743.134C693.151 743.134 663.804 734.272 645.616 725.059C635.945 720.162 629.474 715.186 628.507 711.416C625.829 700.494 631.668 678.687 635.313 661.196C638.921 643.704 633.453 611.947 633.453 611.947C633.453 611.947 618.241 642.421 592.837 672.429C585.621 667.415 579.447 662.323 574.091 657.231C553.299 637.485 545.488 617.778 542.773 603.201C544.26 600.714 545.637 598.265 546.901 595.855C563.155 564.331 604.107 469.954 682.178 446.943C693.263 443.678 705.128 441.851 717.774 441.851C730.941 441.851 743.289 443.872 754.783 447.41C786.77 457.244 812.509 479.089 832.743 503.499C861.345 537.938 879.125 577.508 888.609 595.855C889.874 598.187 891.25 600.597 892.738 603.124Z" fill="url(#paint15_linear_1534_2816)"/>
<path d="M754.969 448.219C749.241 463.922 738.38 479.976 717.96 477.449C692.742 474.34 684.82 458.442 682.365 447.791C693.449 444.526 705.314 442.699 717.96 442.699C731.127 442.699 743.476 444.682 754.969 448.219Z" fill="url(#paint16_linear_1534_2816)"/>
<path d="M737.388 454.72C735.566 459.773 724.556 464.826 717.973 464.826C712.766 464.826 704.731 461.678 700.714 457.791C699.673 456.819 698.892 455.731 698.52 454.72C696.697 449.667 698.52 428.522 698.52 428.522L717.973 420.631L737.388 428.522C737.388 428.522 737.649 431.437 737.872 435.363C738.207 442.009 738.504 451.533 737.388 454.72Z" fill="url(#paint17_linear_1534_2816)"/>
<path d="M770.143 388.707C767.539 402.933 758.352 400.679 758.352 400.679C758.352 400.679 758.352 400.912 758.315 401.339C758.203 405.149 756.567 424.467 737.634 432.591C732.427 434.807 725.955 436.206 717.884 436.206C713.346 436.206 709.329 435.778 705.759 435.001C702.969 434.418 700.477 433.602 698.208 432.63C677.081 423.612 677.416 400.679 677.416 400.679C677.416 400.679 668.341 403.555 665.7 389.328C664.77 384.353 665.663 380.738 667.262 378.134C667.262 378.134 667.299 378.095 667.374 378.017C668.75 375.685 670.684 374.169 672.283 373.275C672.395 373.197 672.544 373.12 672.655 373.081C673.362 372.692 673.994 372.459 674.403 372.264C674.515 372.187 674.701 372.148 674.813 372.148C674.961 372.07 675.11 372.031 675.259 372.031C675.259 372.031 676.784 387.579 679.053 387.813C679.76 387.89 680.913 384.664 682.177 380.194C685.004 370.204 688.351 353.957 688.351 353.957C688.351 353.957 698.766 357.766 719.149 359.398C739.569 361.031 742.507 357.027 742.507 357.027C742.507 357.027 743.139 358.155 744.33 359.437C745.706 360.914 747.789 362.586 750.467 362.974C750.467 362.974 753.405 387.851 755.674 387.851C757.943 387.851 760.621 372.07 760.621 372.07C760.621 372.07 772.783 374.48 770.143 388.707Z" fill="url(#paint18_linear_1534_2816)"/>
<path d="M768.776 349.065C773.314 359.715 760.593 371.96 760.593 371.96C760.593 371.96 757.915 387.741 755.647 387.741C753.341 387.741 750.439 362.864 750.439 362.864C745.455 362.164 742.517 356.917 742.517 356.917C742.517 356.917 739.578 360.92 719.159 359.288C698.739 357.655 688.361 353.846 688.361 353.846C688.361 353.846 681.332 387.974 679.063 387.702C676.794 387.469 675.269 371.921 675.269 371.921C675.12 371.96 674.971 371.96 674.823 372.037C674.711 372.076 674.525 372.076 674.413 372.154C673.818 372.309 673.26 372.62 672.665 372.97C672.554 373.009 672.442 373.087 672.293 373.165C670.694 374.059 668.76 375.575 667.384 377.907C667.309 377.984 667.272 378.023 667.272 378.023C667.272 378.023 659.833 369.666 656.039 360.221C654.291 355.906 653.361 351.358 654.291 347.316C657.229 334.528 669.243 339.037 669.243 339.037C669.243 339.037 668.09 331.923 668.648 323.527C669.281 313.577 672.219 301.76 682.187 297.795C700.561 290.449 712.575 305.142 712.575 305.142C712.575 305.142 735.041 283.802 765.168 292.587C774.318 295.23 780.046 301.06 783.096 307.979C783.133 307.979 783.133 308.018 783.133 308.018C784.844 311.905 785.663 316.103 785.774 320.34C786.109 333.595 779.302 346.694 768.776 349.065Z" fill="#2D4D6D"/>
<path opacity="0.45" d="M737.87 435.367C734.076 435.639 726.563 436.883 724.554 442.714C721.839 450.643 714.735 444.307 708.97 453.597C706.663 457.329 703.688 458.029 700.712 457.795C699.671 456.824 698.89 455.735 698.518 454.725C697.216 451.071 697.774 439.099 698.22 432.646C703.39 434.862 709.862 436.222 717.896 436.222C726.005 436.222 732.477 434.823 737.647 432.607C737.721 433.463 737.795 434.357 737.87 435.367Z" fill="url(#paint19_linear_1534_2816)"/>
<path d="M700.752 390.082C700.752 387.517 702.426 385.457 704.471 385.457C706.517 385.457 708.191 387.517 708.191 390.082" stroke="url(#paint20_linear_1534_2816)" stroke-width="0.684" stroke-miterlimit="10" stroke-linecap="round" stroke-linejoin="round"/>
<path d="M727.75 390.072C727.75 387.507 729.424 385.447 731.469 385.447C733.515 385.447 735.189 387.507 735.189 390.072" stroke="url(#paint21_linear_1534_2816)" stroke-width="0.684" stroke-miterlimit="10" stroke-linecap="round" stroke-linejoin="round"/>
<path d="M703.692 405.905H732.22C732.22 405.905 729.654 416.788 717.194 416.788C705.924 416.827 703.692 405.905 703.692 405.905Z" fill="white"/>
<path opacity="0.45" d="M672.286 382.88C669.31 382.297 669.162 392.209 672.286 392.831C675.41 393.453 675.522 383.502 672.286 382.88Z" fill="url(#paint22_linear_1534_2816)"/>
<path opacity="0.45" d="M761.929 382.88C764.904 382.297 765.053 392.209 761.929 392.831C758.841 393.453 758.693 383.502 761.929 382.88Z" fill="url(#paint23_linear_1534_2816)"/>
<path opacity="0.45" d="M744.306 359.359C740.958 362.002 737.573 365.306 733.631 367.405C726.155 371.409 722.956 364.334 712.765 370.981C702.573 377.589 701.457 369.543 695.32 375.645C691.415 379.571 685.687 380.232 682.153 380.154C684.98 370.165 688.328 353.917 688.328 353.917C688.328 353.917 698.742 357.726 719.125 359.359C739.545 360.991 742.483 356.988 742.483 356.988C742.483 356.988 743.153 358.076 744.306 359.359Z" fill="url(#paint24_linear_1534_2816)"/>
<path opacity="0.45" d="M758.35 401.386C758.239 405.195 756.602 424.513 737.67 432.637C732.463 434.853 725.991 436.252 717.92 436.252C713.382 436.252 709.365 435.825 705.794 435.047C705.794 435.047 709.811 429.022 718.701 430.422C727.591 431.86 725.098 423.814 734.025 424.863C742.989 425.913 741.501 415.495 747.824 414.912C754.185 414.29 751.693 401.113 758.35 401.386Z" fill="url(#paint25_linear_1534_2816)"/>
<path opacity="0.45" d="M785.776 320.496C786.148 333.595 779.304 346.695 768.815 349.066C773.353 359.716 760.632 371.96 760.632 371.96C760.632 371.96 757.954 387.742 755.685 387.742C753.379 387.742 750.478 362.865 750.478 362.865C745.494 362.165 742.555 356.917 742.555 356.917C742.555 356.917 739.617 360.921 719.197 359.289C698.777 357.656 688.4 353.847 688.4 353.847C688.4 353.847 681.37 387.975 679.101 387.703C676.832 387.469 675.307 371.921 675.307 371.921C675.159 371.96 675.01 371.96 674.861 372.038C674.75 372.077 674.564 372.077 674.452 372.155C673.857 372.31 673.299 372.621 672.704 372.971C672.592 373.01 672.481 373.088 672.332 373.165C670.733 374.059 668.798 375.575 667.422 377.907C667.348 377.985 667.311 378.024 667.311 378.024C667.311 378.024 659.872 369.667 656.078 360.221C654.33 355.907 653.4 351.359 654.33 347.317C657.268 334.528 669.282 339.037 669.282 339.037C669.282 339.037 668.129 331.924 668.687 323.528C673.894 324.033 680.143 326.21 685.387 332.624C696.732 346.384 714.808 329.32 727.752 340.67C740.696 352.059 745.494 324.966 759.591 335.928C767.959 342.691 780.048 333.246 785.776 320.496Z" fill="url(#paint26_linear_1534_2816)"/>
<path opacity="0.45" d="M807.224 712.304C804.509 723.188 755.672 744.061 717.957 744.061C693.334 744.061 663.987 735.199 645.799 725.987C661.83 718.213 694.785 731.117 703.488 707.096C713.456 679.614 742.952 701.732 745.221 667.409C747.489 633.126 773.34 653.066 783.754 629.861C794.169 606.655 802.24 612.835 802.24 612.835C802.24 612.835 796.81 644.592 800.418 662.084C804.025 679.614 809.902 701.421 807.224 712.304Z" fill="url(#paint27_linear_1534_2816)"/>
<path opacity="0.45" d="M809.544 848.543C809.544 848.543 771.345 811.306 717.971 811.267H717.859C664.485 811.306 626.286 848.543 626.286 848.543C626.286 848.543 584.59 834.045 570.047 832.801C555.541 831.518 570.68 819.546 593.034 824.599C615.388 829.652 598.464 815.737 606.907 808.157C615.35 800.578 620.335 814.493 633.873 814.493C647.412 814.493 642.279 796.185 664.336 793.931C686.43 791.715 685.5 800.267 697.588 798.362C705.92 797.04 710.085 789.5 717.822 785.69C717.859 785.651 717.896 785.651 717.933 785.651C721.43 783.941 725.707 783.047 731.435 783.825C749.884 786.351 754.422 805.32 765.617 809.44C776.776 813.521 788.232 798.362 807.908 804.076C827.584 809.751 822.451 831.285 827.584 836.338C832.716 841.352 854.513 832.529 857.488 838.515C860.538 844.501 809.544 848.543 809.544 848.543Z" fill="url(#paint28_linear_1534_2816)"/>
<path opacity="0.45" d="M725.447 914.09C725.373 915.218 725.261 916.384 725.075 917.511C725.038 917.55 725.038 917.55 725.038 917.628C724.777 919.765 724.405 921.825 723.959 923.847C723.773 924.624 723.587 925.363 723.401 926.101C723.215 926.801 723.029 927.462 722.843 928.161C722.434 929.638 721.951 931.115 721.43 932.515C720.798 934.303 720.091 936.013 719.384 937.685C718.863 938.851 718.306 940.017 717.748 941.105C717.636 941.299 717.562 941.494 717.45 941.649C717.413 941.649 717.413 941.688 717.413 941.688C714.809 946.469 711.871 950.278 708.895 952.65C708.895 952.65 708.858 952.65 708.858 952.688C708.114 953.233 707.408 953.738 706.664 954.127C702.126 956.575 679.325 958.947 648.9 958.674C610.143 958.286 559.187 953.621 518.235 939.317C545.573 941.96 558.777 932.048 583.326 939.006C612.338 947.208 618.14 919.416 645.776 931.426C673.412 943.398 699.411 900.447 722.062 912.458C723.215 913.002 724.331 913.585 725.447 914.09Z" fill="url(#paint29_linear_1534_2816)"/>
<path opacity="0.45" d="M773.769 901.761C768.859 904.598 764.767 908.446 763.54 913.655C759.969 929.164 740.851 917.464 737.243 934.451C735.198 943.935 729.47 947.589 724.82 948.949C722.886 945.956 720.543 943.313 717.791 941.097C718.386 940.009 718.906 938.882 719.427 937.677C720.171 936.044 720.84 934.295 721.473 932.507C721.993 931.108 722.477 929.631 722.886 928.154C723.072 927.454 723.258 926.793 723.444 926.093C723.63 925.355 723.816 924.616 724.002 923.839C724.448 921.779 724.82 919.719 725.081 917.62C725.081 917.581 725.081 917.542 725.118 917.503C725.229 916.376 725.378 915.21 725.453 914.083C725.676 911.478 725.75 908.874 725.639 906.231C725.564 904.52 725.415 902.771 725.192 901.061C725.081 900.206 724.932 899.351 724.783 898.496C724.486 896.785 724.076 895.114 723.593 893.481C723.37 892.665 723.072 891.849 722.812 891.033C722.514 890.216 722.217 889.4 721.882 888.623C730.548 892.082 747.844 898.418 759.635 900.012C765.995 900.906 770.495 900.711 773.769 901.761Z" fill="url(#paint30_linear_1534_2816)"/>
<path opacity="0.45" d="M391.585 673.209C363.317 678.146 351.266 666.329 350.67 665.707C350.968 665.902 351.191 666.057 351.377 666.096C352.158 666.213 352.419 665.396 352.642 663.958C355.097 663.22 359.374 663.025 362.275 661.976C366.664 660.382 362.126 650.898 366.664 648.371C367.817 647.749 369.007 647.166 370.309 646.661C372.429 651.792 362.536 657.545 365.771 663.686C369.082 670.022 384.815 667.962 386.005 661.47C387.196 654.979 381.914 649.926 378.306 648.527C377.041 648.021 376.186 646.661 375.851 645.067C378.455 644.679 381.356 644.679 384.666 645.378C392.366 646.933 387.679 652.142 392.366 657.078C396.978 662.015 395.49 669.089 391.585 673.209Z" fill="url(#paint31_linear_1534_2816)"/>
<path opacity="0.45" d="M1043.94 673.17C1072.21 678.107 1084.26 666.29 1084.85 665.668C1084.55 665.863 1084.33 666.018 1084.15 666.057C1083.36 666.174 1083.1 665.357 1082.88 663.919C1080.43 663.181 1076.15 662.986 1073.25 661.937C1068.86 660.343 1073.4 650.859 1068.86 648.371C1067.71 647.749 1066.52 647.166 1065.21 646.661C1063.09 651.792 1072.99 657.545 1069.75 663.686C1066.44 670.022 1050.71 667.962 1049.52 661.47C1048.33 654.979 1053.61 649.926 1057.22 648.527C1058.48 648.021 1059.34 646.661 1059.67 645.067C1057.07 644.679 1054.17 644.679 1050.86 645.378C1043.16 646.933 1047.84 652.142 1043.16 657.078C1038.51 661.937 1040.03 669.05 1043.94 673.17Z" fill="url(#paint32_linear_1534_2816)"/>
<path opacity="0.45" d="M992.8 676.074C964.792 689.873 926.147 660.759 913.649 644.784C905.094 633.822 894.42 631.334 886.237 623.444C886.2 623.444 886.2 623.444 886.2 623.444C881.997 619.44 878.463 613.998 876.12 605.369C869.239 579.715 864.961 569.881 846.178 543.293C833.643 525.491 832.267 511.07 832.751 503.49C861.353 537.929 879.133 577.499 888.617 595.846C889.845 598.256 891.258 600.666 892.709 603.154C892.746 603.154 892.746 603.192 892.746 603.192C911.306 633.744 950.1 670.788 992.8 676.074Z" fill="url(#paint33_linear_1534_2816)"/>
<path d="M979.613 180.397C975.025 153.412 949.662 139.638 937.554 136.125C966.613 127.692 980.25 153.693 983.436 167.748C1015.55 147.509 1036.33 160.72 1042.7 169.856C1018.23 161.423 990.446 173.37 979.613 180.397Z" fill="#5E5E5D"/>
<path d="M294.409 232.876C291.606 217.456 276.106 209.586 268.707 207.578C286.465 202.759 294.799 217.617 296.746 225.648C316.373 214.083 329.069 221.632 332.963 226.853C318.009 222.034 301.03 228.861 294.409 232.876Z" fill="#5E5E5D"/>
<path d="M319.75 1068.91L106.164 1182.83H1321.27L1113.57 1068.91H319.75Z" fill="#86CB95"/>
<path d="M1122.29 301.837C982.093 257.558 1002.54 390.396 1031.74 390.396C1043.74 390.396 1068.62 393.675 1098.92 393.675H1190.93C1307.75 393.675 1341.34 384.929 1342.8 382.196C1353.03 295.277 1291.2 303.477 1258.1 313.317C1263.46 281.064 1257.81 215.903 1192.38 213.279C1126.96 210.655 1118.39 271.224 1122.29 301.837Z" fill="white" fill-opacity="0.9"/>
<path d="M294.281 455.215C232.866 435.902 241.822 493.841 254.616 493.841C259.873 493.841 270.77 495.271 284.046 495.271H324.351C375.53 495.271 390.245 491.456 390.885 490.264C395.364 452.354 368.281 455.93 353.779 460.222C356.125 446.154 353.651 417.733 324.99 416.589C296.328 415.444 292.575 441.863 294.281 455.215Z" fill="white" fill-opacity="0.9"/>
<path opacity="0.45" d="M718.124 1158.38C839.773 1158.38 938.389 1143.83 938.389 1125.88C938.389 1107.92 839.773 1093.37 718.124 1093.37C596.475 1093.37 497.858 1107.92 497.858 1125.88C497.858 1143.83 596.475 1158.38 718.124 1158.38Z" fill="url(#paint34_linear_1534_2816)"/>
<defs>
<linearGradient id="paint0_linear_1534_2816" x1="838.414" y1="664.918" x2="858.216" y2="1036.31" gradientUnits="userSpaceOnUse">
<stop stop-color="#2D4D6D"/>
<stop offset="1" stop-color="#4B7999"/>
</linearGradient>
<linearGradient id="paint1_linear_1534_2816" x1="843.124" y1="1074.29" x2="851.706" y2="829.837" gradientUnits="userSpaceOnUse">
<stop/>
<stop offset="1" stop-opacity="0"/>
</linearGradient>
<linearGradient id="paint2_linear_1534_2816" x1="765.31" y1="1040.36" x2="594.342" y2="884.368" gradientUnits="userSpaceOnUse">
<stop stop-color="#FFE5C0"/>
<stop offset="1" stop-color="#FFA992"/>
</linearGradient>
<linearGradient id="paint3_linear_1534_2816" x1="680.845" y1="933.867" x2="694.202" y2="1062.63" gradientUnits="userSpaceOnUse">
<stop/>
<stop offset="1" stop-opacity="0"/>
</linearGradient>
<linearGradient id="paint4_linear_1534_2816" x1="677.692" y1="1091.03" x2="713.696" y2="928.687" gradientUnits="userSpaceOnUse">
<stop/>
<stop offset="1" stop-opacity="0"/>
</linearGradient>
<linearGradient id="paint5_linear_1534_2816" x1="660.319" y1="1087.18" x2="696.322" y2="924.837" gradientUnits="userSpaceOnUse">
<stop/>
<stop offset="1" stop-opacity="0"/>
</linearGradient>
<linearGradient id="paint6_linear_1534_2816" x1="638.462" y1="1082.34" x2="674.465" y2="919.991" gradientUnits="userSpaceOnUse">
<stop/>
<stop offset="1" stop-opacity="0"/>
</linearGradient>
<linearGradient id="paint7_linear_1534_2816" x1="576.985" y1="678.863" x2="596.786" y2="1050.23" gradientUnits="userSpaceOnUse">
<stop stop-color="#2D4D6D"/>
<stop offset="1" stop-color="#4B7999"/>
</linearGradient>
<linearGradient id="paint8_linear_1534_2816" x1="782.522" y1="1037.49" x2="717.906" y2="873.856" gradientUnits="userSpaceOnUse">
<stop stop-color="#FFE5C0"/>
<stop offset="1" stop-color="#FFA992"/>
</linearGradient>
<linearGradient id="paint9_linear_1534_2816" x1="758.091" y1="1091.04" x2="722.088" y2="928.693" gradientUnits="userSpaceOnUse">
<stop/>
<stop offset="1" stop-opacity="0"/>
</linearGradient>
<linearGradient id="paint10_linear_1534_2816" x1="775.474" y1="1087.19" x2="739.471" y2="924.842" gradientUnits="userSpaceOnUse">
<stop/>
<stop offset="1" stop-opacity="0"/>
</linearGradient>
<linearGradient id="paint11_linear_1534_2816" x1="797.334" y1="1082.34" x2="761.331" y2="919.999" gradientUnits="userSpaceOnUse">
<stop/>
<stop offset="1" stop-opacity="0"/>
</linearGradient>
<linearGradient id="paint12_linear_1534_2816" x1="710.882" y1="600.339" x2="706.921" y2="800.279" gradientUnits="userSpaceOnUse">
<stop/>
<stop offset="1" stop-opacity="0"/>
</linearGradient>
<linearGradient id="paint13_linear_1534_2816" x1="243.214" y1="754.835" x2="743.837" y2="580.743" gradientUnits="userSpaceOnUse">
<stop stop-color="#FFE5C0"/>
<stop offset="1" stop-color="#FFA992"/>
</linearGradient>
<linearGradient id="paint14_linear_1534_2816" x1="743.163" y1="739.969" x2="1272.21" y2="555.994" gradientUnits="userSpaceOnUse">
<stop stop-color="#FFE5C0"/>
<stop offset="1" stop-color="#FFA992"/>
</linearGradient>
<linearGradient id="paint15_linear_1534_2816" x1="726.672" y1="442.075" x2="708.52" y2="742.759" gradientUnits="userSpaceOnUse">
<stop stop-color="#84DBC7"/>
<stop offset="1" stop-color="#33C2CF"/>
</linearGradient>
<linearGradient id="paint16_linear_1534_2816" x1="718.065" y1="344.566" x2="719.055" y2="500.921" gradientUnits="userSpaceOnUse">
<stop stop-color="#2D4D6D"/>
<stop offset="1" stop-color="#4B7999"/>
</linearGradient>
<linearGradient id="paint17_linear_1534_2816" x1="742.384" y1="468.62" x2="683.265" y2="409.629" gradientUnits="userSpaceOnUse">
<stop stop-color="#FFE5C0"/>
<stop offset="1" stop-color="#FFA992"/>
</linearGradient>
<linearGradient id="paint18_linear_1534_2816" x1="719.498" y1="445.295" x2="716.032" y2="323.061" gradientUnits="userSpaceOnUse">
<stop stop-color="#FFE5C0"/>
<stop offset="1" stop-color="#FFA992"/>
</linearGradient>
<linearGradient id="paint19_linear_1534_2816" x1="703.876" y1="423.036" x2="750.285" y2="485.208" gradientUnits="userSpaceOnUse">
<stop/>
<stop offset="1" stop-opacity="0"/>
</linearGradient>
<linearGradient id="paint20_linear_1534_2816" x1="703.556" y1="384.219" x2="704.928" y2="391.995" gradientUnits="userSpaceOnUse">
<stop stop-color="#561111"/>
<stop offset="1" stop-color="#862E2D"/>
</linearGradient>
<linearGradient id="paint21_linear_1534_2816" x1="730.527" y1="384.209" x2="731.899" y2="391.985" gradientUnits="userSpaceOnUse">
<stop stop-color="#561111"/>
<stop offset="1" stop-color="#862E2D"/>
</linearGradient>
<linearGradient id="paint22_linear_1534_2816" x1="665.213" y1="376.952" x2="696.484" y2="420.838" gradientUnits="userSpaceOnUse">
<stop/>
<stop offset="1" stop-opacity="0"/>
</linearGradient>
<linearGradient id="paint23_linear_1534_2816" x1="769.007" y1="376.952" x2="737.736" y2="420.838" gradientUnits="userSpaceOnUse">
<stop/>
<stop offset="1" stop-opacity="0"/>
</linearGradient>
<linearGradient id="paint24_linear_1534_2816" x1="696.582" y1="343.331" x2="733.432" y2="396.799" gradientUnits="userSpaceOnUse">
<stop/>
<stop offset="1" stop-opacity="0"/>
</linearGradient>
<linearGradient id="paint25_linear_1534_2816" x1="759.862" y1="463.669" x2="707.778" y2="385.68" gradientUnits="userSpaceOnUse">
<stop stop-color="white"/>
<stop offset="1" stop-color="white" stop-opacity="0"/>
</linearGradient>
<linearGradient id="paint26_linear_1534_2816" x1="725.966" y1="450.204" x2="715.571" y2="272.104" gradientUnits="userSpaceOnUse">
<stop/>
<stop offset="1" stop-opacity="0"/>
</linearGradient>
<linearGradient id="paint27_linear_1534_2816" x1="794.743" y1="759.952" x2="673.125" y2="617.377" gradientUnits="userSpaceOnUse">
<stop/>
<stop offset="1" stop-opacity="0"/>
</linearGradient>
<linearGradient id="paint28_linear_1534_2816" x1="710.214" y1="942.004" x2="712.194" y2="690.89" gradientUnits="userSpaceOnUse">
<stop/>
<stop offset="1" stop-opacity="0"/>
</linearGradient>
<linearGradient id="paint29_linear_1534_2816" x1="637.558" y1="1180.36" x2="617.76" y2="887.35" gradientUnits="userSpaceOnUse">
<stop/>
<stop offset="1" stop-opacity="0"/>
</linearGradient>
<linearGradient id="paint30_linear_1534_2816" x1="804.253" y1="970.047" x2="675.011" y2="873.858" gradientUnits="userSpaceOnUse">
<stop/>
<stop offset="1" stop-opacity="0"/>
</linearGradient>
<linearGradient id="paint31_linear_1534_2816" x1="375.531" y1="689.48" x2="363.66" y2="585.988" gradientUnits="userSpaceOnUse">
<stop/>
<stop offset="1" stop-opacity="0"/>
</linearGradient>
<linearGradient id="paint32_linear_1534_2816" x1="1059.98" y1="689.42" x2="1071.85" y2="585.929" gradientUnits="userSpaceOnUse">
<stop/>
<stop offset="1" stop-opacity="0"/>
</linearGradient>
<linearGradient id="paint33_linear_1534_2816" x1="953.731" y1="536.803" x2="834.637" y2="677.79" gradientUnits="userSpaceOnUse">
<stop stop-color="white"/>
<stop offset="1" stop-color="white" stop-opacity="0"/>
</linearGradient>
<linearGradient id="paint34_linear_1534_2816" x1="716.713" y1="926.041" x2="720.736" y2="1506.74" gradientUnits="userSpaceOnUse">
<stop/>
<stop offset="1" stop-opacity="0"/>
</linearGradient>
</defs>
</svg>
