<svg width="413" height="339" viewBox="0 0 413 339" fill="none" xmlns="http://www.w3.org/2000/svg">
<path d="M114.768 293V252.716H114.822L135.288 281.768L133.074 281.336L153.486 252.716H153.594V293H148.41V264.596L148.734 267.242L133.992 288.086H133.884L118.926 267.242L119.844 264.812V293H114.768ZM173.939 293.54C171.383 293.54 169.187 293.036 167.351 292.028C165.515 290.984 164.093 289.58 163.085 287.816C162.113 286.016 161.627 283.964 161.627 281.66C161.627 279.464 162.185 277.466 163.301 275.666C164.417 273.866 165.911 272.426 167.783 271.346C169.655 270.266 171.743 269.726 174.047 269.726C176.999 269.726 179.447 270.59 181.391 272.318C183.335 274.046 184.649 276.422 185.333 279.446L166.919 285.926L165.731 282.956L180.851 277.448L179.771 278.15C179.339 276.962 178.619 275.936 177.611 275.072C176.603 274.172 175.289 273.722 173.669 273.722C172.301 273.722 171.077 274.064 169.997 274.748C168.917 275.396 168.071 276.296 167.459 277.448C166.847 278.6 166.541 279.914 166.541 281.39C166.541 282.938 166.865 284.306 167.513 285.494C168.161 286.646 169.043 287.564 170.159 288.248C171.311 288.896 172.607 289.22 174.047 289.22C175.019 289.22 175.955 289.04 176.855 288.68C177.791 288.32 178.655 287.852 179.447 287.276L181.769 291.002C180.653 291.758 179.393 292.37 177.989 292.838C176.621 293.306 175.271 293.54 173.939 293.54ZM190.006 253.958H215.926V258.98H205.45V293H200.212V258.98H190.006V253.958ZM221.895 270.644H226.917V293H221.895V270.644ZM221.517 262.544C221.517 261.752 221.823 261.086 222.435 260.546C223.083 260.006 223.785 259.736 224.541 259.736C225.297 259.736 225.963 260.006 226.539 260.546C227.151 261.086 227.457 261.752 227.457 262.544C227.457 263.372 227.151 264.056 226.539 264.596C225.963 265.1 225.297 265.352 224.541 265.352C223.785 265.352 223.083 265.082 222.435 264.542C221.823 264.002 221.517 263.336 221.517 262.544ZM240.088 270.644L240.52 275.666L240.304 275.234C241.132 273.542 242.302 272.21 243.814 271.238C245.362 270.266 247.126 269.78 249.106 269.78C250.366 269.78 251.482 269.978 252.454 270.374C253.426 270.77 254.218 271.346 254.83 272.102C255.478 272.822 255.892 273.722 256.072 274.802L255.802 274.964C256.666 273.344 257.854 272.084 259.366 271.184C260.914 270.248 262.534 269.78 264.226 269.78C266.422 269.78 268.15 270.41 269.41 271.67C270.706 272.894 271.372 274.496 271.408 276.476V293H266.386V278.258C266.35 277.106 266.062 276.152 265.522 275.396C265.018 274.604 264.118 274.172 262.822 274.1C261.526 274.1 260.356 274.496 259.312 275.288C258.304 276.08 257.512 277.106 256.936 278.366C256.36 279.59 256.054 280.922 256.018 282.362V293H250.996V278.258C250.96 277.106 250.654 276.152 250.078 275.396C249.538 274.604 248.62 274.172 247.324 274.1C245.992 274.1 244.822 274.496 243.814 275.288C242.806 276.08 242.014 277.106 241.438 278.366C240.898 279.626 240.628 280.976 240.628 282.416V293H235.606V270.644H240.088ZM290.535 293.54C287.979 293.54 285.783 293.036 283.947 292.028C282.111 290.984 280.689 289.58 279.681 287.816C278.709 286.016 278.223 283.964 278.223 281.66C278.223 279.464 278.781 277.466 279.897 275.666C281.013 273.866 282.507 272.426 284.379 271.346C286.251 270.266 288.339 269.726 290.643 269.726C293.595 269.726 296.043 270.59 297.987 272.318C299.931 274.046 301.245 276.422 301.929 279.446L283.515 285.926L282.327 282.956L297.447 277.448L296.367 278.15C295.935 276.962 295.215 275.936 294.207 275.072C293.199 274.172 291.885 273.722 290.265 273.722C288.897 273.722 287.673 274.064 286.593 274.748C285.513 275.396 284.667 276.296 284.055 277.448C283.443 278.6 283.137 279.914 283.137 281.39C283.137 282.938 283.461 284.306 284.109 285.494C284.757 286.646 285.639 287.564 286.755 288.248C287.907 288.896 289.203 289.22 290.643 289.22C291.615 289.22 292.551 289.04 293.451 288.68C294.387 288.32 295.251 287.852 296.043 287.276L298.365 291.002C297.249 291.758 295.989 292.37 294.585 292.838C293.217 293.306 291.867 293.54 290.535 293.54Z" fill="#3F4553"/>
<path d="M2.21281 334V319.08H2.23281L9.81281 329.84L8.99281 329.68L16.5528 319.08H16.5928V334H14.6728V323.48L14.7928 324.46L9.33281 332.18H9.29281L3.75281 324.46L4.09281 323.56V334H2.21281ZM23.728 334.2C22.9546 334.2 22.248 334.033 21.608 333.7C20.9813 333.367 20.4813 332.88 20.108 332.24C19.748 331.587 19.568 330.793 19.568 329.86C19.568 328.94 19.7613 328.147 20.148 327.48C20.5346 326.8 21.048 326.28 21.688 325.92C22.3413 325.56 23.0546 325.38 23.828 325.38C24.6013 325.38 25.2546 325.56 25.788 325.92C26.3213 326.267 26.728 326.68 27.008 327.16L26.888 327.48L27.068 325.72H28.788V334H26.928V331.84L27.128 332.32C27.0746 332.453 26.9546 332.627 26.768 332.84C26.5946 333.04 26.3546 333.247 26.048 333.46C25.7546 333.673 25.4146 333.853 25.028 334C24.6413 334.133 24.208 334.2 23.728 334.2ZM24.228 332.66C24.6946 332.66 25.1146 332.573 25.488 332.4C25.8613 332.227 26.168 331.987 26.408 331.68C26.6613 331.36 26.8346 330.98 26.928 330.54V328.92C26.8213 328.52 26.6346 328.173 26.368 327.88C26.1013 327.573 25.7813 327.34 25.408 327.18C25.0346 327.007 24.6213 326.92 24.168 326.92C23.6746 326.92 23.2213 327.04 22.808 327.28C22.3946 327.52 22.0613 327.853 21.808 328.28C21.568 328.707 21.448 329.207 21.448 329.78C21.448 330.313 21.5746 330.8 21.828 331.24C22.0813 331.68 22.4213 332.027 22.848 332.28C23.2746 332.533 23.7346 332.66 24.228 332.66ZM32.0067 334V318.52H33.8667V334H32.0067ZM35.8667 328.5L39.6667 334H37.4867L34.6267 329.54L35.8667 328.5ZM33.2867 331.36L33.1067 329.58L38.1267 325.54L39.2667 326.52L33.2867 331.36ZM41.9677 325.72H43.8277V334H41.9677V325.72ZM41.8277 322.72C41.8277 322.427 41.941 322.18 42.1677 321.98C42.4077 321.78 42.6677 321.68 42.9477 321.68C43.2277 321.68 43.4743 321.78 43.6877 321.98C43.9143 322.18 44.0277 322.427 44.0277 322.72C44.0277 323.027 43.9143 323.28 43.6877 323.48C43.4743 323.667 43.2277 323.76 42.9477 323.76C42.6677 323.76 42.4077 323.66 42.1677 323.46C41.941 323.26 41.8277 323.013 41.8277 322.72ZM48.7058 325.72L48.8658 327.74L48.7858 327.42C49.0524 326.807 49.4858 326.32 50.0858 325.96C50.6858 325.587 51.3791 325.4 52.1658 325.4C52.9524 325.4 53.5924 325.633 54.0858 326.1C54.5924 326.553 54.8524 327.147 54.8658 327.88V334H52.9858V328.54C52.9724 328.087 52.8391 327.72 52.5858 327.44C52.3458 327.147 51.9658 327 51.4458 327C50.9658 327 50.5324 327.133 50.1458 327.4C49.7591 327.667 49.4524 328.033 49.2258 328.5C49.0124 328.967 48.9058 329.507 48.9058 330.12V334H47.0458V325.72H48.7058ZM62.0805 338.1C61.4671 338.1 60.9271 338.027 60.4605 337.88C59.9938 337.747 59.5671 337.553 59.1805 337.3C58.8071 337.047 58.4471 336.76 58.1005 336.44L59.1805 335.18C59.6205 335.593 60.0671 335.913 60.5205 336.14C60.9738 336.367 61.4805 336.48 62.0405 336.48C62.6671 336.48 63.1938 336.373 63.6205 336.16C64.0605 335.96 64.3938 335.673 64.6205 335.3C64.8471 334.94 64.9605 334.52 64.9605 334.04L64.9805 331.8L65.1405 332.16C64.9005 332.733 64.4671 333.22 63.8405 333.62C63.2138 334.007 62.4538 334.2 61.5605 334.2C60.8005 334.2 60.1005 334.007 59.4605 333.62C58.8338 333.233 58.3271 332.713 57.9405 332.06C57.5671 331.393 57.3805 330.647 57.3805 329.82C57.3805 328.953 57.5805 328.193 57.9805 327.54C58.3805 326.873 58.9071 326.347 59.5605 325.96C60.2138 325.573 60.9271 325.38 61.7005 325.38C62.4338 325.38 63.1005 325.533 63.7005 325.84C64.3138 326.133 64.7605 326.513 65.0405 326.98L64.9405 327.32L65.1405 325.72H66.8405V334.06C66.8405 334.807 66.6471 335.487 66.2605 336.1C65.8738 336.713 65.3271 337.2 64.6205 337.56C63.9138 337.92 63.0671 338.1 62.0805 338.1ZM59.2405 329.78C59.2405 330.313 59.3671 330.8 59.6205 331.24C59.8738 331.68 60.2138 332.027 60.6405 332.28C61.0805 332.533 61.5671 332.66 62.1005 332.66C62.5938 332.66 63.0338 332.573 63.4205 332.4C63.8205 332.213 64.1538 331.967 64.4205 331.66C64.6871 331.34 64.8738 330.973 64.9805 330.56V328.92C64.8605 328.52 64.6605 328.173 64.3805 327.88C64.1005 327.573 63.7671 327.34 63.3805 327.18C62.9938 327.007 62.5671 326.92 62.1005 326.92C61.5671 326.92 61.0805 327.04 60.6405 327.28C60.2138 327.52 59.8738 327.86 59.6205 328.3C59.3671 328.727 59.2405 329.22 59.2405 329.78ZM77.1817 322.08H79.0417V325.76H81.3217V327.22H79.0417V334H77.1817V327.22H75.6617V325.76H77.1817V322.08ZM83.5692 325.72H85.4292V334H83.5692V325.72ZM83.4292 322.72C83.4292 322.427 83.5426 322.18 83.7692 321.98C84.0092 321.78 84.2692 321.68 84.5492 321.68C84.8292 321.68 85.0759 321.78 85.2892 321.98C85.5159 322.18 85.6292 322.427 85.6292 322.72C85.6292 323.027 85.5159 323.28 85.2892 323.48C85.0759 323.667 84.8292 323.76 84.5492 323.76C84.2692 323.76 84.0092 323.66 83.7692 323.46C83.5426 323.26 83.4292 323.013 83.4292 322.72ZM90.3073 325.72L90.4673 327.58L90.3873 327.42C90.694 326.793 91.1273 326.3 91.6873 325.94C92.2607 325.58 92.914 325.4 93.6473 325.4C94.114 325.4 94.5273 325.473 94.8873 325.62C95.2473 325.767 95.5407 325.98 95.7673 326.26C96.0073 326.527 96.1607 326.86 96.2273 327.26L96.1273 327.32C96.4473 326.72 96.8873 326.253 97.4473 325.92C98.0207 325.573 98.6207 325.4 99.2473 325.4C100.061 325.4 100.701 325.633 101.167 326.1C101.647 326.553 101.894 327.147 101.907 327.88V334H100.047V328.54C100.034 328.113 99.9273 327.76 99.7273 327.48C99.5407 327.187 99.2073 327.027 98.7273 327C98.2473 327 97.814 327.147 97.4273 327.44C97.054 327.733 96.7607 328.113 96.5473 328.58C96.334 329.033 96.2207 329.527 96.2073 330.06V334H94.3473V328.54C94.334 328.113 94.2207 327.76 94.0073 327.48C93.8073 327.187 93.4673 327.027 92.9873 327C92.494 327 92.0607 327.147 91.6873 327.44C91.314 327.733 91.0207 328.113 90.8073 328.58C90.6073 329.047 90.5073 329.547 90.5073 330.08V334H88.6473V325.72H90.3073ZM108.991 334.2C108.045 334.2 107.231 334.013 106.551 333.64C105.871 333.253 105.345 332.733 104.971 332.08C104.611 331.413 104.431 330.653 104.431 329.8C104.431 328.987 104.638 328.247 105.051 327.58C105.465 326.913 106.018 326.38 106.711 325.98C107.405 325.58 108.178 325.38 109.031 325.38C110.125 325.38 111.031 325.7 111.751 326.34C112.471 326.98 112.958 327.86 113.211 328.98L106.391 331.38L105.951 330.28L111.551 328.24L111.151 328.5C110.991 328.06 110.725 327.68 110.351 327.36C109.978 327.027 109.491 326.86 108.891 326.86C108.385 326.86 107.931 326.987 107.531 327.24C107.131 327.48 106.818 327.813 106.591 328.24C106.365 328.667 106.251 329.153 106.251 329.7C106.251 330.273 106.371 330.78 106.611 331.22C106.851 331.647 107.178 331.987 107.591 332.24C108.018 332.48 108.498 332.6 109.031 332.6C109.391 332.6 109.738 332.533 110.071 332.4C110.418 332.267 110.738 332.093 111.031 331.88L111.891 333.26C111.478 333.54 111.011 333.767 110.491 333.94C109.985 334.113 109.485 334.2 108.991 334.2ZM122.55 334V327.38H121.13V325.72H122.55V322.22C122.55 321.02 122.817 320.1 123.35 319.46C123.897 318.82 124.697 318.5 125.75 318.5C126.03 318.5 126.337 318.54 126.67 318.62C127.017 318.7 127.317 318.833 127.57 319.02L126.79 320.36C126.67 320.24 126.537 320.16 126.39 320.12C126.243 320.067 126.097 320.04 125.95 320.04C125.457 320.04 125.077 320.207 124.81 320.54C124.543 320.873 124.41 321.44 124.41 322.24V325.72H127.03V327.38H124.41V334H122.55ZM128.279 329.78C128.279 328.953 128.472 328.207 128.859 327.54C129.259 326.873 129.806 326.347 130.499 325.96C131.192 325.573 131.979 325.38 132.859 325.38C133.766 325.38 134.559 325.573 135.239 325.96C135.919 326.347 136.446 326.873 136.819 327.54C137.192 328.207 137.379 328.953 137.379 329.78C137.379 330.607 137.192 331.36 136.819 332.04C136.446 332.707 135.912 333.233 135.219 333.62C134.539 334.007 133.746 334.2 132.839 334.2C131.959 334.2 131.172 334.02 130.479 333.66C129.799 333.287 129.259 332.773 128.859 332.12C128.472 331.453 128.279 330.673 128.279 329.78ZM130.139 329.8C130.139 330.333 130.259 330.82 130.499 331.26C130.739 331.687 131.059 332.027 131.459 332.28C131.872 332.533 132.326 332.66 132.819 332.66C133.339 332.66 133.799 332.533 134.199 332.28C134.612 332.027 134.932 331.687 135.159 331.26C135.386 330.82 135.499 330.333 135.499 329.8C135.499 329.267 135.386 328.787 135.159 328.36C134.932 327.92 134.612 327.573 134.199 327.32C133.799 327.053 133.339 326.92 132.819 326.92C132.312 326.92 131.852 327.053 131.439 327.32C131.039 327.587 130.719 327.94 130.479 328.38C130.252 328.807 130.139 329.28 130.139 329.8ZM141.557 325.72L141.737 328.12L141.637 327.8C141.851 327.293 142.157 326.867 142.557 326.52C142.971 326.16 143.397 325.887 143.837 325.7C144.291 325.5 144.684 325.4 145.017 325.4L144.917 327.24C144.291 327.2 143.737 327.32 143.257 327.6C142.791 327.88 142.417 328.253 142.137 328.72C141.871 329.187 141.737 329.687 141.737 330.22V334H139.897V325.72H141.557ZM154.545 322.08H156.405V325.76H158.685V327.22H156.405V334H154.545V327.22H153.025V325.76H154.545V322.08ZM160.933 334V318.52H162.753V327.64L162.713 327.3C162.993 326.753 163.419 326.3 163.993 325.94C164.579 325.58 165.266 325.4 166.053 325.4C166.839 325.4 167.479 325.633 167.973 326.1C168.479 326.553 168.739 327.147 168.753 327.88V334H166.873V328.54C166.859 328.087 166.726 327.72 166.473 327.44C166.233 327.147 165.853 327 165.333 327C164.853 327 164.419 327.14 164.033 327.42C163.646 327.687 163.339 328.053 163.113 328.52C162.899 328.987 162.793 329.52 162.793 330.12V334H160.933ZM175.827 334.2C174.881 334.2 174.067 334.013 173.387 333.64C172.707 333.253 172.181 332.733 171.807 332.08C171.447 331.413 171.267 330.653 171.267 329.8C171.267 328.987 171.474 328.247 171.887 327.58C172.301 326.913 172.854 326.38 173.547 325.98C174.241 325.58 175.014 325.38 175.867 325.38C176.961 325.38 177.867 325.7 178.587 326.34C179.307 326.98 179.794 327.86 180.047 328.98L173.227 331.38L172.787 330.28L178.387 328.24L177.987 328.5C177.827 328.06 177.561 327.68 177.187 327.36C176.814 327.027 176.327 326.86 175.727 326.86C175.221 326.86 174.767 326.987 174.367 327.24C173.967 327.48 173.654 327.813 173.427 328.24C173.201 328.667 173.087 329.153 173.087 329.7C173.087 330.273 173.207 330.78 173.447 331.22C173.687 331.647 174.014 331.987 174.427 332.24C174.854 332.48 175.334 332.6 175.867 332.6C176.227 332.6 176.574 332.533 176.907 332.4C177.254 332.267 177.574 332.093 177.867 331.88L178.727 333.26C178.314 333.54 177.847 333.767 177.327 333.94C176.821 334.113 176.321 334.2 175.827 334.2ZM189.506 322.08H191.366V325.76H193.646V327.22H191.366V334H189.506V327.22H187.986V325.76H189.506V322.08ZM195.893 334V318.52H197.713V327.64L197.673 327.3C197.953 326.753 198.38 326.3 198.953 325.94C199.54 325.58 200.227 325.4 201.013 325.4C201.8 325.4 202.44 325.633 202.933 326.1C203.44 326.553 203.7 327.147 203.713 327.88V334H201.833V328.54C201.82 328.087 201.687 327.72 201.433 327.44C201.193 327.147 200.813 327 200.293 327C199.813 327 199.38 327.14 198.993 327.42C198.607 327.687 198.3 328.053 198.073 328.52C197.86 328.987 197.753 329.52 197.753 330.12V334H195.893ZM206.948 325.72H208.808V334H206.948V325.72ZM206.808 322.72C206.808 322.427 206.921 322.18 207.148 321.98C207.388 321.78 207.648 321.68 207.928 321.68C208.208 321.68 208.455 321.78 208.668 321.98C208.895 322.18 209.008 322.427 209.008 322.72C209.008 323.027 208.895 323.28 208.668 323.48C208.455 323.667 208.208 323.76 207.928 323.76C207.648 323.76 207.388 323.66 207.148 323.46C206.921 323.26 206.808 323.013 206.808 322.72ZM213.686 325.72L213.846 327.74L213.766 327.42C214.033 326.807 214.466 326.32 215.066 325.96C215.666 325.587 216.36 325.4 217.146 325.4C217.933 325.4 218.573 325.633 219.066 326.1C219.573 326.553 219.833 327.147 219.846 327.88V334H217.966V328.54C217.953 328.087 217.82 327.72 217.566 327.44C217.326 327.147 216.946 327 216.426 327C215.946 327 215.513 327.133 215.126 327.4C214.74 327.667 214.433 328.033 214.206 328.5C213.993 328.967 213.886 329.507 213.886 330.12V334H212.026V325.72H213.686ZM227.061 338.1C226.448 338.1 225.908 338.027 225.441 337.88C224.974 337.747 224.548 337.553 224.161 337.3C223.788 337.047 223.428 336.76 223.081 336.44L224.161 335.18C224.601 335.593 225.048 335.913 225.501 336.14C225.954 336.367 226.461 336.48 227.021 336.48C227.648 336.48 228.174 336.373 228.601 336.16C229.041 335.96 229.374 335.673 229.601 335.3C229.828 334.94 229.941 334.52 229.941 334.04L229.961 331.8L230.121 332.16C229.881 332.733 229.448 333.22 228.821 333.62C228.194 334.007 227.434 334.2 226.541 334.2C225.781 334.2 225.081 334.007 224.441 333.62C223.814 333.233 223.308 332.713 222.921 332.06C222.548 331.393 222.361 330.647 222.361 329.82C222.361 328.953 222.561 328.193 222.961 327.54C223.361 326.873 223.888 326.347 224.541 325.96C225.194 325.573 225.908 325.38 226.681 325.38C227.414 325.38 228.081 325.533 228.681 325.84C229.294 326.133 229.741 326.513 230.021 326.98L229.921 327.32L230.121 325.72H231.821V334.06C231.821 334.807 231.628 335.487 231.241 336.1C230.854 336.713 230.308 337.2 229.601 337.56C228.894 337.92 228.048 338.1 227.061 338.1ZM224.221 329.78C224.221 330.313 224.348 330.8 224.601 331.24C224.854 331.68 225.194 332.027 225.621 332.28C226.061 332.533 226.548 332.66 227.081 332.66C227.574 332.66 228.014 332.573 228.401 332.4C228.801 332.213 229.134 331.967 229.401 331.66C229.668 331.34 229.854 330.973 229.961 330.56V328.92C229.841 328.52 229.641 328.173 229.361 327.88C229.081 327.573 228.748 327.34 228.361 327.18C227.974 327.007 227.548 326.92 227.081 326.92C226.548 326.92 226.061 327.04 225.621 327.28C225.194 327.52 224.854 327.86 224.601 328.3C224.348 328.727 224.221 329.22 224.221 329.78ZM237.354 334.16C236.767 334.16 236.194 334.06 235.634 333.86C235.087 333.647 234.634 333.333 234.274 332.92L235.054 331.84C235.401 332.173 235.754 332.427 236.114 332.6C236.487 332.76 236.854 332.84 237.214 332.84C237.481 332.84 237.727 332.807 237.954 332.74C238.181 332.673 238.361 332.567 238.494 332.42C238.641 332.26 238.714 332.047 238.714 331.78C238.714 331.487 238.614 331.253 238.414 331.08C238.227 330.907 237.981 330.767 237.674 330.66C237.381 330.553 237.067 330.453 236.734 330.36C236.054 330.133 235.534 329.82 235.174 329.42C234.814 329.02 234.634 328.533 234.634 327.96C234.634 327.52 234.741 327.113 234.954 326.74C235.181 326.353 235.507 326.04 235.934 325.8C236.374 325.56 236.914 325.44 237.554 325.44C238.127 325.44 238.641 325.513 239.094 325.66C239.547 325.793 239.974 326.02 240.374 326.34L239.634 327.5C239.394 327.247 239.107 327.06 238.774 326.94C238.441 326.82 238.141 326.753 237.874 326.74C237.647 326.727 237.427 326.76 237.214 326.84C237.014 326.92 236.847 327.033 236.714 327.18C236.581 327.327 236.514 327.5 236.514 327.7C236.514 327.98 236.607 328.207 236.794 328.38C236.981 328.553 237.221 328.693 237.514 328.8C237.821 328.893 238.121 328.993 238.414 329.1C238.827 329.22 239.194 329.38 239.514 329.58C239.834 329.78 240.087 330.027 240.274 330.32C240.474 330.613 240.574 330.98 240.574 331.42C240.574 331.913 240.454 332.373 240.214 332.8C239.987 333.213 239.634 333.547 239.154 333.8C238.687 334.04 238.087 334.16 237.354 334.16ZM250.307 322.08H252.167V325.76H254.447V327.22H252.167V334H250.307V327.22H248.787V325.76H250.307V322.08ZM256.694 334V318.52H258.514V327.64L258.474 327.3C258.754 326.753 259.181 326.3 259.754 325.94C260.341 325.58 261.028 325.4 261.814 325.4C262.601 325.4 263.241 325.633 263.734 326.1C264.241 326.553 264.501 327.147 264.514 327.88V334H262.634V328.54C262.621 328.087 262.488 327.72 262.234 327.44C261.994 327.147 261.614 327 261.094 327C260.614 327 260.181 327.14 259.794 327.42C259.408 327.687 259.101 328.053 258.874 328.52C258.661 328.987 258.554 329.52 258.554 330.12V334H256.694ZM271.189 334.2C270.416 334.2 269.709 334.033 269.069 333.7C268.442 333.367 267.942 332.88 267.569 332.24C267.209 331.587 267.029 330.793 267.029 329.86C267.029 328.94 267.222 328.147 267.609 327.48C267.996 326.8 268.509 326.28 269.149 325.92C269.802 325.56 270.516 325.38 271.289 325.38C272.062 325.38 272.716 325.56 273.249 325.92C273.782 326.267 274.189 326.68 274.469 327.16L274.349 327.48L274.529 325.72H276.249V334H274.389V331.84L274.589 332.32C274.536 332.453 274.416 332.627 274.229 332.84C274.056 333.04 273.816 333.247 273.509 333.46C273.216 333.673 272.876 333.853 272.489 334C272.102 334.133 271.669 334.2 271.189 334.2ZM271.689 332.66C272.156 332.66 272.576 332.573 272.949 332.4C273.322 332.227 273.629 331.987 273.869 331.68C274.122 331.36 274.296 330.98 274.389 330.54V328.92C274.282 328.52 274.096 328.173 273.829 327.88C273.562 327.573 273.242 327.34 272.869 327.18C272.496 327.007 272.082 326.92 271.629 326.92C271.136 326.92 270.682 327.04 270.269 327.28C269.856 327.52 269.522 327.853 269.269 328.28C269.029 328.707 268.909 329.207 268.909 329.78C268.909 330.313 269.036 330.8 269.289 331.24C269.542 331.68 269.882 332.027 270.309 332.28C270.736 332.533 271.196 332.66 271.689 332.66ZM280.268 322.08H282.128V325.76H284.408V327.22H282.128V334H280.268V327.22H278.748V325.76H280.268V322.08ZM294.643 325.72L294.803 327.58L294.723 327.42C295.03 326.793 295.463 326.3 296.023 325.94C296.597 325.58 297.25 325.4 297.983 325.4C298.45 325.4 298.863 325.473 299.223 325.62C299.583 325.767 299.877 325.98 300.103 326.26C300.343 326.527 300.497 326.86 300.563 327.26L300.463 327.32C300.783 326.72 301.223 326.253 301.783 325.92C302.357 325.573 302.957 325.4 303.583 325.4C304.397 325.4 305.037 325.633 305.503 326.1C305.983 326.553 306.23 327.147 306.243 327.88V334H304.383V328.54C304.37 328.113 304.263 327.76 304.063 327.48C303.877 327.187 303.543 327.027 303.063 327C302.583 327 302.15 327.147 301.763 327.44C301.39 327.733 301.097 328.113 300.883 328.58C300.67 329.033 300.557 329.527 300.543 330.06V334H298.683V328.54C298.67 328.113 298.557 327.76 298.343 327.48C298.143 327.187 297.803 327.027 297.323 327C296.83 327 296.397 327.147 296.023 327.44C295.65 327.733 295.357 328.113 295.143 328.58C294.943 329.047 294.843 329.547 294.843 330.08V334H292.983V325.72H294.643ZM312.927 334.2C312.154 334.2 311.447 334.033 310.807 333.7C310.181 333.367 309.681 332.88 309.307 332.24C308.947 331.587 308.767 330.793 308.767 329.86C308.767 328.94 308.961 328.147 309.347 327.48C309.734 326.8 310.247 326.28 310.887 325.92C311.541 325.56 312.254 325.38 313.027 325.38C313.801 325.38 314.454 325.56 314.987 325.92C315.521 326.267 315.927 326.68 316.207 327.16L316.087 327.48L316.267 325.72H317.987V334H316.127V331.84L316.327 332.32C316.274 332.453 316.154 332.627 315.967 332.84C315.794 333.04 315.554 333.247 315.247 333.46C314.954 333.673 314.614 333.853 314.227 334C313.841 334.133 313.407 334.2 312.927 334.2ZM313.427 332.66C313.894 332.66 314.314 332.573 314.687 332.4C315.061 332.227 315.367 331.987 315.607 331.68C315.861 331.36 316.034 330.98 316.127 330.54V328.92C316.021 328.52 315.834 328.173 315.567 327.88C315.301 327.573 314.981 327.34 314.607 327.18C314.234 327.007 313.821 326.92 313.367 326.92C312.874 326.92 312.421 327.04 312.007 327.28C311.594 327.52 311.261 327.853 311.007 328.28C310.767 328.707 310.647 329.207 310.647 329.78C310.647 330.313 310.774 330.8 311.027 331.24C311.281 331.68 311.621 332.027 312.047 332.28C312.474 332.533 312.934 332.66 313.427 332.66ZM322.006 322.08H323.866V325.76H326.146V327.22H323.866V334H322.006V327.22H320.486V325.76H322.006V322.08ZM329.193 322.08H331.053V325.76H333.333V327.22H331.053V334H329.193V327.22H327.673V325.76H329.193V322.08ZM339.421 334.2C338.474 334.2 337.661 334.013 336.981 333.64C336.301 333.253 335.774 332.733 335.401 332.08C335.041 331.413 334.861 330.653 334.861 329.8C334.861 328.987 335.068 328.247 335.481 327.58C335.894 326.913 336.448 326.38 337.141 325.98C337.834 325.58 338.608 325.38 339.461 325.38C340.554 325.38 341.461 325.7 342.181 326.34C342.901 326.98 343.388 327.86 343.641 328.98L336.821 331.38L336.381 330.28L341.981 328.24L341.581 328.5C341.421 328.06 341.154 327.68 340.781 327.36C340.408 327.027 339.921 326.86 339.321 326.86C338.814 326.86 338.361 326.987 337.961 327.24C337.561 327.48 337.248 327.813 337.021 328.24C336.794 328.667 336.681 329.153 336.681 329.7C336.681 330.273 336.801 330.78 337.041 331.22C337.281 331.647 337.608 331.987 338.021 332.24C338.448 332.48 338.928 332.6 339.461 332.6C339.821 332.6 340.168 332.533 340.501 332.4C340.848 332.267 341.168 332.093 341.461 331.88L342.321 333.26C341.908 333.54 341.441 333.767 340.921 333.94C340.414 334.113 339.914 334.2 339.421 334.2ZM347.632 325.72L347.812 328.12L347.712 327.8C347.925 327.293 348.232 326.867 348.632 326.52C349.045 326.16 349.472 325.887 349.912 325.7C350.365 325.5 350.758 325.4 351.092 325.4L350.992 327.24C350.365 327.2 349.812 327.32 349.332 327.6C348.865 327.88 348.492 328.253 348.212 328.72C347.945 329.187 347.812 329.687 347.812 330.22V334H345.972V325.72H347.632ZM360.619 322.08H362.479V325.76H364.759V327.22H362.479V334H360.619V327.22H359.099V325.76H360.619V322.08ZM366.287 329.78C366.287 328.953 366.48 328.207 366.867 327.54C367.267 326.873 367.813 326.347 368.507 325.96C369.2 325.573 369.987 325.38 370.867 325.38C371.773 325.38 372.567 325.573 373.247 325.96C373.927 326.347 374.453 326.873 374.827 327.54C375.2 328.207 375.387 328.953 375.387 329.78C375.387 330.607 375.2 331.36 374.827 332.04C374.453 332.707 373.92 333.233 373.227 333.62C372.547 334.007 371.753 334.2 370.847 334.2C369.967 334.2 369.18 334.02 368.487 333.66C367.807 333.287 367.267 332.773 366.867 332.12C366.48 331.453 366.287 330.673 366.287 329.78ZM368.147 329.8C368.147 330.333 368.267 330.82 368.507 331.26C368.747 331.687 369.067 332.027 369.467 332.28C369.88 332.533 370.333 332.66 370.827 332.66C371.347 332.66 371.807 332.533 372.207 332.28C372.62 332.027 372.94 331.687 373.167 331.26C373.393 330.82 373.507 330.333 373.507 329.8C373.507 329.267 373.393 328.787 373.167 328.36C372.94 327.92 372.62 327.573 372.207 327.32C371.807 327.053 371.347 326.92 370.827 326.92C370.32 326.92 369.86 327.053 369.447 327.32C369.047 327.587 368.727 327.94 368.487 328.38C368.26 328.807 368.147 329.28 368.147 329.8ZM385.893 325.72L386.053 327.58L385.973 327.42C386.28 326.793 386.713 326.3 387.273 325.94C387.847 325.58 388.5 325.4 389.233 325.4C389.7 325.4 390.113 325.473 390.473 325.62C390.833 325.767 391.127 325.98 391.353 326.26C391.593 326.527 391.747 326.86 391.813 327.26L391.713 327.32C392.033 326.72 392.473 326.253 393.033 325.92C393.607 325.573 394.207 325.4 394.833 325.4C395.647 325.4 396.287 325.633 396.753 326.1C397.233 326.553 397.48 327.147 397.493 327.88V334H395.633V328.54C395.62 328.113 395.513 327.76 395.313 327.48C395.127 327.187 394.793 327.027 394.313 327C393.833 327 393.4 327.147 393.013 327.44C392.64 327.733 392.347 328.113 392.133 328.58C391.92 329.033 391.807 329.527 391.793 330.06V334H389.933V328.54C389.92 328.113 389.807 327.76 389.593 327.48C389.393 327.187 389.053 327.027 388.573 327C388.08 327 387.647 327.147 387.273 327.44C386.9 327.733 386.607 328.113 386.393 328.58C386.193 329.047 386.093 329.547 386.093 330.08V334H384.233V325.72H385.893ZM404.577 334.2C403.631 334.2 402.817 334.013 402.137 333.64C401.457 333.253 400.931 332.733 400.557 332.08C400.197 331.413 400.017 330.653 400.017 329.8C400.017 328.987 400.224 328.247 400.637 327.58C401.051 326.913 401.604 326.38 402.297 325.98C402.991 325.58 403.764 325.38 404.617 325.38C405.711 325.38 406.617 325.7 407.337 326.34C408.057 326.98 408.544 327.86 408.797 328.98L401.977 331.38L401.537 330.28L407.137 328.24L406.737 328.5C406.577 328.06 406.311 327.68 405.937 327.36C405.564 327.027 405.077 326.86 404.477 326.86C403.971 326.86 403.517 326.987 403.117 327.24C402.717 327.48 402.404 327.813 402.177 328.24C401.951 328.667 401.837 329.153 401.837 329.7C401.837 330.273 401.957 330.78 402.197 331.22C402.437 331.647 402.764 331.987 403.177 332.24C403.604 332.48 404.084 332.6 404.617 332.6C404.977 332.6 405.324 332.533 405.657 332.4C406.004 332.267 406.324 332.093 406.617 331.88L407.477 333.26C407.064 333.54 406.597 333.767 406.077 333.94C405.571 334.113 405.071 334.2 404.577 334.2ZM410.188 332.94C410.188 332.647 410.294 332.4 410.508 332.2C410.734 331.987 410.981 331.88 411.248 331.88C411.488 331.88 411.714 331.987 411.928 332.2C412.154 332.4 412.268 332.647 412.268 332.94C412.268 333.26 412.154 333.52 411.928 333.72C411.714 333.907 411.488 334 411.248 334C410.981 334 410.734 333.907 410.508 333.72C410.294 333.52 410.188 333.26 410.188 332.94Z" fill="#3F4553"/>
<path opacity="0.5" d="M207.579 235.699C243.237 235.699 272.144 234.484 272.144 232.986C272.144 231.487 243.237 230.272 207.579 230.272C171.921 230.272 143.014 231.487 143.014 232.986C143.014 234.484 171.921 235.699 207.579 235.699Z" fill="#F9EAD4"/>
<path opacity="0.5" d="M93.9855 231.127C116.621 231.127 134.971 229.625 134.971 227.772C134.971 225.92 116.621 224.418 93.9855 224.418C71.3498 224.418 53 225.92 53 227.772C53 229.625 71.3498 231.127 93.9855 231.127Z" fill="#F9EAD4"/>
<path opacity="0.5" d="M351.586 235.706C351.586 236.839 337.633 237.75 320.419 237.75C303.205 237.75 289.252 236.839 289.252 235.706C289.252 234.574 303.205 233.662 320.419 233.662C337.627 233.662 351.586 234.574 351.586 235.706Z" fill="#F9EAD4"/>
<path d="M276.053 73.3008L274.613 75.9787H277.486L276.053 73.3008Z" fill="#F5C371"/>
<path d="M276.053 78.2151L274.613 80.893H277.486L276.053 78.2151Z" fill="#F5C371"/>
<path d="M279.031 75.3164L277.697 78.2151H280.358L279.031 75.3164Z" fill="#F5C371"/>
<path d="M59.7481 89.2759L58.3086 91.9609H61.1809L59.7481 89.2759Z" fill="#DEA850"/>
<path d="M59.7481 94.1899L58.3086 96.8679H61.1809L59.7481 94.1899Z" fill="#DEA850"/>
<path d="M62.7264 91.2913L61.3926 94.19H64.0536L62.7264 91.2913Z" fill="#DEA850"/>
<path d="M273.181 191.913L271.748 194.591H274.614L273.181 191.913Z" fill="#F5C371"/>
<path d="M273.181 196.82L271.748 199.505H274.614L273.181 196.82Z" fill="#F5C371"/>
<path d="M276.159 193.921L274.832 196.82H277.486L276.159 193.921Z" fill="#F5C371"/>
<path d="M353.244 199.491H287.694C286.724 199.491 285.938 198.643 285.938 197.596C285.938 196.549 286.724 195.702 287.694 195.702H353.244C354.214 195.702 355 196.549 355 197.596C355 198.643 354.214 199.491 353.244 199.491Z" fill="#FEE6C6"/>
<path d="M296.747 232.986C295.763 232.986 294.951 232.337 294.912 231.511L293.208 198.322H300.287L298.583 231.511C298.537 232.337 297.731 232.986 296.747 232.986Z" fill="#FEE6C6"/>
<path d="M344.824 232.986C343.841 232.986 343.028 232.337 342.989 231.511L341.285 198.322H348.364L346.66 231.511C346.614 232.337 345.808 232.986 344.824 232.986Z" fill="#FEE6C6"/>
<path d="M320.472 232.986C319.489 232.986 318.676 232.337 318.637 231.511L316.933 198.322H324.012L322.308 231.511C322.268 232.337 321.456 232.986 320.472 232.986Z" fill="#FEE6C6"/>
<path d="M335.177 189.069C336.121 184.532 333.475 180.029 329.269 179.012C325.063 177.995 320.889 180.848 319.945 185.385C319.002 189.922 321.648 194.424 325.854 195.441C330.06 196.459 334.234 193.605 335.177 189.069Z" fill="#F9D8AC"/>
<path d="M331.493 180.31H323.444C322.995 180.31 322.631 179.919 322.631 179.434C322.631 178.95 322.995 178.558 323.444 178.558H331.493C331.942 178.558 332.305 178.95 332.305 179.434C332.305 179.919 331.942 180.31 331.493 180.31Z" fill="#F9D8AC"/>
<path d="M323.998 164.571C324.282 164.713 324.619 165.254 324.731 166.002C324.844 166.75 324.698 167.391 324.461 167.612C324.183 167.476 323.84 166.928 323.728 166.18C323.615 165.432 323.78 164.798 323.998 164.571Z" fill="#F9D8AC"/>
<path d="M324.527 167.538L324.364 167.567L325.096 172.367L325.259 172.338L324.527 167.538Z" fill="#F9D8AC"/>
<path d="M326.342 167.405C326.039 167.384 325.537 167.69 325.167 168.295C324.797 168.908 324.698 169.556 324.824 169.884C325.121 169.912 325.629 169.599 325.999 168.993C326.375 168.388 326.455 167.733 326.342 167.405Z" fill="#F9D8AC"/>
<path d="M322.618 168.067C322.902 167.939 323.463 168.053 323.998 168.502C324.533 168.951 324.817 169.535 324.797 169.891C324.527 170.026 323.952 169.905 323.417 169.456C322.882 169.007 322.612 168.416 322.618 168.067Z" fill="#F9D8AC"/>
<path d="M322.975 170.417C323.259 170.289 323.82 170.41 324.355 170.852C324.89 171.301 325.174 171.885 325.154 172.241C324.883 172.376 324.309 172.255 323.774 171.806C323.239 171.358 322.969 170.766 322.975 170.417Z" fill="#F9D8AC"/>
<path d="M326.706 169.763C326.402 169.741 325.9 170.047 325.53 170.653C325.16 171.258 325.061 171.913 325.187 172.241C325.484 172.27 325.992 171.956 326.362 171.351C326.732 170.738 326.818 170.083 326.706 169.763Z" fill="#F9D8AC"/>
<path d="M325.239 172.232L325.076 172.261L325.808 177.06L325.971 177.032L325.239 172.232Z" fill="#F9D8AC"/>
<path d="M327.062 172.099C326.758 172.077 326.256 172.384 325.886 172.989C325.516 173.601 325.417 174.25 325.543 174.577C325.84 174.606 326.348 174.299 326.718 173.687C327.088 173.082 327.174 172.426 327.062 172.099Z" fill="#F9D8AC"/>
<path d="M323.331 172.761C323.615 172.633 324.176 172.747 324.711 173.195C325.246 173.644 325.53 174.228 325.51 174.584C325.239 174.72 324.665 174.598 324.13 174.15C323.595 173.701 323.325 173.11 323.331 172.761Z" fill="#F9D8AC"/>
<path d="M323.694 175.119C323.978 174.99 324.54 175.111 325.074 175.553C325.609 176.002 325.893 176.586 325.873 176.942C325.603 177.077 325.028 176.956 324.493 176.507C323.958 176.059 323.681 175.46 323.694 175.119Z" fill="#F9D8AC"/>
<path d="M327.418 174.456C327.115 174.435 326.613 174.741 326.243 175.346C325.873 175.952 325.774 176.607 325.9 176.935C326.197 176.963 326.705 176.65 327.075 176.044C327.451 175.439 327.531 174.777 327.418 174.456Z" fill="#F9D8AC"/>
<path d="M325.959 176.925L325.796 176.954L326.528 181.753L326.691 181.724L325.959 176.925Z" fill="#F9D8AC"/>
<path d="M330.984 168.039C331.209 168.253 331.367 168.808 331.255 169.456C331.143 170.104 330.819 170.575 330.529 170.674C330.304 170.468 330.146 169.905 330.252 169.257C330.37 168.616 330.707 168.153 330.984 168.039Z" fill="#F9D8AC"/>
<path d="M330.461 170.63L329.751 174.791L329.913 174.823L330.623 170.663L330.461 170.63Z" fill="#F9D8AC"/>
<path d="M332.372 171.159C332.088 171.038 331.533 171.116 330.998 171.479C330.47 171.849 330.186 172.348 330.212 172.654C330.483 172.782 331.051 172.697 331.586 172.334C332.114 171.963 332.378 171.458 332.372 171.159Z" fill="#F9D8AC"/>
<path d="M328.654 170.418C328.958 170.411 329.453 170.696 329.829 171.244C330.206 171.793 330.305 172.37 330.179 172.647C329.882 172.662 329.38 172.37 329.004 171.821C328.628 171.273 328.548 170.696 328.654 170.418Z" fill="#F9D8AC"/>
<path d="M328.31 172.462C328.614 172.455 329.109 172.74 329.486 173.288C329.862 173.837 329.961 174.414 329.836 174.691C329.539 174.706 329.037 174.414 328.66 173.865C328.284 173.317 328.198 172.74 328.31 172.462Z" fill="#F9D8AC"/>
<path d="M332.021 173.196C331.737 173.074 331.183 173.153 330.648 173.516C330.12 173.886 329.836 174.385 329.862 174.691C330.133 174.819 330.701 174.734 331.235 174.371C331.764 174.007 332.034 173.495 332.021 173.196Z" fill="#F9D8AC"/>
<path d="M329.77 174.702L329.061 178.862L329.223 178.895L329.932 174.734L329.77 174.702Z" fill="#F9D8AC"/>
<path d="M331.678 175.225C331.394 175.104 330.839 175.182 330.304 175.546C329.776 175.916 329.492 176.414 329.519 176.721C329.789 176.849 330.357 176.763 330.892 176.4C331.42 176.037 331.684 175.531 331.678 175.225Z" fill="#F9D8AC"/>
<path d="M327.96 174.492C328.264 174.485 328.759 174.77 329.136 175.318C329.512 175.866 329.611 176.443 329.486 176.721C329.188 176.735 328.687 176.443 328.31 175.895C327.934 175.346 327.855 174.77 327.96 174.492Z" fill="#F9D8AC"/>
<path d="M329.071 178.769L328.362 182.93L328.524 182.962L329.234 178.801L329.071 178.769Z" fill="#F9D8AC"/>
<path d="M336.517 127.685C336.861 127.92 337.224 128.668 337.264 129.658C337.31 130.641 337.026 131.446 336.696 131.695C336.352 131.481 335.989 130.712 335.943 129.722C335.903 128.739 336.207 127.949 336.517 127.685Z" fill="#FEE6C6"/>
<path d="M336.8 131.601L336.583 131.613L336.861 137.937L337.079 137.925L336.8 131.601Z" fill="#FEE6C6"/>
<path d="M339.159 131.731C338.769 131.653 338.082 131.966 337.515 132.693C336.947 133.419 336.735 134.253 336.854 134.694C337.237 134.787 337.931 134.459 338.498 133.733C339.06 133.006 339.258 132.173 339.159 131.731Z" fill="#FEE6C6"/>
<path d="M334.253 131.987C334.636 131.873 335.349 132.108 335.976 132.77C336.603 133.433 336.894 134.237 336.815 134.693C336.445 134.821 335.718 134.572 335.091 133.91C334.457 133.247 334.187 132.436 334.253 131.987Z" fill="#FEE6C6"/>
<path d="M334.391 135.085C334.774 134.971 335.487 135.206 336.114 135.868C336.742 136.531 337.032 137.336 336.953 137.791C336.583 137.92 335.857 137.67 335.23 137.008C334.596 136.346 334.332 135.534 334.391 135.085Z" fill="#FEE6C6"/>
<path d="M339.297 134.829C338.908 134.751 338.221 135.064 337.653 135.79C337.085 136.517 336.874 137.35 336.993 137.792C337.376 137.884 338.069 137.557 338.637 136.83C339.198 136.104 339.396 135.27 339.297 134.829Z" fill="#FEE6C6"/>
<path d="M337.067 137.818L336.849 137.83L337.127 144.154L337.345 144.142L337.067 137.818Z" fill="#FEE6C6"/>
<path d="M339.436 137.919C339.046 137.841 338.359 138.154 337.792 138.881C337.224 139.607 337.012 140.441 337.131 140.882C337.514 140.975 338.208 140.647 338.775 139.921C339.337 139.194 339.535 138.354 339.436 137.919Z" fill="#FEE6C6"/>
<path d="M334.53 138.176C334.913 138.062 335.626 138.297 336.253 138.959C336.88 139.622 337.171 140.426 337.092 140.882C336.722 141.01 335.996 140.761 335.368 140.099C334.734 139.429 334.464 138.617 334.53 138.176Z" fill="#FEE6C6"/>
<path d="M334.668 141.274C335.051 141.16 335.764 141.395 336.392 142.057C337.019 142.719 337.309 143.524 337.23 143.98C336.86 144.108 336.134 143.859 335.507 143.197C334.873 142.534 334.602 141.722 334.668 141.274Z" fill="#FEE6C6"/>
<path d="M339.574 141.018C339.185 140.939 338.498 141.253 337.93 141.979C337.362 142.706 337.151 143.539 337.27 143.98C337.653 144.073 338.346 143.745 338.914 143.019C339.475 142.292 339.673 141.459 339.574 141.018Z" fill="#FEE6C6"/>
<path d="M337.356 143.979L337.138 143.991L337.422 150.315L337.639 150.303L337.356 143.979Z" fill="#FEE6C6"/>
<path d="M341.444 195.616H335.303C332.853 195.616 330.918 193.358 331.117 190.723L334.306 148.453H342.434L345.624 190.723C345.828 193.358 343.894 195.616 341.444 195.616Z" fill="#FEE6C6"/>
<path d="M343.273 148.582H333.474C332.899 148.582 332.437 148.083 332.437 147.463C332.437 146.844 332.899 146.345 333.474 146.345H343.273C343.847 146.345 344.309 146.844 344.309 147.463C344.309 148.076 343.847 148.582 343.273 148.582Z" fill="#FEE6C6"/>
<path d="M339.601 156.965C339.694 153.418 339.859 149.871 340.031 146.331C340.202 142.792 340.433 139.252 340.638 135.712C340.889 132.173 341.113 128.633 341.397 125.1L341.833 119.802C342.005 118.035 342.15 116.269 342.335 114.503C342.295 116.276 342.216 118.05 342.157 119.823L341.906 125.136C341.734 128.676 341.503 132.215 341.298 135.755C341.041 139.295 340.823 142.834 340.539 146.367C340.255 149.9 339.964 153.432 339.601 156.965Z" fill="#FEE6C6"/>
<path d="M339.912 152.905C339.416 145.818 339.225 138.724 339.106 131.631C339.014 124.537 339 117.444 339.291 110.343C339.786 117.429 339.978 124.523 340.097 131.617C340.182 138.71 340.196 145.804 339.912 152.905Z" fill="#FEE6C6"/>
<path d="M339.073 159.557C339.482 156.031 339.958 152.52 340.453 149.016C340.942 145.505 341.49 142.008 342.005 138.504C342.573 135.007 343.114 131.51 343.708 128.02L344.613 122.785C344.937 121.047 345.24 119.302 345.584 117.565C345.386 119.324 345.148 121.083 344.93 122.842L344.21 128.105C343.722 131.617 343.174 135.114 342.658 138.618C342.091 142.115 341.549 145.612 340.955 149.101C340.354 152.598 339.753 156.081 339.073 159.557Z" fill="#FEE6C6"/>
<path d="M337.858 110.45C337.858 110.863 337.548 111.198 337.165 111.198C336.782 111.198 336.472 110.863 336.472 110.45C336.472 110.037 336.782 109.702 337.165 109.702C337.548 109.702 337.858 110.037 337.858 110.45Z" stroke="#FEE6C6" stroke-miterlimit="10"/>
<path d="M341.576 108.62C342.495 108.62 343.24 107.816 343.24 106.825C343.24 105.834 342.495 105.03 341.576 105.03C340.657 105.03 339.912 105.834 339.912 106.825C339.912 107.816 340.657 108.62 341.576 108.62Z" stroke="#FEE6C6" stroke-miterlimit="10"/>
<path d="M344.923 116.069C345.226 116.069 345.471 115.804 345.471 115.478C345.471 115.151 345.226 114.887 344.923 114.887C344.621 114.887 344.375 115.151 344.375 115.478C344.375 115.804 344.621 116.069 344.923 116.069Z" stroke="#FEE6C6" stroke-miterlimit="10"/>
<path d="M346.799 128.241C346.799 128.547 346.568 128.796 346.284 128.796C346 128.796 345.769 128.547 345.769 128.241C345.769 127.935 346 127.685 346.284 127.685C346.568 127.685 346.799 127.935 346.799 128.241Z" stroke="#FEE6C6" stroke-miterlimit="10"/>
<path d="M333.619 123.548C334.115 123.548 334.517 123.114 334.517 122.579C334.517 122.044 334.115 121.61 333.619 121.61C333.123 121.61 332.721 122.044 332.721 122.579C332.721 123.114 333.123 123.548 333.619 123.548Z" stroke="#FEE6C6" stroke-miterlimit="10"/>
<path d="M312.047 167.612H289.161V194.505H312.047V167.612Z" fill="#F9D8AC"/>
<path d="M309.485 170.624H291.729V191.492H309.485V170.624Z" fill="#FEE6C6"/>
<path d="M81.499 44.8975H77.8145V220.629H81.499V44.8975Z" fill="#FEE6C6"/>
<path d="M98.4558 227.046H60.8643C60.8643 222.709 69.2832 219.198 79.6633 219.198C90.0434 219.198 98.4558 222.709 98.4558 227.046Z" fill="#FEE6C6"/>
<path d="M105.514 47.3122H53.7988L54.7563 43.6942L54.9478 42.9819L56.6844 36.4296L56.8759 35.7174L66.3447 0H94.2891L102.761 35.7174L102.933 36.4296L104.484 42.9819L104.656 43.6942L105.514 47.3122Z" fill="#FEE6C6"/>
<path d="M57.1927 38.032L55.4297 41.3224H58.9491L57.1927 38.032Z" fill="#E5CAA6"/>
<path d="M61.1815 41.3224L59.4185 38.032H62.9445L61.1815 41.3224Z" fill="#E5CAA6"/>
<path d="M64.7008 38.032L62.9443 41.3224H66.4638L64.7008 38.032Z" fill="#E5CAA6"/>
<path d="M68.6956 41.3224L66.9326 38.032H70.4521L68.6956 41.3224Z" fill="#E5CAA6"/>
<path d="M72.2152 38.032L70.4521 41.3224H73.9716L72.2152 38.032Z" fill="#E5CAA6"/>
<path d="M76.2035 41.3224L74.4404 38.032H77.9665L76.2035 41.3224Z" fill="#E5CAA6"/>
<path d="M79.7223 38.032L77.9658 41.3224H81.4853L79.7223 38.032Z" fill="#E5CAA6"/>
<path d="M83.711 41.3224L81.9546 38.032H85.4741L83.711 41.3224Z" fill="#E5CAA6"/>
<path d="M87.2372 38.032L85.4741 41.3224H88.9936L87.2372 38.032Z" fill="#E5CAA6"/>
<path d="M91.2254 41.3224L89.4624 38.032H92.9819L91.2254 41.3224Z" fill="#E5CAA6"/>
<path d="M94.745 38.032L92.9819 41.3224H96.508L94.745 38.032Z" fill="#E5CAA6"/>
<path d="M98.733 41.3224L96.9766 38.032H100.496L98.733 41.3224Z" fill="#E5CAA6"/>
<path d="M102.253 38.032L100.496 41.3224H104.016L102.253 38.032Z" fill="#E5CAA6"/>
<path d="M102.933 36.4295H56.6846L56.8761 35.7173H102.761L102.933 36.4295Z" fill="#E5CAA6"/>
<path d="M104.656 43.6944H54.7563L54.9478 42.9822H104.484L104.656 43.6944Z" fill="#E5CAA6"/>
<path d="M111.351 151.558C112.698 145.931 115.597 140.903 118.575 136.06C121.216 131.758 123.983 127.478 127.469 123.945C130.956 120.406 135.254 117.621 139.982 116.837C138.827 120.854 137.671 124.871 136.515 128.888C135.36 132.905 134.165 137.007 131.887 140.419C129.503 143.98 126.05 146.586 122.365 148.452C118.674 150.318 114.725 151.494 110.796 152.662" fill="#66A986"/>
<path d="M111.596 151.63C113.584 144.017 117.902 137.094 122.26 130.805C124.512 127.55 126.988 124.488 129.986 122.016C131.405 120.841 138.649 115.663 139.369 118.106C139.686 119.189 137.929 123.099 137.632 124.132C137.077 126.062 136.536 127.992 135.968 129.915C134.905 133.526 133.749 137.179 131.683 140.285C126.823 147.556 118.344 150.142 110.738 152.406C110.434 152.499 110.559 153.012 110.87 152.919C118.305 150.704 126.374 148.212 131.452 141.474C136.463 134.829 137.936 124.872 140.227 116.91C140.287 116.703 140.095 116.547 139.923 116.582C132.772 117.992 127.232 123.056 122.854 129.089C118.027 135.741 113.26 143.29 111.121 151.495C111.028 151.815 111.504 151.958 111.596 151.63Z" fill="#66A986"/>
<path d="M103.428 170.467C108.644 158.445 113.854 146.416 119.07 134.394C119.341 133.774 118.483 133.233 118.212 133.853C112.996 145.875 107.786 157.904 102.569 169.926C102.305 170.546 103.157 171.087 103.428 170.467Z" fill="#80B996"/>
<path d="M104.181 144.593C104.485 131.994 108.895 119.26 111.834 107.145C111.913 106.81 111.438 106.668 111.358 107.003C108.407 119.181 103.996 131.923 103.692 144.593C103.679 144.935 104.174 144.935 104.181 144.593Z" fill="#80B996"/>
<path d="M96.3099 147.229C91.3311 142.457 86.3128 137.635 82.4103 131.809C78.5145 125.983 75.7742 118.996 75.9921 111.817C79.1682 117.252 85.877 119.281 89.1851 124.623C90.2746 126.382 90.9283 128.412 91.5688 130.413C93.3649 136.018 95.1675 141.631 96.9636 147.236" fill="#66A986"/>
<path d="M96.4811 147.043C91.2581 142.037 85.9492 136.966 81.9807 130.698C80.0064 127.579 78.3886 124.167 77.3717 120.549C76.8435 118.669 76.4869 116.746 76.3152 114.794C76.17 113.114 75.7078 112.508 76.8633 113.541C78.5009 115.008 79.9073 116.589 81.6638 117.928C84.0739 119.759 86.6227 121.475 88.4386 124.032C90.7827 127.329 91.7335 131.774 92.9815 135.662C94.2295 139.544 95.4709 143.425 96.7189 147.307C96.8245 147.627 97.2999 147.492 97.1943 147.164C95.8076 142.848 94.4276 138.54 93.0409 134.224C91.9514 130.819 91.0996 127.066 89.1253 124.096C85.6917 118.925 79.5508 116.96 76.1964 111.675C76.0643 111.461 75.7342 111.533 75.7342 111.81C75.6285 127.094 86.3058 137.991 96.1246 147.414C96.3689 147.649 96.7255 147.271 96.4811 147.043Z" fill="#66A986"/>
<path d="M86.6296 121.04C94.7712 138.924 100.12 158.09 102.477 177.854C102.556 178.523 103.547 178.537 103.468 177.854C101.09 157.897 95.7089 138.568 87.4814 120.499C87.204 119.88 86.3456 120.421 86.6296 121.04Z" fill="#80B996"/>
<path d="M101.322 105.015C97.2474 89.6096 97.3663 72.9438 101.665 57.6028C104.656 62.2393 106.947 67.4028 108.427 72.8156C110.077 78.8481 110.718 85.2651 109.747 91.4684C108.776 97.6718 106.122 103.647 101.863 107.942" fill="#66A986"/>
<path d="M101.559 104.944C99.4729 96.8108 98.4428 88.4281 98.6211 79.9884C98.7201 75.4659 99.1427 70.9576 99.9087 66.5062C100.239 64.5904 100.635 62.6888 101.084 60.8014C101.857 57.5893 102.398 59.1776 103.547 61.3142C111.187 75.473 113.425 95.3651 101.678 107.758C101.447 108 101.797 108.377 102.028 108.135C115.05 94.3964 111.154 72.2395 101.87 57.4683C101.751 57.2831 101.48 57.3045 101.414 57.5324C97.1816 73.0799 97.0693 89.4679 101.071 105.087C101.17 105.414 101.645 105.272 101.559 104.944Z" fill="#66A986"/>
<path d="M112.845 147.229C111.762 139.48 114.073 131.532 117.817 124.816C121.561 118.1 126.678 112.416 131.75 106.804C132.984 117.502 130.878 128.619 125.853 137.935C124.473 140.499 122.835 142.97 120.643 144.758C118.451 146.546 115.625 147.6 112.924 147.073" fill="#80B996"/>
<path d="M113.095 147.228C112.151 139.13 114.409 131.296 118.331 124.423C120.325 120.933 122.703 117.721 125.218 114.652C126.361 113.263 127.536 111.895 128.725 110.549C129.233 109.972 129.735 109.246 130.316 108.762C131.207 108.021 131.095 107.501 131.663 108.584C132.204 109.602 131.841 112.209 131.828 113.37C131.808 115.164 131.703 116.959 131.511 118.747C131.075 122.678 130.21 126.581 128.916 130.292C126.361 137.635 121.56 147.869 112.91 146.808C112.593 146.772 112.6 147.307 112.91 147.342C120.834 148.318 125.535 140.049 128.315 133.269C131.736 124.943 132.918 115.827 131.98 106.803C131.96 106.589 131.722 106.433 131.557 106.611C121.613 117.636 110.645 130.605 112.587 147.228C112.639 147.563 113.135 147.57 113.095 147.228Z" fill="#80B996"/>
<path d="M105.144 133.375C104.53 123.903 106.3 114.387 109.192 105.414C112.084 96.4398 116.086 87.9431 120.074 79.4678C122.722 89.161 123.567 99.5806 121.335 109.395C119.103 119.209 113.59 128.34 105.527 133.482" fill="#80B996"/>
<path d="M105.396 133.376C104.874 123.612 106.631 114.018 109.648 104.845C111.253 99.9662 113.181 95.2157 115.248 90.5436C116.238 88.293 117.268 86.0638 118.305 83.8417C118.424 83.5853 119.474 80.8006 119.725 80.8148C120.557 80.8504 120.609 82.5882 120.781 83.3645C124.776 101.59 121.118 122.828 105.402 133.255C105.132 133.433 105.383 133.896 105.653 133.718C122.901 122.28 125.449 98.8409 120.319 79.3975C120.266 79.1838 119.962 79.1197 119.863 79.3334C111.92 96.2199 103.857 113.918 104.901 133.376C104.92 133.718 105.416 133.725 105.396 133.376Z" fill="#80B996"/>
<path d="M99.8031 99.268C103.758 124.103 104.452 149.379 101.896 174.428C101.824 175.111 102.821 175.104 102.887 174.428C105.449 149.287 104.722 123.91 100.761 98.9831C100.648 98.3065 99.6975 98.5914 99.8031 99.268Z" fill="#80B996"/>
<path d="M101.452 107.365C97.6555 103.946 94.3474 98.1417 93.4559 92.8999C92.5645 87.658 92.8286 82.2665 93.1324 76.9463C93.4427 71.6261 93.7927 66.256 93.0796 60.9785C96.7839 66.3557 99.9006 72.203 102.35 78.3636C104.206 83.0286 105.692 87.95 105.857 93.0209C106.022 98.0919 104.754 103.362 101.644 107.173" fill="#80B996"/>
<path d="M101.632 107.181C95.4908 101.34 93.1335 93.6129 93.1005 84.9596C93.0873 80.9498 93.4241 76.9543 93.609 72.9588C93.7014 70.9575 93.7674 68.9562 93.741 66.9549C93.7344 66.378 93.226 62.3468 93.5561 62.1332C94.7447 61.364 103.15 81.1279 103.619 82.5808C106.247 90.6929 106.815 99.973 101.473 106.988C101.275 107.252 101.619 107.629 101.823 107.366C112.408 93.4634 101.44 72.8662 93.292 60.8512C93.1666 60.666 92.7968 60.6945 92.8298 60.9865C93.9325 70.3094 92.0572 79.618 92.7373 88.948C93.2656 96.2196 96.1776 102.715 101.275 107.558C101.519 107.786 101.869 107.408 101.632 107.181Z" fill="#80B996"/>
<path d="M95.8729 143.937C97.7878 136.679 96.6587 126.787 93.4496 120.078C90.2405 113.376 85.2419 107.828 79.6953 103.227C79.9991 110.961 80.5537 118.803 82.944 126.103C85.341 133.41 89.4613 140.454 95.8729 143.937Z" fill="#80B996"/>
<path d="M96.1118 144.009C100.113 127.479 91.5556 112.9 79.8747 103.043C79.7228 102.915 79.4389 102.979 79.4521 103.235C80.0596 118.014 82.2782 136.396 95.7486 144.173C96.0325 144.337 96.2768 143.874 95.9995 143.71C89.8784 140.178 85.9496 133.903 83.5262 127.03C82.2782 123.49 81.4793 119.78 80.951 116.041C80.5944 113.505 80.3699 110.956 80.2049 108.399C80.152 107.565 80.0002 106.647 80.0596 105.813C80.1454 104.603 79.7162 104.254 80.8256 104.531C81.9415 104.809 83.7639 107.238 84.5761 108.071C85.7779 109.303 86.9268 110.599 88.0097 111.953C90.4265 114.972 92.5593 118.334 94.0054 122.016C96.673 128.782 97.3664 136.738 95.6363 143.867C95.5571 144.202 96.0325 144.344 96.1118 144.009Z" fill="#80B996"/>
<path d="M123.858 200.666C123.858 212.716 119.52 223.214 113.108 228.677H92.8895C86.4779 223.214 82.1396 212.716 82.1396 200.666C82.1396 189.406 85.9298 179.499 91.6547 173.787H114.336C120.068 179.499 123.858 189.399 123.858 200.666Z" fill="#FEE6C6"/>
<path d="M93.5957 185.417L88.168 195.566H99.0301L93.5957 185.417Z" stroke="#E6CAA6" stroke-miterlimit="10"/>
<path d="M93.5957 187.896L90.1489 194.334H97.0426L93.5957 187.896Z" stroke="#E6CAA6" stroke-width="0.5" stroke-miterlimit="10"/>
<path d="M101.44 218.742L94.877 222.83V214.661L101.44 218.742Z" stroke="#E6CAA6" stroke-width="0.75" stroke-miterlimit="10"/>
<path d="M99.2613 218.742L95.9663 220.793V216.69L99.2613 218.742Z" stroke="#E6CAA6" stroke-width="0.5" stroke-miterlimit="10"/>
<path d="M110.645 176.771L105.389 186.592H115.908L110.645 176.771Z" stroke="#E6CAA6" stroke-miterlimit="10"/>
<path d="M110.645 180.496L108.38 184.726H112.916L110.645 180.496Z" stroke="#E6CAA6" stroke-width="0.5" stroke-miterlimit="10"/>
<path d="M110.645 219.902L104.61 204.939H116.687L110.645 219.902Z" stroke="#E6CAA6" stroke-miterlimit="10"/>
<path d="M110.645 216.256L106.815 206.762H114.482L110.645 216.256Z" stroke="#E6CAA6" stroke-width="0.5" stroke-miterlimit="10"/>
<path d="M90.6313 207.254C90.6313 206.257 91.3841 205.445 92.3085 205.445C93.233 205.445 93.9857 206.257 93.9857 207.254C93.9857 208.251 93.233 209.063 92.3085 209.063C91.3841 209.063 90.6313 208.251 90.6313 207.254Z" stroke="#E6CAA6" stroke-miterlimit="10"/>
<path d="M110.645 198.137C112.133 198.137 113.339 196.836 113.339 195.231C113.339 193.626 112.133 192.325 110.645 192.325C109.157 192.325 107.951 193.626 107.951 195.231C107.951 196.836 109.157 198.137 110.645 198.137Z" stroke="#E6CAA6" stroke-miterlimit="10"/>
<path d="M99.7896 181.13C100.369 181.13 100.84 180.623 100.84 179.997C100.84 179.372 100.369 178.865 99.7896 178.865C99.2098 178.865 98.7397 179.372 98.7397 179.997C98.7397 180.623 99.2098 181.13 99.7896 181.13Z" stroke="#E6CAA6" stroke-miterlimit="10"/>
<g opacity="0.25">
<path opacity="0.25" d="M115.855 175.468C112.236 194.747 103.943 212.994 91.978 227.837C92.2752 228.122 92.5789 228.414 92.8893 228.677H113.108C119.52 223.214 123.858 212.716 123.858 200.666C123.858 190.431 120.728 181.329 115.855 175.468Z" fill="#FEE6C6"/>
</g>
<path d="M114.303 173.787H91.694C91.0073 173.787 90.4526 173.188 90.4526 172.448V172.17C90.4526 171.429 91.0073 170.831 91.694 170.831H114.303C114.99 170.831 115.544 171.429 115.544 172.17V172.448C115.551 173.188 114.99 173.787 114.303 173.787Z" fill="#F9D8AC"/>
<path d="M115.743 141.901C116.377 139.579 117.176 137.308 118.067 135.078C118.952 132.849 119.969 130.677 121.058 128.554C122.167 126.439 123.356 124.381 124.663 122.408C125.324 121.425 125.991 120.449 126.684 119.495C127.397 118.555 128.104 117.622 128.863 116.725C128.546 117.223 128.223 117.722 127.892 118.206L126.942 119.702C126.308 120.699 125.687 121.703 125.086 122.714C123.884 124.751 122.722 126.802 121.633 128.903C120.53 130.997 119.513 133.141 118.523 135.306C117.539 137.478 116.634 139.686 115.743 141.901Z" fill="#66A986"/>
<path d="M99.8824 101.241C99.5192 99.0543 99.2287 96.8607 98.9513 94.6671C98.6674 92.4735 98.4297 90.2727 98.192 88.0791C97.9741 85.8784 97.7562 83.6776 97.5845 81.4698L97.3336 78.158C97.2741 77.0541 97.1949 75.943 97.1553 74.8391C97.3402 75.9288 97.4854 77.0256 97.6571 78.1224L98.0863 81.4128C98.3702 83.6064 98.608 85.8072 98.8457 88.0079C99.0636 90.2086 99.2815 92.4094 99.4532 94.6243C99.6314 96.8179 99.7899 99.0258 99.8824 101.241Z" fill="#66A986"/>
<path d="M84.3848 113.669C85.5073 115.556 86.5044 117.522 87.442 119.523C88.3863 121.525 89.2182 123.576 89.9974 125.663C90.7568 127.749 91.4567 129.865 92.051 132.016C92.3415 133.091 92.6254 134.174 92.883 135.256C93.1207 136.346 93.365 137.435 93.5565 138.539L92.5726 135.356C92.2491 134.295 91.9123 133.241 91.5689 132.186C90.869 130.085 90.1559 127.992 89.3899 125.926C88.6372 123.854 87.8184 121.802 86.993 119.758C86.1478 117.714 85.2696 115.699 84.3848 113.669Z" fill="#66A986"/>
<path d="M108.123 124.302C109.16 121.589 110.19 118.882 111.16 116.147C112.131 113.413 113.089 110.678 113.947 107.907C114.858 105.151 115.67 102.359 116.463 99.5672C116.859 98.1712 117.242 96.7682 117.618 95.358L118.734 91.1274C118.503 92.5732 118.213 94.0048 117.929 95.4434C117.618 96.875 117.288 98.2994 116.951 99.7167C116.251 102.558 115.433 105.357 114.568 108.142C113.656 110.906 112.699 113.662 111.623 116.361C110.553 119.046 109.404 121.71 108.123 124.302Z" fill="#66A986"/>
<path d="M231.845 95.6643H181.84C169.73 95.6643 159.911 106.255 159.911 119.317V177.141H253.781V119.317C253.781 106.255 243.962 95.6643 231.845 95.6643Z" fill="#7E7E7E"/>
<path d="M242.668 164.414H171.018V177.141H242.668V164.414Z" fill="#585857"/>
<path d="M242.668 177.141H165.464V209.49H242.668V177.141Z" fill="#999996"/>
<path d="M248.782 214.283H164.91C162.453 214.283 160.466 212.14 160.466 209.49H253.226C253.226 212.14 251.232 214.283 248.782 214.283Z" fill="#585857"/>
<path d="M162.691 229.261H159.911L164.91 214.283H168.799L162.691 229.261Z" fill="#585857"/>
<path d="M251.001 229.261H253.781L248.782 214.283H244.893L251.001 229.261Z" fill="#585857"/>
<path d="M151.948 104.944C149.26 103.014 147.002 100.265 145.939 96.9746C144.876 93.6842 145.113 89.8382 146.916 86.9467C148.719 84.0551 152.159 82.3315 155.309 83.1078C155.441 78.5212 159.35 75.1809 163.133 73.0799C167.3 70.7652 171.651 69.4263 175.91 71.5273C178.281 72.7024 180.777 74.6112 182.031 77.0825C183.286 79.5468 184.032 82.2674 184.759 84.9738C187.737 83.0651 191.791 83.3571 194.511 85.6718C197.232 87.9865 198.427 92.1743 197.397 95.7425C200.764 94.2041 204.845 93.5204 207.942 95.6214C211.197 97.8293 212.32 102.366 212.544 106.511C212.736 110.072 212.406 113.847 210.53 116.781C208.312 120.257 204.383 121.895 200.665 123.212C194.234 125.484 187.611 127.386 180.843 127.6C174.075 127.813 167.102 126.232 161.555 122.052C156.002 117.871 152.086 110.863 152.284 103.563" fill="#4E5567"/>
<path d="M148.402 110.129C145.034 110.321 141.838 112.622 140.379 115.905C138.92 119.188 139.25 123.312 141.211 126.268C138.411 126.311 135.698 128.105 134.39 130.776C133.083 133.447 133.248 136.873 134.793 139.387C136.1 141.509 138.233 142.891 140.445 143.788C146.579 146.274 153.552 145.433 159.64 142.82C163.14 141.317 166.501 139.187 168.858 136.025C171.216 132.863 172.444 128.54 171.427 124.63C170.714 121.902 168.99 119.587 166.957 117.807C164.916 116.026 162.559 114.723 160.215 113.462C156.174 111.29 151.941 109.139 147.425 109.054" fill="#3F4553"/>
<path d="M168.244 157.969H148.805C142.67 157.969 137.698 152.606 137.698 145.989C137.698 139.373 142.67 134.01 148.805 134.01H164.21C166.442 134.01 168.251 135.961 168.251 138.368V157.969H168.244Z" fill="#999996"/>
<path d="M171.017 209.49H158.082C153.572 209.49 149.914 205.544 149.914 200.68V134.002H162.849C167.359 134.002 171.017 137.948 171.017 142.813V209.49Z" fill="#999996"/>
<path d="M173.302 74.3333C175.058 73.8846 177.039 74.2265 178.597 75.3803C179.363 75.9572 180.037 76.705 180.466 77.5953C180.724 78.0155 180.856 78.4998 181.021 78.9556C181.146 79.4256 181.232 79.9171 181.305 80.3871C181.087 79.9527 180.948 79.4969 180.724 79.0838C180.493 78.6778 180.308 78.2505 180.03 77.8873C179.548 77.1181 178.921 76.4771 178.221 75.9572C177.528 75.4301 176.735 75.0527 175.91 74.7891C175.078 74.547 174.206 74.3761 173.302 74.3333Z" fill="white"/>
<path d="M202.699 97.7866C204.548 97.751 206.462 98.4917 207.862 99.9233C208.219 100.272 208.503 100.7 208.787 101.113C209.011 101.576 209.275 102.01 209.401 102.509C209.586 102.986 209.645 103.499 209.718 103.997C209.764 104.503 209.744 105.008 209.731 105.5C209.526 104.524 209.322 103.57 208.925 102.715C208.562 101.846 208.047 101.07 207.407 100.429C206.779 99.7737 206.04 99.2395 205.248 98.8051C204.435 98.392 203.59 98.0288 202.699 97.7866Z" fill="white"/>
<path d="M191.573 87.3315C191.982 87.3956 192.372 87.5523 192.748 87.7517C193.124 87.9512 193.468 88.2147 193.772 88.5209C194.075 88.8343 194.326 89.2189 194.498 89.632C194.676 90.0451 194.742 90.508 194.729 90.9496C194.597 90.5294 194.485 90.1163 194.267 89.7602C194.056 89.4041 193.824 89.0693 193.534 88.7773C192.973 88.1933 192.299 87.7304 191.573 87.3315Z" fill="white"/>
<path d="M201.623 118.234C202.455 114.972 202.184 111.283 200.428 108.477C198.672 105.671 195.304 103.976 192.267 104.83C193.198 102.473 191.851 99.6598 189.883 98.214C187.922 96.7682 185.492 96.3195 183.167 95.7497C176.34 94.076 169.796 91.0491 163.966 86.8684C161.014 84.7532 160.525 85.2303 159.132 81.8188C158.3 83.1364 156.669 85.2802 156.623 86.9112C153.988 84.3187 148.706 84.0481 146.91 86.9397C145.107 89.8312 144.869 93.6772 145.932 96.9676C146.996 100.258 149.254 103.007 151.941 104.937L152.271 103.556C152.073 110.856 155.989 117.864 161.542 122.045C167.095 126.225 174.068 127.806 180.83 127.593C187.07 127.393 193.184 125.762 199.14 123.725C200.243 122.037 201.121 120.207 201.623 118.234Z" fill="#3F4553"/>
<path d="M176.082 94.475C175.64 90.743 177.832 87.3671 180.975 86.9326C184.125 86.4982 187.037 89.1619 187.486 92.8939C187.928 96.6259 185.736 100.002 182.593 100.436C179.443 100.871 176.531 98.1999 176.082 94.475Z" fill="#F5C371"/>
<path d="M176.082 94.4775C176.525 98.2095 179.443 100.88 182.593 100.439C183.9 100.261 185.036 99.5627 185.894 98.5585C181.985 95.8521 181.299 89.1359 181.173 86.9209C181.107 86.928 181.048 86.928 180.982 86.9351C177.832 87.3696 175.64 90.7455 176.082 94.4775Z" fill="#F5C371"/>
<path d="M167.689 109.894L169.908 120.677L177.687 123.07C177.687 123.07 180.466 120.072 180.466 119.474C180.466 118.875 176.577 107.494 176.577 107.494L167.689 109.894Z" fill="#FDBCA0"/>
<path d="M176.571 107.501L167.683 109.894L168.442 113.576C170.034 114.317 171.83 114.865 173.877 115.136C174.993 115.285 176.142 115.058 177.119 114.445C177.621 114.132 178.09 113.747 178.539 113.341C177.561 110.4 176.571 107.501 176.571 107.501Z" fill="#DF8370"/>
<path d="M155.467 88.3282C155.467 88.3282 154.358 111.696 173.797 112.892C179.905 110.499 183.795 101.511 182.685 94.3179C181.576 87.1317 174.352 75.1452 163.8 78.7419C158.247 81.142 155.467 88.3282 155.467 88.3282Z" fill="#FDBCA0"/>
<path d="M217.121 115.293L231.245 96.6688C231.806 95.9281 232.116 95.0022 232.116 94.0407V88.984C232.116 88.5994 232.347 88.2504 232.684 88.1293C233.226 87.937 233.78 88.3715 233.78 88.984V92.5308L238.779 82.9444L245.441 82.3462L236.554 99.1188L223.222 124.281L217.121 115.293Z" fill="#FDBCA0"/>
<path d="M279.328 98.5132L302.657 106.903L309.834 100.379C312.522 97.9363 316.464 97.7013 319.257 100.002C320.875 101.334 321.727 103.207 319.871 105.707C315.427 111.696 302.65 118.284 302.65 118.284L276.542 112.294L279.328 98.5132Z" fill="#FDBCA0"/>
<path opacity="0.5" d="M276.555 112.294L289.517 115.271C290.349 110.236 289.702 105.151 289.101 102.031L279.335 98.52L276.555 112.294Z" fill="#DF8370"/>
<path d="M207.678 141.652C207.678 141.652 236.923 106.604 250.004 94.6387C252.183 92.6445 255.009 91.6759 257.861 91.9252C267.515 92.7656 287.661 96.7184 287.661 96.7184C287.661 96.7184 291.55 112.294 284.327 121.283C279.883 120.684 259.889 116.489 259.889 116.489L219.339 164.414L207.678 141.652Z" fill="#739BE0"/>
<path d="M285.436 129.067L304.321 151.829L320.069 154.742C322.995 155.284 324.83 158.617 323.668 161.565C322.915 163.467 321.113 166.031 317.098 165.012C307.656 162.619 298.768 159.621 298.768 159.621L276.548 140.448L285.436 129.067Z" fill="#FDBCA0"/>
<path opacity="0.5" d="M297.071 143.091L285.436 129.067L276.548 140.448L292.079 153.852C294.641 150.996 296.813 147.357 297.071 143.091Z" fill="#DF8370"/>
<path opacity="0.2" d="M249.878 101.568L209.051 144.322L219.346 164.414L259.895 116.489C259.895 116.489 279.889 120.684 284.333 121.282C284.796 120.712 285.205 120.107 285.581 119.487C278.318 113.085 269.648 105.735 263.19 100.6C259.123 97.3733 253.497 97.7793 249.878 101.568Z" fill="#739BE0"/>
<path d="M191.573 160.817C191.573 160.817 201.57 176.393 216.011 174.599C229.494 172.918 244.424 151.922 254.936 134.031C256.012 132.194 258.423 131.987 259.763 133.604C268.03 143.596 282.663 158.424 282.663 158.424C282.663 158.424 296.549 151.238 296.549 139.85C292.719 134.893 276.74 117.116 267.185 106.554C263.065 101.996 256.395 101.604 251.833 105.642L207.116 145.241L191.573 160.817Z" fill="#97B8FF"/>
<g opacity="0.5">
<path opacity="0.5" d="M216.011 174.599C229.494 172.918 244.424 151.922 254.936 134.031C256.013 132.194 258.423 131.987 259.763 133.604C268.03 143.596 282.663 158.425 282.663 158.425C282.663 158.425 285.898 156.744 289.246 153.731C281.804 145.74 273.92 138.233 265.64 131.275C262.959 129.024 259.776 126.703 256.442 127.415C253.543 128.042 251.503 130.769 249.726 133.319C245.883 138.832 242.047 144.344 238.204 149.857C234.011 155.875 229.58 162.107 223.301 165.39C217.946 168.182 211.521 168.495 205.954 166.238C201.636 164.486 197.885 161.195 195.343 157.05L191.573 160.825C191.573 160.818 201.57 176.394 216.011 174.599Z" fill="#97B8FF"/>
</g>
<path d="M245.448 157.969H264.887C271.021 157.969 275.993 152.606 275.993 145.989C275.993 139.373 271.021 134.01 264.887 134.01H249.482C247.25 134.01 245.441 135.961 245.441 138.368V157.969H245.448Z" fill="#999996"/>
<path d="M242.668 209.49H255.603C260.113 209.49 263.772 205.544 263.772 200.68V134.002H250.836C246.326 134.002 242.668 137.948 242.668 142.813V209.49Z" fill="#999996"/>
<path d="M248.194 142.813V201.228H258.759V151.957H261.658C264.715 151.957 267.191 149.287 267.191 145.989C267.191 142.692 264.715 140.021 261.658 140.021H250.783C249.35 140.021 248.194 141.267 248.194 142.813Z" stroke="#999996" stroke-miterlimit="10"/>
<path d="M160.465 99.1114L151.023 102.11C151.023 102.11 153.803 112.294 167.689 118.882L169.353 118.284C169.353 118.284 177.125 122.978 179.073 114.937C182.216 113.754 186.171 112.772 189.268 112.095C192.471 111.397 195.792 111.945 198.651 113.633L209.758 120.207C210.808 120.827 212.122 120.563 212.894 119.573L220.455 109.894L228.167 116.155L217.477 134.508C216.783 135.705 215.351 136.125 214.188 135.477L203.795 129.665L209.903 139.85C209.903 139.85 209.348 158.424 191.573 160.817C185.465 154.229 177.686 145.84 173.242 142.243C168.799 138.646 154.358 128.462 150.468 124.267C146.579 120.072 136.582 105.094 136.027 97.3095C136.027 93.1146 158.247 90.1233 158.247 90.1233L160.465 99.1114Z" fill="#FFFFFE"/>
<path d="M156.913 122.486C145.305 113.904 140.385 102.694 138.305 94.9805C136.906 95.6998 136.027 96.4832 136.027 97.3165C136.582 105.108 146.579 120.079 150.468 124.274C154.358 128.469 168.799 138.653 173.242 142.25C174.035 142.891 174.939 143.689 175.91 144.6C173.54 139.173 168.323 130.926 156.913 122.486Z" fill="#F2F2F2"/>
<path d="M193.191 121.931C193.653 121.788 194.129 121.71 194.611 121.667C195.093 121.617 195.575 121.624 196.063 121.674C197.027 121.774 198.005 122.037 198.883 122.55C199.768 123.035 200.547 123.775 201.115 124.651C201.432 125.071 201.636 125.563 201.867 126.033C202.085 126.51 202.204 127.03 202.376 127.529L202.33 127.429C202.871 128.219 203.373 129.046 203.895 129.85C204.416 130.662 204.905 131.488 205.393 132.329C204.779 131.595 204.172 130.855 203.597 130.1C203.023 129.338 202.422 128.59 201.867 127.813L201.848 127.792L201.815 127.714C201.636 127.258 201.498 126.781 201.293 126.332C201.068 125.905 200.884 125.449 200.586 125.071C200.342 124.658 200.012 124.324 199.695 123.968C199.338 123.668 199.002 123.341 198.592 123.113C197.806 122.621 196.935 122.265 196.01 122.094C195.093 121.923 194.142 121.845 193.191 121.931Z" fill="#97B8FF"/>
<path d="M171.354 95.9992C171.843 96.8325 172.265 98.5133 173.5 98.2498C173.923 98.1572 174.121 97.8082 174.444 97.5376C175.58 96.5832 176.174 98.0504 175.369 98.8552C174.953 99.2683 174.372 99.368 173.837 99.4321C173.527 99.4677 173.52 100.002 173.837 99.9662C174.616 99.8737 175.435 99.6814 175.937 98.9692C176.34 98.3994 176.419 97.6159 175.976 97.0462C175.567 96.5334 174.96 96.4479 174.444 96.8183C173.962 97.1601 173.692 97.972 172.906 97.6088C172.345 97.3524 172.081 96.2343 171.783 95.7286C171.612 95.4437 171.183 95.7072 171.354 95.9992Z" fill="#444359"/>
<path d="M168.733 103.855C171.315 106.191 174.907 105.685 176.815 102.68C176.993 102.395 176.564 102.124 176.386 102.409C174.676 105.108 171.414 105.585 169.083 103.477C168.838 103.256 168.488 103.634 168.733 103.855Z" fill="#444359"/>
<path d="M162.744 94.4177C163.345 92.7511 164.863 91.8324 166.501 92.1457C166.811 92.2027 166.943 91.6899 166.633 91.6329C164.718 91.2697 162.968 92.3238 162.268 94.2824C162.149 94.5958 162.631 94.7311 162.744 94.4177Z" fill="#444359"/>
<path d="M164.322 99.154L163.008 98.335L164.52 98.4774L164.322 99.154Z" fill="#444359"/>
<path d="M164.639 99.3532C165.339 97.3163 167.267 96.3762 169.169 97.067C169.472 97.1739 169.604 96.6611 169.301 96.5543C167.135 95.7708 164.949 96.9175 164.164 99.2179C164.051 99.5313 164.527 99.6737 164.639 99.3532Z" fill="#444359"/>
<path d="M165.497 97.1956L164.91 95.3367L166.072 96.8466L165.497 97.1956Z" fill="#444359"/>
<path d="M168.211 96.6186L168.614 95.3367L168.872 96.6685L168.211 96.6186Z" fill="#444359"/>
<path d="M178.208 92.246L179.132 90.9426L178.809 92.5451L178.208 92.246Z" fill="#444359"/>
<path d="M178.914 92.4309C176.821 91.5477 174.583 92.5377 173.691 94.7598C173.566 95.0732 173.995 95.3438 174.12 95.0304C174.933 93.0077 176.874 92.1389 178.789 92.9437C179.079 93.0719 179.205 92.5519 178.914 92.4309Z" fill="#444359"/>
<path d="M176.049 92.3952L175.791 90.4509L176.676 92.1673L176.049 92.3952Z" fill="#444359"/>
<path d="M174.048 94.5104L173.302 93.4136L174.457 93.9549L174.048 94.5104Z" fill="#444359"/>
<path d="M232.922 98.5204L239.492 76.2995C239.663 75.7226 240.152 75.3237 240.72 75.3095L252.507 74.9748C253.411 74.9463 254.071 75.8864 253.807 76.8194L247.257 99.9021C247.079 100.522 246.537 100.935 245.936 100.913L234.13 100.394C233.258 100.337 232.658 99.4178 232.922 98.5204Z" fill="#3F4553"/>
<path d="M231.812 98.5205L238.382 76.2995C238.554 75.7226 239.043 75.3237 239.611 75.3095L251.397 74.9748C252.302 74.9463 252.962 75.8864 252.698 76.8194L246.148 99.9022C245.969 100.522 245.428 100.935 244.827 100.914L233.021 100.394C232.142 100.337 231.548 99.4179 231.812 98.5205Z" fill="#4E5567"/>
<path d="M250.559 78.5925L246.168 94.0546L245.54 96.2767L245.243 97.3237C245.138 97.694 244.874 97.9718 244.557 98.0857C244.431 98.1285 244.306 98.1498 244.174 98.1427L241.711 98.0359L234.593 97.7225C233.879 97.6869 233.397 96.9391 233.609 96.2126L237.009 84.7033L238.297 80.3517L238.944 78.1723C238.97 78.0797 239.01 77.9871 239.063 77.9088C239.248 77.5883 239.571 77.3818 239.934 77.3675L240.278 77.3604L249.502 77.0969C250.235 77.0755 250.77 77.8376 250.559 78.5925Z" fill="#F2EDE4"/>
<g opacity="0.35">
<path opacity="0.35" d="M246.167 94.0548L245.54 96.2769L239.062 77.909C239.247 77.5885 239.571 77.382 239.934 77.3677L240.277 77.3606L246.167 94.0548Z" fill="white"/>
</g>
<g opacity="0.35">
<path opacity="0.35" d="M244.557 98.0859C244.431 98.1286 244.306 98.15 244.174 98.1429L241.711 98.0361L237.009 84.7034L238.297 80.3518L244.557 98.0859Z" fill="white"/>
</g>
<path d="M158.042 102.558C160.334 96.9461 160.941 90.5504 159.759 84.5465C160.585 87.4025 163.47 89.0192 166.224 89.3967C168.977 89.7741 171.77 89.2471 174.544 89.3967C177.317 89.5462 180.315 90.6003 181.715 93.1856C181.972 93.6557 182.256 94.2397 182.758 94.2824C183.385 94.3394 183.755 93.5417 183.887 92.8794C184.91 87.9153 183.022 82.4668 179.423 79.1764C175.825 75.886 170.727 74.7394 166.125 75.8575C161.522 76.9757 157.468 80.2376 154.866 84.4753C153.235 87.1318 152.133 90.2015 151.968 93.385C151.802 96.5615 152.621 99.8448 154.464 102.33C154.919 102.943 155.48 103.534 156.194 103.705C156.907 103.876 157.778 103.441 157.891 102.658" fill="#3F4553"/>
<path d="M157.98 109.717C161.396 108.966 163.557 105.145 162.808 101.183C162.059 97.2212 158.683 94.6185 155.267 95.3698C151.851 96.1212 149.689 99.942 150.438 103.904C151.187 107.866 154.564 110.468 157.98 109.717Z" fill="#F5C371"/>
<path d="M154.127 99.6027C150.376 87.2671 155.071 82.6164 155.282 82.3173L155.421 82.303H155.454L155.593 82.2959C155.434 82.5309 153.546 88.1218 156.629 98.2637L154.127 99.6027Z" fill="#F5C371"/>
<path d="M162.044 106.497C152.337 109.274 150.739 103.669 150.759 99.6238C150.297 100.927 150.165 102.409 150.449 103.911C151.202 107.878 154.576 110.478 157.99 109.73C159.753 109.331 161.179 108.12 162.044 106.497Z" fill="#F5C371"/>
</svg>
