<svg width="417" height="299" viewBox="0 0 417 299" fill="none" xmlns="http://www.w3.org/2000/svg">
<path d="M122.379 185.614C122.379 186.581 116.37 187.36 108.961 187.36C101.553 187.36 95.5437 186.581 95.5437 185.614C95.5437 184.647 101.553 183.868 108.961 183.868C116.37 183.868 122.379 184.647 122.379 185.614Z" fill="#999996"/>
<path d="M152.425 203C178.687 203 199.976 200.225 199.976 196.802C199.976 193.38 178.687 190.605 152.425 190.605C126.163 190.605 104.874 193.38 104.874 196.802C104.874 200.225 126.163 203 152.425 203Z" fill="#999996"/>
<path d="M275.47 200.88C306.727 200.88 332.067 197.578 332.067 193.506C332.067 189.433 306.727 186.132 275.47 186.132C244.213 186.132 218.874 189.433 218.874 193.506C218.874 197.578 244.213 200.88 275.47 200.88Z" fill="#999996"/>
<path d="M202.87 188.455C237.726 188.455 265.982 184.774 265.982 180.234C265.982 175.694 237.726 172.013 202.87 172.013C168.015 172.013 139.759 175.694 139.759 180.234C139.759 184.774 168.015 188.455 202.87 188.455Z" fill="#999996"/>
<path d="M346.63 178.42C346.63 180.518 333.56 182.227 317.431 182.227C301.309 182.227 288.231 180.526 288.231 178.42C288.231 176.322 301.301 174.613 317.431 174.613C333.552 174.613 346.63 176.314 346.63 178.42Z" fill="#999996"/>
<path d="M94.5398 166.91C79.5091 163.657 65.4113 152.544 57.979 139.564C50.5545 126.585 47.6765 110.93 52.0805 96.7666C56.4767 82.6031 68.748 70.418 83.9843 67.353C102.526 63.6211 121.225 73.3032 135.386 85.241C141.174 90.1195 146.629 95.4852 153.326 99.1722C160.031 102.852 168.42 104.665 175.568 101.832C184.147 98.4303 188.551 89.6324 192.726 81.7638C203.005 62.3846 216.494 44.2343 234.268 30.5729C252.042 16.904 274.363 7.95629 297.245 8.03123C311.501 8.07619 326.382 11.9805 336.312 21.6701C348.9 33.9527 351.098 53.1221 347.342 69.871C343.587 86.6199 334.802 101.9 327.821 117.69C320.839 133.479 315.541 150.858 319.281 167.607L94.5398 166.91Z" fill="#66A986"/>
<path d="M189.879 63.6061C194.228 56.8391 198 49.6224 199.668 41.8662C201.85 31.7195 199.984 21.0107 192.568 13.0971C182.115 1.95366 160.601 -3.32955 145.863 2.23093C139.79 4.52407 134.516 9.33516 133.125 15.3827C130.761 25.6194 139 34.4772 144.107 42.6456C146.851 47.037 148.899 52.1479 149.096 57.2962C149.278 62.2122 146.029 66.7535 146.819 71.7145C147.262 74.5022 149.033 76.9977 151.326 78.8037C156.339 82.753 163.423 84.1918 169.709 82.6706C179.427 80.325 185.009 71.1899 189.879 63.6061Z" fill="#80B996"/>
<path d="M103.846 55.9329C103.846 55.9329 106.258 76.3388 118.22 79.8909L140.233 74.0382C140.233 74.0382 127.092 68.3053 125.748 55.9329H103.846Z" fill="#FEDEA6"/>
<path d="M92.4372 74.7952C92.4372 74.7952 90.6028 98.0263 81.4942 102.066L64.7319 95.4034C64.7319 95.4034 74.7419 88.8837 75.7618 74.7952H92.4372Z" fill="#F7F4E3"/>
<path d="M149.043 39.691L134.383 43.7312L139.456 60.2668L154.116 56.2266L149.043 39.691Z" fill="#F7F4E3"/>
<path d="M148.282 41.3295L135.96 44.7253L139.236 55.4037L151.558 52.0079L148.282 41.3295Z" fill="#FDFDFD"/>
<path d="M107.384 89.8515L96.106 86.9221L92.4301 99.6346L103.708 102.564L107.384 89.8515Z" fill="#D2CDB8"/>
<path d="M106.198 90.6309L96.7202 88.1689L94.3442 96.3862L103.822 98.8481L106.198 90.6309Z" fill="#E7DFC2"/>
<path d="M284.405 83.4345C282.8 83.4345 281.187 83.427 279.582 83.427C278.791 83.427 278.032 84.0865 278.072 84.8583C278.111 85.6377 278.736 86.2897 279.582 86.2897C281.187 86.2897 282.8 86.2972 284.405 86.2972C285.196 86.2972 285.955 85.6377 285.915 84.8658C285.876 84.094 285.251 83.442 284.405 83.4345Z" fill="#CCC6AD"/>
<path d="M331.615 121.467C316.814 108.997 302.013 96.5343 287.211 84.0645C285.037 82.2359 281.819 85.2635 284.009 87.0995L328.413 124.502C330.58 126.338 333.798 123.31 331.615 121.467Z" fill="#CCC6AD"/>
<path d="M338.274 174.38H334.005C330.091 173.316 323.844 172.634 316.799 172.634C309.754 172.634 303.516 173.324 299.594 174.38H295.325C295.127 175.467 295.325 176.988 295.325 176.988C295.325 179.394 304.939 181.342 316.792 181.342C328.652 181.342 338.258 179.394 338.258 176.988C338.662 175.377 338.274 174.38 338.274 174.38Z" fill="#CCC6AD"/>
<path d="M338.274 174.382C338.274 176.787 328.667 178.743 316.815 178.743C304.955 178.743 295.348 176.787 295.348 174.382C295.348 171.984 304.963 170.028 316.815 170.028C317.677 170.028 318.523 170.035 319.353 170.058C320.12 170.08 320.871 170.103 321.615 170.14C331.158 170.575 338.274 172.321 338.274 174.382Z" fill="#E7DFC2"/>
<path d="M321.614 170.132L319.392 173.759L319.353 173.819V170.057C320.112 170.08 320.871 170.095 321.614 170.132Z" fill="#E7DFC2"/>
<path d="M328.391 122.426L314.981 172.672C314.261 175.355 318.634 176.502 319.353 173.811C323.821 157.063 328.296 140.314 332.763 123.565C333.483 120.882 329.11 119.743 328.391 122.426Z" fill="#E7DFC2"/>
<path d="M332.612 120.522C317.811 108.052 303.009 95.5897 288.208 83.1198C286.033 81.2913 282.815 84.3188 285.005 86.1623L329.41 123.564C331.576 125.393 334.794 122.365 332.612 120.522Z" fill="#E7DFC2"/>
<path d="M242.358 83.4273C242.358 83.4273 255.31 63.441 272.072 72.9657C288.834 82.4905 276.342 102.732 276.342 102.732L242.358 83.4273Z" fill="#E7DFC2"/>
<path d="M276.34 102.739C275.407 104.216 269.469 102.53 262.171 98.9175C260.597 98.1382 258.961 97.2689 257.3 96.3247C255.64 95.3804 254.058 94.4212 252.596 93.477C245.796 89.078 241.431 84.9114 242.364 83.4351C243.234 82.0637 248.445 83.4276 255.063 86.5451C257.071 87.4893 259.221 88.5984 261.412 89.8499C263.602 91.0939 265.642 92.3604 267.476 93.6044C273.469 97.6511 277.201 101.361 276.34 102.739Z" fill="#C1B894"/>
<path d="M267.46 93.5893C266.851 96.1447 264.811 98.1905 262.171 98.91C261.498 99.0973 260.779 99.1947 260.036 99.1947C256.367 99.1947 253.307 96.7367 252.588 93.4619C252.485 92.9823 252.429 92.4802 252.429 91.9706C252.429 89.7899 253.442 87.849 255.054 86.53C257.063 87.4743 259.213 88.5834 261.404 89.8348C263.586 91.0863 265.626 92.3528 267.46 93.5893Z" fill="#D4A561"/>
<path d="M285.701 81.1643C280.838 81.1643 280.83 88.3285 285.701 88.3285C290.564 88.3285 290.572 81.1643 285.701 81.1643Z" fill="#E7DFC2"/>
<path d="M285.702 83.2698C283.701 83.2698 283.693 86.2224 285.702 86.2224C287.71 86.2224 287.71 83.2698 285.702 83.2698Z" fill="#E7DFC2"/>
<path d="M330.162 118.154C323.907 118.154 323.9 127.364 330.162 127.364C336.416 127.364 336.424 118.154 330.162 118.154Z" fill="#E7DFC2"/>
<path d="M330.161 120.897C327.631 120.897 327.623 124.629 330.161 124.629C332.691 124.629 332.699 120.897 330.161 120.897Z" fill="#E7DFC2"/>
<path d="M122.364 164.624H95.5603C95.5603 164.624 94.8329 179.806 102.874 185.187C103.538 185.629 104.368 185.862 105.214 185.862H108.962H112.71C113.556 185.862 114.386 185.629 115.05 185.187C123.092 179.814 122.364 164.624 122.364 164.624Z" fill="#536969"/>
<path d="M122.38 164.632C122.38 165.081 118 165.471 112.101 165.568C111.097 165.591 110.038 165.598 108.955 165.598C108.029 165.598 107.136 165.591 106.258 165.576C100.146 165.493 95.5447 165.096 95.5447 164.632C95.5447 164.204 99.4427 163.837 104.827 163.71C106.124 163.68 107.515 163.665 108.962 163.665C110.101 163.665 111.208 163.672 112.26 163.695C118.071 163.8 122.38 164.182 122.38 164.632Z" fill="#405050"/>
<path d="M126.207 169.075C124.784 167.449 122.475 167.157 120.38 167.224C118.443 167.284 118.435 170.147 120.38 170.087C121.906 170.042 123.542 170.08 124.325 171.518C125.053 172.837 124.926 174.553 124.214 175.857C122.515 179.005 118.632 179.874 115.185 179.432C114.379 179.327 113.675 180.166 113.675 180.863C113.675 181.725 114.371 182.19 115.185 182.295C118.901 182.767 122.989 181.8 125.535 179.05C128.049 176.329 128.769 172.005 126.207 169.075Z" fill="#536969"/>
<path opacity="0.5" d="M116.521 156.066C114.489 157.999 112.299 160.21 112.236 162.945C112.228 163.252 112.252 163.56 112.267 163.874C112.307 164.526 112.346 165.178 112.117 165.748C111.113 165.77 110.053 165.778 108.97 165.778C108.045 165.778 107.152 165.77 106.274 165.755C105.697 165.253 105.207 164.594 104.835 163.889C104.448 163.215 104.163 162.503 103.989 161.866C103.657 160.659 103.633 159.371 103.965 158.164C104.827 155.009 107.832 152.431 107.768 149.179C107.729 147.073 106.385 145.2 104.89 143.648C103.388 142.105 101.657 140.718 100.534 138.905C98.6124 135.817 98.8338 131.628 101.166 128.81C103.491 125.993 107.832 124.801 111.342 126.105C114.861 127.416 117.201 131.178 116.584 134.708C116.181 137.009 114.687 139.362 115.636 141.52C116.157 142.697 117.296 143.498 118.253 144.405C119.581 145.679 120.609 147.35 120.649 149.141C120.712 151.869 118.553 154.132 116.521 156.066Z" fill="white"/>
<path d="M135.749 167.944C135.749 167.944 118.694 103.886 126.34 96.1448C133.986 88.4036 197.556 84.8215 204.522 90.8166C211.488 96.8117 210.927 167.861 210.927 167.861L135.749 167.944Z" fill="#585857"/>
<path d="M204.529 90.8167C204.316 90.6369 204.047 90.457 203.731 90.2922C182.636 89.0557 144.936 92.5254 139.157 98.3781C132.373 105.257 145.055 156.531 147.98 167.929L210.926 167.862C210.926 167.862 211.495 96.8119 204.529 90.8167Z" fill="#585857"/>
<path d="M223.783 114.624C223.783 114.624 236.901 151.974 240.427 152.903C243.954 153.832 280.087 160.285 280.087 160.285L278.324 168.64C278.324 168.64 234.299 169.944 223.783 162.885C213.26 155.826 223.783 114.624 223.783 114.624Z" fill="#DDBB8F"/>
<path d="M223.783 114.624C223.783 114.624 213.26 155.826 223.783 162.885C227.816 165.59 236.758 167.067 246.262 167.861L248.808 155.826L248.445 155.616L248.176 154.454C244.262 153.713 241.321 153.128 240.435 152.896C236.901 151.974 223.783 114.624 223.783 114.624Z" fill="#739BE0"/>
<path d="M252.548 155.279C250.848 156.98 249.702 159.093 249.061 161.304C248.421 163.515 248.263 165.815 248.381 168.094C248.397 168.341 248.128 168.611 247.859 168.671C247.591 168.731 247.306 168.678 247.029 168.641C246.753 168.603 246.452 168.588 246.215 168.723C245.978 168.858 245.843 169.12 245.59 169.218C245.266 169.338 244.918 169.165 244.594 169.053C243.89 168.805 243.108 168.858 242.356 168.805C241.605 168.761 240.783 168.573 240.348 168.019C240.032 167.621 239.984 167.104 239.945 166.617C239.763 164.354 239.605 161.956 240.735 159.925C241.455 158.636 242.641 157.58 243.258 156.253C243.558 155.609 243.708 154.912 244.12 154.32C244.523 153.728 245.29 153.248 246.049 153.405C246.681 153.54 247.124 154.072 247.741 154.237C248.302 154.38 248.887 154.2 249.465 154.14C250.682 154.012 251.773 154.41 252.548 155.279Z" fill="#536969"/>
<path d="M158.385 167.943H225.087C223.221 155.668 221.489 142.082 221.687 135.037C221.853 129.267 223.774 114.714 223.774 114.714C223.039 113.889 206.569 101.802 193.159 102.177C170.412 102.821 158.852 118.049 158.852 118.049C158.852 118.049 159.619 129.342 160.18 135.21C160.852 142.194 159.611 155.713 158.385 167.943Z" fill="#F7F4E3"/>
<path d="M221.68 136.364C221.68 135.869 221.68 135.397 221.695 134.948C221.854 129.402 223.633 115.771 223.775 114.699C223.079 113.95 211.227 105.234 199.501 102.799L199.604 113.463C199.604 113.463 203.969 138.837 205.898 167.853H225.08C223.332 156.335 221.703 143.678 221.68 136.364Z" fill="#739BE0"/>
<path d="M201.035 101.27L211.566 113.148L203.754 110.922L199.596 113.463L194.859 102.252L201.035 101.27Z" fill="#97B8FF"/>
<path d="M158.385 167.861H188.937C185.806 141.903 184.786 117.285 184.786 117.285L181.355 103.856C166.427 108.008 158.852 117.967 158.852 117.967C158.852 117.967 159.619 129.26 160.18 135.128C160.852 142.112 159.611 155.624 158.385 167.861Z" fill="#739BE0"/>
<path d="M221.15 74.4417C226.345 71.0095 230.164 65.4191 231.555 59.1916C231.998 57.2207 232.204 55.1599 231.792 53.174C231.389 51.1881 230.306 49.2847 228.63 48.228C226.953 47.1714 224.645 47.1189 223.119 48.3629C222.075 46.6318 219.845 45.8525 217.916 46.1822C215.987 46.5119 214.279 47.6285 212.674 48.7751C206.356 46.1447 198.742 47.666 193.816 52.4396C189.634 53.1216 185.87 56.1791 184.186 60.1883C182.502 64.1976 182.478 68.8138 183.427 73.1003C184.107 76.1578 185.34 79.2229 187.633 81.2837C190.393 83.7567 194.259 84.4086 197.888 84.3562C206.348 84.2288 214.05 79.1329 221.15 74.4417Z" fill="#405050"/>
<path d="M188.037 69.5182C186.495 83.5542 182.652 108.397 182.652 108.397C186.005 114.017 198.647 113.305 198.355 111.424C198.189 110.36 198.458 108.509 199.114 106.845C199.62 105.556 200.363 104.372 201.312 103.743C201.707 103.481 202.411 103.398 203.32 103.391C203.471 103.398 203.55 103.391 203.55 103.391C207.732 103.421 215.837 104.934 219.371 100.138C223.767 94.1731 224.25 77.5666 223.775 69.5631C223.498 64.9843 219.347 58.5621 210.99 57.1682C200.774 55.4596 189.586 55.3921 188.037 69.5182Z" fill="#FDBCA0"/>
<path d="M189.491 99.479C189.491 99.479 192.654 103.803 199.113 106.838C199.619 105.549 200.363 104.365 201.312 103.736C201.707 103.473 202.411 103.391 203.32 103.383C202.071 103.353 195.856 102.994 189.491 99.479Z" fill="#F0A38B"/>
<path d="M213.449 85.2256C214.019 85.2181 214.612 85.2331 215.086 85.5704C215.458 85.8326 215.632 86.2673 215.6 86.7019C215.513 87.6911 214.572 88.2457 213.639 88.4555C213.339 88.523 213.196 88.0883 213.497 88.0209C214.208 87.8635 215.007 87.4963 215.118 86.7319C215.165 86.4247 215.055 86.1099 214.786 85.9226C214.414 85.6678 213.916 85.6828 213.473 85.6828C213.157 85.6903 213.141 85.2331 213.449 85.2256Z" fill="#3F4553"/>
<path d="M207.503 79.7706C207.472 80.6099 208.033 81.3068 208.761 81.3293C209.488 81.3518 210.097 80.6923 210.129 79.853C210.16 79.0137 209.599 78.3167 208.871 78.2943C208.144 78.2718 207.535 78.9312 207.503 79.7706Z" fill="#3F4553"/>
<path d="M216.264 80.5718C216.232 81.4111 216.794 82.1081 217.521 82.1306C218.249 82.153 218.857 81.4936 218.889 80.6543C218.921 79.8149 218.359 79.118 217.632 79.0955C216.912 79.073 216.296 79.7325 216.264 80.5718Z" fill="#3F4553"/>
<path d="M205.265 72.6661C206.831 71.7443 208.815 71.5645 210.523 72.2764C210.76 72.3738 210.903 72.6286 210.808 72.8684C210.721 73.0932 210.428 73.2356 210.183 73.1382C208.815 72.5686 207.155 72.6286 205.874 73.3855C205.653 73.5129 205.376 73.5279 205.194 73.318C205.044 73.1382 205.044 72.801 205.265 72.6661Z" fill="#3F4553"/>
<path d="M221.941 74.1423C220.692 72.8534 218.834 72.179 216.991 72.4263C216.731 72.4637 216.533 72.6661 216.557 72.9209C216.58 73.1607 216.818 73.3705 217.078 73.333C218.557 73.1307 220.138 73.6178 221.158 74.6669C221.332 74.8468 221.601 74.9292 221.83 74.7718C222.02 74.6519 222.115 74.3297 221.941 74.1423Z" fill="#3F4553"/>
<path d="M203.392 83.0828C203.336 83.7273 204.333 84.3343 205.613 84.4392C206.902 84.5442 207.993 84.1095 208.049 83.465C208.104 82.8206 207.108 82.2135 205.827 82.1086C204.538 82.0037 203.447 82.4384 203.392 83.0828Z" fill="#FBAD8B"/>
<path d="M217.584 84.274C217.529 84.9185 218.525 85.5255 219.806 85.6304C221.095 85.7353 222.186 85.3007 222.241 84.6562C222.297 84.0117 221.3 83.4047 220.02 83.2998C218.731 83.1949 217.64 83.6295 217.584 84.274Z" fill="#FBAD8B"/>
<path d="M215.86 92.9594C215.71 93.7538 215.243 94.4732 214.603 95.0053C214.484 95.1102 214.374 95.1926 214.247 95.275C213.433 95.8296 212.421 96.0994 211.416 96.1293C209.946 96.1818 208.443 95.7022 207.384 94.7355C206.973 94.3608 206.633 93.9186 206.396 93.4315C206 92.6597 205.842 91.7829 206 90.9436C206.087 90.4715 206.332 89.9694 206.807 89.8495C207.115 89.7745 207.416 89.8719 207.7 90.0293C207.85 90.1118 207.993 90.2092 208.127 90.2991C209.226 91.071 210.412 91.7754 211.741 92.0751C212.674 92.285 213.694 92.27 214.595 91.9478C214.895 91.8353 215.346 91.4607 215.678 91.6555C215.686 91.663 215.686 91.663 215.694 91.663C216.042 91.9178 215.931 92.6222 215.86 92.9594Z" fill="#4E5567"/>
<path d="M215.67 91.6701C215.606 91.8874 215.488 92.1048 215.338 92.2846C215.006 92.6743 214.507 92.9291 214.001 93.0865C212.293 93.6185 210.356 93.1989 208.878 92.2322C208.403 91.9174 207.953 91.5352 207.739 91.0182C207.613 90.7109 207.589 90.3587 207.692 90.0439C207.842 90.1264 207.984 90.2238 208.119 90.3137C209.218 91.0856 210.404 91.79 211.732 92.0898C212.665 92.2996 213.685 92.2846 214.586 91.9624C214.887 91.85 215.338 91.4753 215.67 91.6701Z" fill="white"/>
<path d="M214.603 95.013C214.485 95.1179 214.374 95.2004 214.248 95.2828C213.433 95.8374 212.421 96.1071 211.417 96.1371C209.946 96.1896 208.444 95.71 207.385 94.7433C206.973 94.3686 206.633 93.9264 206.396 93.4393C207.535 93.3269 208.697 93.3119 209.844 93.3944C211.211 93.4918 212.603 93.7391 213.773 94.406C214.058 94.5859 214.343 94.7807 214.603 95.013Z" fill="#3F4553"/>
<path d="M215.528 66.4602C211.938 67.1572 207.977 65.6659 205.874 62.8182C205.613 63.68 204.854 64.3919 203.936 64.6392C203.027 64.8865 201.983 64.6542 201.28 64.0472C201.137 66.82 200.37 69.6152 198.686 71.8783C197.002 74.149 194.33 75.8351 191.412 76.0525C189.783 76.1724 188.052 75.8052 186.834 74.7635C185.703 73.7893 185.142 72.358 184.802 70.9491C183.988 67.5544 184.233 63.8973 185.711 60.7049C187.182 57.5125 189.91 54.8147 193.302 53.4658C196.544 52.1694 200.181 52.1394 203.699 52.2518C207.321 52.3717 210.973 52.6415 214.413 53.7281C217.204 54.6049 219.853 56.0587 221.806 58.1645C222.185 58.5767 222.849 59.1537 222.841 59.7307C222.834 60.2928 222.414 61.0272 222.154 61.5218C221.545 62.6833 220.675 63.71 219.631 64.5418C218.461 65.4935 217.038 66.168 215.528 66.4602Z" fill="#405050"/>
<path d="M189.555 76.2326C188.329 74.8687 186.55 73.8345 184.605 73.9844C182.684 74.1343 181.173 75.3708 180.683 77.1319C180.359 78.3159 180.462 79.5674 180.699 80.7739C180.944 82.0404 181.324 83.2919 181.964 84.4234C183.174 86.5592 185.696 88.5076 188.408 87.6608C192.021 86.5292 192.267 82.3102 191.365 79.365C191.017 78.2709 190.385 77.1618 189.555 76.2326Z" fill="#FDBCA0"/>
<path d="M184.779 77.0347C184.447 76.8698 184.163 77.3419 184.487 77.5068C186.795 78.6384 188.084 81.0739 187.618 83.5094C187.555 83.8541 188.108 83.9965 188.171 83.6518C188.685 80.9914 187.333 78.2861 184.779 77.0347Z" fill="#F0A38B"/>
<path d="M187.419 79.8599C186.439 79.4777 185.356 79.3953 184.328 79.5976C184.178 79.6276 184.091 79.8 184.13 79.9349C184.178 80.0847 184.328 80.1522 184.486 80.1222C185.419 79.9424 186.391 80.0398 187.277 80.3845C187.419 80.437 187.593 80.3245 187.633 80.1972C187.664 80.0398 187.562 79.9199 187.419 79.8599Z" fill="#F0A38B"/>
<path d="M183.878 101.27L177.442 103.848L171.709 119.255L181.482 114.272L184.795 117.284L183.878 101.27Z" fill="#97B8FF"/>
<path d="M158.861 117.969C158.861 117.969 133.496 160.288 138.983 167.534C144.47 174.781 193.468 181.84 193.468 181.84L195.485 172.443C195.485 172.443 159.809 163.21 159.074 160.565L159.976 149.961C159.968 149.961 162.909 121.754 158.861 117.969Z" fill="#FDBCA0"/>
<path d="M159.066 160.562L159.968 149.958C159.968 149.958 162.909 121.751 158.861 117.959C158.861 117.959 133.496 160.277 138.983 167.523C140.754 169.862 147.08 172.185 154.82 174.26L157.216 173.474L161.928 162.315C160.244 161.603 159.185 160.996 159.066 160.562Z" fill="#739BE0"/>
<path d="M167.66 163.552C163.731 166.857 161.122 171.548 160.457 176.486C159.422 176.501 158.465 176.097 157.611 175.542C156.607 176.186 155.278 176.044 154.085 175.872C153.61 175.804 153.08 175.707 152.804 175.34C152.622 175.1 152.59 174.793 152.559 174.5C152.44 173.346 152.321 172.17 152.614 171.046C152.899 169.952 153.555 168.977 154.203 168.026C155.326 166.384 156.449 164.736 157.571 163.095C157.959 162.533 158.346 161.956 158.908 161.551C159.469 161.139 160.228 160.914 160.892 161.139C161.303 161.281 161.635 161.573 162.023 161.768C162.671 162.09 163.43 162.113 164.158 162.09C164.885 162.068 165.628 162.001 166.332 162.18C167.036 162.36 167.51 162.87 167.66 163.552Z" fill="#97B8FF"/>
<path d="M160.055 124.966C159.952 134.131 159.58 143.296 158.932 152.446C158.75 155.046 158.536 157.647 158.307 160.247C158.244 160.944 159.398 160.922 159.462 160.225C160.268 151.089 160.798 141.932 161.059 132.767C161.13 130.159 161.177 127.551 161.209 124.951C161.217 124.239 160.062 124.261 160.055 124.966Z" fill="#97B8FF"/>
<path d="M193.461 181.83C193.461 181.83 212.959 189.353 213.844 187.817C214.73 186.288 205.487 183.381 205.487 183.381C205.487 183.381 218.446 185.869 218.786 184.61C219.126 183.358 206.657 180.226 206.657 180.226C206.657 180.226 221.545 182.804 221.727 181.335C221.909 179.866 208.594 177.108 208.594 177.108C208.594 177.108 221.103 177.783 221.19 176.711C221.34 174.785 195.477 172.432 195.477 172.432L193.461 181.83Z" fill="#FDBCA0"/>
<path d="M197.334 172.619C197.334 172.619 207.281 169.202 208.285 169.944C209.289 170.686 203.897 174.425 203.897 174.425L197.334 172.619Z" fill="#FDBCA0"/>
<path d="M167.993 162.57H116.505C115.959 162.57 115.635 162.99 115.785 163.507L124.743 194.359C124.894 194.877 125.455 195.296 126.001 195.296H177.489C178.035 195.296 178.359 194.877 178.209 194.359L169.25 163.507C169.108 162.99 168.539 162.57 167.993 162.57Z" fill="#E7DFC2"/>
<path d="M174.342 194.922L166.736 168.738C166.609 168.296 166.127 167.944 165.668 167.944H121.976C121.509 167.944 121.24 168.296 121.367 168.738L128.973 194.922C128.965 194.907 129.021 195.094 129.084 195.289H174.461L174.342 194.922Z" fill="#F7F4E3"/>
<path d="M120.244 164.886C120.244 165.523 119.698 166.032 119.034 166.032C118.362 166.032 117.824 165.515 117.824 164.886C117.824 164.256 118.37 163.739 119.034 163.739C119.698 163.739 120.244 164.256 120.244 164.886Z" fill="#405050"/>
<path d="M119.596 164.886C119.596 165.178 119.343 165.418 119.035 165.418C118.726 165.418 118.473 165.178 118.473 164.886C118.473 164.594 118.726 164.354 119.035 164.354C119.343 164.354 119.596 164.594 119.596 164.886Z" fill="#576E6E"/>
<path d="M164.704 168.304H121.012C120.545 168.304 120.276 168.656 120.403 169.098L128.009 195.282C128.001 195.252 128.246 196.076 128.246 196.076H173.615L173.386 195.282L165.78 169.098C165.645 168.656 165.171 168.304 164.704 168.304Z" fill="#D4A561"/>
<path d="M173.377 195.281L168.483 178.42H123.106L128 195.281C127.993 195.251 128.238 196.076 128.238 196.076H173.607L173.377 195.281Z" fill="#D4A561"/>
<path d="M164.791 200.13H119.446L128.262 196.076H173.607L164.791 200.13Z" fill="#EBB254"/>
<path d="M222.613 118.446L315.05 103.885C316.561 103.646 317.936 104.77 317.929 106.238L317.533 161.828C317.525 162.952 316.703 163.912 315.556 164.136L225.38 181.822C223.166 182.317 220.533 180.983 220.533 177.903V120.784C220.541 119.63 221.419 118.641 222.613 118.446Z" fill="#FEDEA6"/>
<path d="M226.796 118.289L315.051 104.417C316.561 104.177 317.937 105.294 317.929 106.748L317.549 161.918C317.541 163.027 316.719 163.979 315.573 164.204L227.697 181.312C226.163 181.612 224.724 180.503 224.724 179.012V120.612C224.732 119.45 225.602 118.476 226.796 118.289Z" fill="#D4A561"/>
<path d="M266.685 147.215L261.569 174.703L289.369 169.292L266.685 147.215Z" fill="#D4A561"/>
<path d="M265.53 197.521L253.33 193.595C251.377 192.965 251.495 190.312 253.496 189.84L274.18 184.932C274.543 184.849 274.915 184.857 275.271 184.954L287.281 188.356C289.266 188.918 289.242 191.586 287.25 192.118L266.755 197.551C266.352 197.656 265.925 197.649 265.53 197.521Z" fill="#D4A561"/>
<path d="M283.779 144.592C283.542 143.558 282.491 142.891 281.392 143.079L268.377 145.312C267.405 145.477 266.693 146.279 266.677 147.215L266.132 197.717L294.121 190.29L283.779 144.592ZM280.451 183.86C276.529 184.243 272.884 180.218 272.307 174.868C271.73 169.525 274.442 164.878 278.363 164.504C282.285 164.122 285.93 168.146 286.507 173.496C287.084 178.84 284.372 183.478 280.451 183.86Z" fill="#FEDEA6"/>
<path d="M276.459 53.9163C263.215 53.9163 252.438 43.7021 252.438 31.1498C252.438 18.5975 263.215 8.3833 276.459 8.3833C289.703 8.3833 300.48 18.5975 300.48 31.1498C300.48 43.7021 289.703 53.9163 276.459 53.9163ZM276.459 14.8356C266.963 14.8356 259.238 22.1571 259.238 31.1573C259.238 40.1575 266.963 47.479 276.459 47.479C285.955 47.479 293.68 40.1575 293.68 31.1573C293.68 22.1571 285.955 14.8356 276.459 14.8356Z" fill="#F5E2D5"/>
<path d="M267.46 36.8969L266.393 35.001L275.494 30.4222L279.336 16.7908L281.527 17.3453L277.431 31.8835L267.46 36.8969Z" fill="#F5E2D5"/>
<path d="M114.268 260V219.716H114.322L134.788 248.768L132.574 248.336L152.986 219.716H153.094V260H147.91V231.596L148.234 234.242L133.492 255.086H133.384L118.426 234.242L119.344 231.812V260H114.268ZM173.439 260.54C170.883 260.54 168.687 260.036 166.851 259.028C165.015 257.984 163.593 256.58 162.585 254.816C161.613 253.016 161.127 250.964 161.127 248.66C161.127 246.464 161.685 244.466 162.801 242.666C163.917 240.866 165.411 239.426 167.283 238.346C169.155 237.266 171.243 236.726 173.547 236.726C176.499 236.726 178.947 237.59 180.891 239.318C182.835 241.046 184.149 243.422 184.833 246.446L166.419 252.926L165.231 249.956L180.351 244.448L179.271 245.15C178.839 243.962 178.119 242.936 177.111 242.072C176.103 241.172 174.789 240.722 173.169 240.722C171.801 240.722 170.577 241.064 169.497 241.748C168.417 242.396 167.571 243.296 166.959 244.448C166.347 245.6 166.041 246.914 166.041 248.39C166.041 249.938 166.365 251.306 167.013 252.494C167.661 253.646 168.543 254.564 169.659 255.248C170.811 255.896 172.107 256.22 173.547 256.22C174.519 256.22 175.455 256.04 176.355 255.68C177.291 255.32 178.155 254.852 178.947 254.276L181.269 258.002C180.153 258.758 178.893 259.37 177.489 259.838C176.121 260.306 174.771 260.54 173.439 260.54ZM189.506 220.958H215.426V225.98H204.95V260H199.712V225.98H189.506V220.958ZM221.395 237.644H226.417V260H221.395V237.644ZM221.017 229.544C221.017 228.752 221.323 228.086 221.935 227.546C222.583 227.006 223.285 226.736 224.041 226.736C224.797 226.736 225.463 227.006 226.039 227.546C226.651 228.086 226.957 228.752 226.957 229.544C226.957 230.372 226.651 231.056 226.039 231.596C225.463 232.1 224.797 232.352 224.041 232.352C223.285 232.352 222.583 232.082 221.935 231.542C221.323 231.002 221.017 230.336 221.017 229.544ZM239.588 237.644L240.02 242.666L239.804 242.234C240.632 240.542 241.802 239.21 243.314 238.238C244.862 237.266 246.626 236.78 248.606 236.78C249.866 236.78 250.982 236.978 251.954 237.374C252.926 237.77 253.718 238.346 254.33 239.102C254.978 239.822 255.392 240.722 255.572 241.802L255.302 241.964C256.166 240.344 257.354 239.084 258.866 238.184C260.414 237.248 262.034 236.78 263.726 236.78C265.922 236.78 267.65 237.41 268.91 238.67C270.206 239.894 270.872 241.496 270.908 243.476V260H265.886V245.258C265.85 244.106 265.562 243.152 265.022 242.396C264.518 241.604 263.618 241.172 262.322 241.1C261.026 241.1 259.856 241.496 258.812 242.288C257.804 243.08 257.012 244.106 256.436 245.366C255.86 246.59 255.554 247.922 255.518 249.362V260H250.496V245.258C250.46 244.106 250.154 243.152 249.578 242.396C249.038 241.604 248.12 241.172 246.824 241.1C245.492 241.1 244.322 241.496 243.314 242.288C242.306 243.08 241.514 244.106 240.938 245.366C240.398 246.626 240.128 247.976 240.128 249.416V260H235.106V237.644H239.588ZM290.035 260.54C287.479 260.54 285.283 260.036 283.447 259.028C281.611 257.984 280.189 256.58 279.181 254.816C278.209 253.016 277.723 250.964 277.723 248.66C277.723 246.464 278.281 244.466 279.397 242.666C280.513 240.866 282.007 239.426 283.879 238.346C285.751 237.266 287.839 236.726 290.143 236.726C293.095 236.726 295.543 237.59 297.487 239.318C299.431 241.046 300.745 243.422 301.429 246.446L283.015 252.926L281.827 249.956L296.947 244.448L295.867 245.15C295.435 243.962 294.715 242.936 293.707 242.072C292.699 241.172 291.385 240.722 289.765 240.722C288.397 240.722 287.173 241.064 286.093 241.748C285.013 242.396 284.167 243.296 283.555 244.448C282.943 245.6 282.637 246.914 282.637 248.39C282.637 249.938 282.961 251.306 283.609 252.494C284.257 253.646 285.139 254.564 286.255 255.248C287.407 255.896 288.703 256.22 290.143 256.22C291.115 256.22 292.051 256.04 292.951 255.68C293.887 255.32 294.751 254.852 295.543 254.276L297.865 258.002C296.749 258.758 295.489 259.37 294.085 259.838C292.717 260.306 291.367 260.54 290.035 260.54Z" fill="#3F4553"/>
<path d="M4.21281 292V277.08H4.23281L11.8128 287.84L10.9928 287.68L18.5528 277.08H18.5928V292H16.6728V281.48L16.7928 282.46L11.3328 290.18H11.2928L5.75281 282.46L6.09281 281.56V292H4.21281ZM25.728 292.2C24.9546 292.2 24.248 292.033 23.608 291.7C22.9813 291.367 22.4813 290.88 22.108 290.24C21.748 289.587 21.568 288.793 21.568 287.86C21.568 286.94 21.7613 286.147 22.148 285.48C22.5346 284.8 23.048 284.28 23.688 283.92C24.3413 283.56 25.0546 283.38 25.828 283.38C26.6013 283.38 27.2546 283.56 27.788 283.92C28.3213 284.267 28.728 284.68 29.008 285.16L28.888 285.48L29.068 283.72H30.788V292H28.928V289.84L29.128 290.32C29.0746 290.453 28.9546 290.627 28.768 290.84C28.5946 291.04 28.3546 291.247 28.048 291.46C27.7546 291.673 27.4146 291.853 27.028 292C26.6413 292.133 26.208 292.2 25.728 292.2ZM26.228 290.66C26.6946 290.66 27.1146 290.573 27.488 290.4C27.8613 290.227 28.168 289.987 28.408 289.68C28.6613 289.36 28.8346 288.98 28.928 288.54V286.92C28.8213 286.52 28.6346 286.173 28.368 285.88C28.1013 285.573 27.7813 285.34 27.408 285.18C27.0346 285.007 26.6213 284.92 26.168 284.92C25.6746 284.92 25.2213 285.04 24.808 285.28C24.3946 285.52 24.0613 285.853 23.808 286.28C23.568 286.707 23.448 287.207 23.448 287.78C23.448 288.313 23.5746 288.8 23.828 289.24C24.0813 289.68 24.4213 290.027 24.848 290.28C25.2746 290.533 25.7346 290.66 26.228 290.66ZM34.0067 292V276.52H35.8667V292H34.0067ZM37.8667 286.5L41.6667 292H39.4867L36.6267 287.54L37.8667 286.5ZM35.2867 289.36L35.1067 287.58L40.1267 283.54L41.2667 284.52L35.2867 289.36ZM43.9677 283.72H45.8277V292H43.9677V283.72ZM43.8277 280.72C43.8277 280.427 43.941 280.18 44.1677 279.98C44.4077 279.78 44.6677 279.68 44.9477 279.68C45.2277 279.68 45.4743 279.78 45.6877 279.98C45.9143 280.18 46.0277 280.427 46.0277 280.72C46.0277 281.027 45.9143 281.28 45.6877 281.48C45.4743 281.667 45.2277 281.76 44.9477 281.76C44.6677 281.76 44.4077 281.66 44.1677 281.46C43.941 281.26 43.8277 281.013 43.8277 280.72ZM50.7058 283.72L50.8658 285.74L50.7858 285.42C51.0524 284.807 51.4858 284.32 52.0858 283.96C52.6858 283.587 53.3791 283.4 54.1658 283.4C54.9524 283.4 55.5924 283.633 56.0858 284.1C56.5924 284.553 56.8524 285.147 56.8658 285.88V292H54.9858V286.54C54.9724 286.087 54.8391 285.72 54.5858 285.44C54.3458 285.147 53.9658 285 53.4458 285C52.9658 285 52.5324 285.133 52.1458 285.4C51.7591 285.667 51.4524 286.033 51.2258 286.5C51.0124 286.967 50.9058 287.507 50.9058 288.12V292H49.0458V283.72H50.7058ZM64.0805 296.1C63.4671 296.1 62.9271 296.027 62.4605 295.88C61.9938 295.747 61.5671 295.553 61.1805 295.3C60.8071 295.047 60.4471 294.76 60.1005 294.44L61.1805 293.18C61.6205 293.593 62.0671 293.913 62.5205 294.14C62.9738 294.367 63.4805 294.48 64.0405 294.48C64.6671 294.48 65.1938 294.373 65.6205 294.16C66.0605 293.96 66.3938 293.673 66.6205 293.3C66.8471 292.94 66.9605 292.52 66.9605 292.04L66.9805 289.8L67.1405 290.16C66.9005 290.733 66.4671 291.22 65.8405 291.62C65.2138 292.007 64.4538 292.2 63.5605 292.2C62.8005 292.2 62.1005 292.007 61.4605 291.62C60.8338 291.233 60.3271 290.713 59.9405 290.06C59.5671 289.393 59.3805 288.647 59.3805 287.82C59.3805 286.953 59.5805 286.193 59.9805 285.54C60.3805 284.873 60.9071 284.347 61.5605 283.96C62.2138 283.573 62.9271 283.38 63.7005 283.38C64.4338 283.38 65.1005 283.533 65.7005 283.84C66.3138 284.133 66.7605 284.513 67.0405 284.98L66.9405 285.32L67.1405 283.72H68.8405V292.06C68.8405 292.807 68.6471 293.487 68.2605 294.1C67.8738 294.713 67.3271 295.2 66.6205 295.56C65.9138 295.92 65.0671 296.1 64.0805 296.1ZM61.2405 287.78C61.2405 288.313 61.3671 288.8 61.6205 289.24C61.8738 289.68 62.2138 290.027 62.6405 290.28C63.0805 290.533 63.5671 290.66 64.1005 290.66C64.5938 290.66 65.0338 290.573 65.4205 290.4C65.8205 290.213 66.1538 289.967 66.4205 289.66C66.6871 289.34 66.8738 288.973 66.9805 288.56V286.92C66.8605 286.52 66.6605 286.173 66.3805 285.88C66.1005 285.573 65.7671 285.34 65.3805 285.18C64.9938 285.007 64.5671 284.92 64.1005 284.92C63.5671 284.92 63.0805 285.04 62.6405 285.28C62.2138 285.52 61.8738 285.86 61.6205 286.3C61.3671 286.727 61.2405 287.22 61.2405 287.78ZM79.1817 280.08H81.0417V283.76H83.3217V285.22H81.0417V292H79.1817V285.22H77.6617V283.76H79.1817V280.08ZM85.5692 283.72H87.4292V292H85.5692V283.72ZM85.4292 280.72C85.4292 280.427 85.5426 280.18 85.7692 279.98C86.0092 279.78 86.2692 279.68 86.5492 279.68C86.8292 279.68 87.0759 279.78 87.2892 279.98C87.5159 280.18 87.6292 280.427 87.6292 280.72C87.6292 281.027 87.5159 281.28 87.2892 281.48C87.0759 281.667 86.8292 281.76 86.5492 281.76C86.2692 281.76 86.0092 281.66 85.7692 281.46C85.5426 281.26 85.4292 281.013 85.4292 280.72ZM92.3073 283.72L92.4673 285.58L92.3873 285.42C92.694 284.793 93.1273 284.3 93.6873 283.94C94.2607 283.58 94.914 283.4 95.6473 283.4C96.114 283.4 96.5273 283.473 96.8873 283.62C97.2473 283.767 97.5407 283.98 97.7673 284.26C98.0073 284.527 98.1607 284.86 98.2273 285.26L98.1273 285.32C98.4473 284.72 98.8873 284.253 99.4473 283.92C100.021 283.573 100.621 283.4 101.247 283.4C102.061 283.4 102.701 283.633 103.167 284.1C103.647 284.553 103.894 285.147 103.907 285.88V292H102.047V286.54C102.034 286.113 101.927 285.76 101.727 285.48C101.541 285.187 101.207 285.027 100.727 285C100.247 285 99.814 285.147 99.4273 285.44C99.054 285.733 98.7607 286.113 98.5473 286.58C98.334 287.033 98.2207 287.527 98.2073 288.06V292H96.3473V286.54C96.334 286.113 96.2207 285.76 96.0073 285.48C95.8073 285.187 95.4673 285.027 94.9873 285C94.494 285 94.0607 285.147 93.6873 285.44C93.314 285.733 93.0207 286.113 92.8073 286.58C92.6073 287.047 92.5073 287.547 92.5073 288.08V292H90.6473V283.72H92.3073ZM110.991 292.2C110.045 292.2 109.231 292.013 108.551 291.64C107.871 291.253 107.345 290.733 106.971 290.08C106.611 289.413 106.431 288.653 106.431 287.8C106.431 286.987 106.638 286.247 107.051 285.58C107.465 284.913 108.018 284.38 108.711 283.98C109.405 283.58 110.178 283.38 111.031 283.38C112.125 283.38 113.031 283.7 113.751 284.34C114.471 284.98 114.958 285.86 115.211 286.98L108.391 289.38L107.951 288.28L113.551 286.24L113.151 286.5C112.991 286.06 112.725 285.68 112.351 285.36C111.978 285.027 111.491 284.86 110.891 284.86C110.385 284.86 109.931 284.987 109.531 285.24C109.131 285.48 108.818 285.813 108.591 286.24C108.365 286.667 108.251 287.153 108.251 287.7C108.251 288.273 108.371 288.78 108.611 289.22C108.851 289.647 109.178 289.987 109.591 290.24C110.018 290.48 110.498 290.6 111.031 290.6C111.391 290.6 111.738 290.533 112.071 290.4C112.418 290.267 112.738 290.093 113.031 289.88L113.891 291.26C113.478 291.54 113.011 291.767 112.491 291.94C111.985 292.113 111.485 292.2 110.991 292.2ZM124.55 292V285.38H123.13V283.72H124.55V280.22C124.55 279.02 124.817 278.1 125.35 277.46C125.897 276.82 126.697 276.5 127.75 276.5C128.03 276.5 128.337 276.54 128.67 276.62C129.017 276.7 129.317 276.833 129.57 277.02L128.79 278.36C128.67 278.24 128.537 278.16 128.39 278.12C128.243 278.067 128.097 278.04 127.95 278.04C127.457 278.04 127.077 278.207 126.81 278.54C126.543 278.873 126.41 279.44 126.41 280.24V283.72H129.03V285.38H126.41V292H124.55ZM130.279 287.78C130.279 286.953 130.472 286.207 130.859 285.54C131.259 284.873 131.806 284.347 132.499 283.96C133.192 283.573 133.979 283.38 134.859 283.38C135.766 283.38 136.559 283.573 137.239 283.96C137.919 284.347 138.446 284.873 138.819 285.54C139.192 286.207 139.379 286.953 139.379 287.78C139.379 288.607 139.192 289.36 138.819 290.04C138.446 290.707 137.912 291.233 137.219 291.62C136.539 292.007 135.746 292.2 134.839 292.2C133.959 292.2 133.172 292.02 132.479 291.66C131.799 291.287 131.259 290.773 130.859 290.12C130.472 289.453 130.279 288.673 130.279 287.78ZM132.139 287.8C132.139 288.333 132.259 288.82 132.499 289.26C132.739 289.687 133.059 290.027 133.459 290.28C133.872 290.533 134.326 290.66 134.819 290.66C135.339 290.66 135.799 290.533 136.199 290.28C136.612 290.027 136.932 289.687 137.159 289.26C137.386 288.82 137.499 288.333 137.499 287.8C137.499 287.267 137.386 286.787 137.159 286.36C136.932 285.92 136.612 285.573 136.199 285.32C135.799 285.053 135.339 284.92 134.819 284.92C134.312 284.92 133.852 285.053 133.439 285.32C133.039 285.587 132.719 285.94 132.479 286.38C132.252 286.807 132.139 287.28 132.139 287.8ZM143.557 283.72L143.737 286.12L143.637 285.8C143.851 285.293 144.157 284.867 144.557 284.52C144.971 284.16 145.397 283.887 145.837 283.7C146.291 283.5 146.684 283.4 147.017 283.4L146.917 285.24C146.291 285.2 145.737 285.32 145.257 285.6C144.791 285.88 144.417 286.253 144.137 286.72C143.871 287.187 143.737 287.687 143.737 288.22V292H141.897V283.72H143.557ZM156.545 280.08H158.405V283.76H160.685V285.22H158.405V292H156.545V285.22H155.025V283.76H156.545V280.08ZM162.933 292V276.52H164.753V285.64L164.713 285.3C164.993 284.753 165.419 284.3 165.993 283.94C166.579 283.58 167.266 283.4 168.053 283.4C168.839 283.4 169.479 283.633 169.973 284.1C170.479 284.553 170.739 285.147 170.753 285.88V292H168.873V286.54C168.859 286.087 168.726 285.72 168.473 285.44C168.233 285.147 167.853 285 167.333 285C166.853 285 166.419 285.14 166.033 285.42C165.646 285.687 165.339 286.053 165.113 286.52C164.899 286.987 164.793 287.52 164.793 288.12V292H162.933ZM177.827 292.2C176.881 292.2 176.067 292.013 175.387 291.64C174.707 291.253 174.181 290.733 173.807 290.08C173.447 289.413 173.267 288.653 173.267 287.8C173.267 286.987 173.474 286.247 173.887 285.58C174.301 284.913 174.854 284.38 175.547 283.98C176.241 283.58 177.014 283.38 177.867 283.38C178.961 283.38 179.867 283.7 180.587 284.34C181.307 284.98 181.794 285.86 182.047 286.98L175.227 289.38L174.787 288.28L180.387 286.24L179.987 286.5C179.827 286.06 179.561 285.68 179.187 285.36C178.814 285.027 178.327 284.86 177.727 284.86C177.221 284.86 176.767 284.987 176.367 285.24C175.967 285.48 175.654 285.813 175.427 286.24C175.201 286.667 175.087 287.153 175.087 287.7C175.087 288.273 175.207 288.78 175.447 289.22C175.687 289.647 176.014 289.987 176.427 290.24C176.854 290.48 177.334 290.6 177.867 290.6C178.227 290.6 178.574 290.533 178.907 290.4C179.254 290.267 179.574 290.093 179.867 289.88L180.727 291.26C180.314 291.54 179.847 291.767 179.327 291.94C178.821 292.113 178.321 292.2 177.827 292.2ZM191.506 280.08H193.366V283.76H195.646V285.22H193.366V292H191.506V285.22H189.986V283.76H191.506V280.08ZM197.893 292V276.52H199.713V285.64L199.673 285.3C199.953 284.753 200.38 284.3 200.953 283.94C201.54 283.58 202.227 283.4 203.013 283.4C203.8 283.4 204.44 283.633 204.933 284.1C205.44 284.553 205.7 285.147 205.713 285.88V292H203.833V286.54C203.82 286.087 203.687 285.72 203.433 285.44C203.193 285.147 202.813 285 202.293 285C201.813 285 201.38 285.14 200.993 285.42C200.607 285.687 200.3 286.053 200.073 286.52C199.86 286.987 199.753 287.52 199.753 288.12V292H197.893ZM208.948 283.72H210.808V292H208.948V283.72ZM208.808 280.72C208.808 280.427 208.921 280.18 209.148 279.98C209.388 279.78 209.648 279.68 209.928 279.68C210.208 279.68 210.455 279.78 210.668 279.98C210.895 280.18 211.008 280.427 211.008 280.72C211.008 281.027 210.895 281.28 210.668 281.48C210.455 281.667 210.208 281.76 209.928 281.76C209.648 281.76 209.388 281.66 209.148 281.46C208.921 281.26 208.808 281.013 208.808 280.72ZM215.686 283.72L215.846 285.74L215.766 285.42C216.033 284.807 216.466 284.32 217.066 283.96C217.666 283.587 218.36 283.4 219.146 283.4C219.933 283.4 220.573 283.633 221.066 284.1C221.573 284.553 221.833 285.147 221.846 285.88V292H219.966V286.54C219.953 286.087 219.82 285.72 219.566 285.44C219.326 285.147 218.946 285 218.426 285C217.946 285 217.513 285.133 217.126 285.4C216.74 285.667 216.433 286.033 216.206 286.5C215.993 286.967 215.886 287.507 215.886 288.12V292H214.026V283.72H215.686ZM229.061 296.1C228.448 296.1 227.908 296.027 227.441 295.88C226.974 295.747 226.548 295.553 226.161 295.3C225.788 295.047 225.428 294.76 225.081 294.44L226.161 293.18C226.601 293.593 227.048 293.913 227.501 294.14C227.954 294.367 228.461 294.48 229.021 294.48C229.648 294.48 230.174 294.373 230.601 294.16C231.041 293.96 231.374 293.673 231.601 293.3C231.828 292.94 231.941 292.52 231.941 292.04L231.961 289.8L232.121 290.16C231.881 290.733 231.448 291.22 230.821 291.62C230.194 292.007 229.434 292.2 228.541 292.2C227.781 292.2 227.081 292.007 226.441 291.62C225.814 291.233 225.308 290.713 224.921 290.06C224.548 289.393 224.361 288.647 224.361 287.82C224.361 286.953 224.561 286.193 224.961 285.54C225.361 284.873 225.888 284.347 226.541 283.96C227.194 283.573 227.908 283.38 228.681 283.38C229.414 283.38 230.081 283.533 230.681 283.84C231.294 284.133 231.741 284.513 232.021 284.98L231.921 285.32L232.121 283.72H233.821V292.06C233.821 292.807 233.628 293.487 233.241 294.1C232.854 294.713 232.308 295.2 231.601 295.56C230.894 295.92 230.048 296.1 229.061 296.1ZM226.221 287.78C226.221 288.313 226.348 288.8 226.601 289.24C226.854 289.68 227.194 290.027 227.621 290.28C228.061 290.533 228.548 290.66 229.081 290.66C229.574 290.66 230.014 290.573 230.401 290.4C230.801 290.213 231.134 289.967 231.401 289.66C231.668 289.34 231.854 288.973 231.961 288.56V286.92C231.841 286.52 231.641 286.173 231.361 285.88C231.081 285.573 230.748 285.34 230.361 285.18C229.974 285.007 229.548 284.92 229.081 284.92C228.548 284.92 228.061 285.04 227.621 285.28C227.194 285.52 226.854 285.86 226.601 286.3C226.348 286.727 226.221 287.22 226.221 287.78ZM239.354 292.16C238.767 292.16 238.194 292.06 237.634 291.86C237.087 291.647 236.634 291.333 236.274 290.92L237.054 289.84C237.401 290.173 237.754 290.427 238.114 290.6C238.487 290.76 238.854 290.84 239.214 290.84C239.481 290.84 239.727 290.807 239.954 290.74C240.181 290.673 240.361 290.567 240.494 290.42C240.641 290.26 240.714 290.047 240.714 289.78C240.714 289.487 240.614 289.253 240.414 289.08C240.227 288.907 239.981 288.767 239.674 288.66C239.381 288.553 239.067 288.453 238.734 288.36C238.054 288.133 237.534 287.82 237.174 287.42C236.814 287.02 236.634 286.533 236.634 285.96C236.634 285.52 236.741 285.113 236.954 284.74C237.181 284.353 237.507 284.04 237.934 283.8C238.374 283.56 238.914 283.44 239.554 283.44C240.127 283.44 240.641 283.513 241.094 283.66C241.547 283.793 241.974 284.02 242.374 284.34L241.634 285.5C241.394 285.247 241.107 285.06 240.774 284.94C240.441 284.82 240.141 284.753 239.874 284.74C239.647 284.727 239.427 284.76 239.214 284.84C239.014 284.92 238.847 285.033 238.714 285.18C238.581 285.327 238.514 285.5 238.514 285.7C238.514 285.98 238.607 286.207 238.794 286.38C238.981 286.553 239.221 286.693 239.514 286.8C239.821 286.893 240.121 286.993 240.414 287.1C240.827 287.22 241.194 287.38 241.514 287.58C241.834 287.78 242.087 288.027 242.274 288.32C242.474 288.613 242.574 288.98 242.574 289.42C242.574 289.913 242.454 290.373 242.214 290.8C241.987 291.213 241.634 291.547 241.154 291.8C240.687 292.04 240.087 292.16 239.354 292.16ZM252.307 280.08H254.167V283.76H256.447V285.22H254.167V292H252.307V285.22H250.787V283.76H252.307V280.08ZM258.694 292V276.52H260.514V285.64L260.474 285.3C260.754 284.753 261.181 284.3 261.754 283.94C262.341 283.58 263.028 283.4 263.814 283.4C264.601 283.4 265.241 283.633 265.734 284.1C266.241 284.553 266.501 285.147 266.514 285.88V292H264.634V286.54C264.621 286.087 264.488 285.72 264.234 285.44C263.994 285.147 263.614 285 263.094 285C262.614 285 262.181 285.14 261.794 285.42C261.408 285.687 261.101 286.053 260.874 286.52C260.661 286.987 260.554 287.52 260.554 288.12V292H258.694ZM273.189 292.2C272.416 292.2 271.709 292.033 271.069 291.7C270.442 291.367 269.942 290.88 269.569 290.24C269.209 289.587 269.029 288.793 269.029 287.86C269.029 286.94 269.222 286.147 269.609 285.48C269.996 284.8 270.509 284.28 271.149 283.92C271.802 283.56 272.516 283.38 273.289 283.38C274.062 283.38 274.716 283.56 275.249 283.92C275.782 284.267 276.189 284.68 276.469 285.16L276.349 285.48L276.529 283.72H278.249V292H276.389V289.84L276.589 290.32C276.536 290.453 276.416 290.627 276.229 290.84C276.056 291.04 275.816 291.247 275.509 291.46C275.216 291.673 274.876 291.853 274.489 292C274.102 292.133 273.669 292.2 273.189 292.2ZM273.689 290.66C274.156 290.66 274.576 290.573 274.949 290.4C275.322 290.227 275.629 289.987 275.869 289.68C276.122 289.36 276.296 288.98 276.389 288.54V286.92C276.282 286.52 276.096 286.173 275.829 285.88C275.562 285.573 275.242 285.34 274.869 285.18C274.496 285.007 274.082 284.92 273.629 284.92C273.136 284.92 272.682 285.04 272.269 285.28C271.856 285.52 271.522 285.853 271.269 286.28C271.029 286.707 270.909 287.207 270.909 287.78C270.909 288.313 271.036 288.8 271.289 289.24C271.542 289.68 271.882 290.027 272.309 290.28C272.736 290.533 273.196 290.66 273.689 290.66ZM282.268 280.08H284.128V283.76H286.408V285.22H284.128V292H282.268V285.22H280.748V283.76H282.268V280.08ZM296.643 283.72L296.803 285.58L296.723 285.42C297.03 284.793 297.463 284.3 298.023 283.94C298.597 283.58 299.25 283.4 299.983 283.4C300.45 283.4 300.863 283.473 301.223 283.62C301.583 283.767 301.877 283.98 302.103 284.26C302.343 284.527 302.497 284.86 302.563 285.26L302.463 285.32C302.783 284.72 303.223 284.253 303.783 283.92C304.357 283.573 304.957 283.4 305.583 283.4C306.397 283.4 307.037 283.633 307.503 284.1C307.983 284.553 308.23 285.147 308.243 285.88V292H306.383V286.54C306.37 286.113 306.263 285.76 306.063 285.48C305.877 285.187 305.543 285.027 305.063 285C304.583 285 304.15 285.147 303.763 285.44C303.39 285.733 303.097 286.113 302.883 286.58C302.67 287.033 302.557 287.527 302.543 288.06V292H300.683V286.54C300.67 286.113 300.557 285.76 300.343 285.48C300.143 285.187 299.803 285.027 299.323 285C298.83 285 298.397 285.147 298.023 285.44C297.65 285.733 297.357 286.113 297.143 286.58C296.943 287.047 296.843 287.547 296.843 288.08V292H294.983V283.72H296.643ZM314.927 292.2C314.154 292.2 313.447 292.033 312.807 291.7C312.181 291.367 311.681 290.88 311.307 290.24C310.947 289.587 310.767 288.793 310.767 287.86C310.767 286.94 310.961 286.147 311.347 285.48C311.734 284.8 312.247 284.28 312.887 283.92C313.541 283.56 314.254 283.38 315.027 283.38C315.801 283.38 316.454 283.56 316.987 283.92C317.521 284.267 317.927 284.68 318.207 285.16L318.087 285.48L318.267 283.72H319.987V292H318.127V289.84L318.327 290.32C318.274 290.453 318.154 290.627 317.967 290.84C317.794 291.04 317.554 291.247 317.247 291.46C316.954 291.673 316.614 291.853 316.227 292C315.841 292.133 315.407 292.2 314.927 292.2ZM315.427 290.66C315.894 290.66 316.314 290.573 316.687 290.4C317.061 290.227 317.367 289.987 317.607 289.68C317.861 289.36 318.034 288.98 318.127 288.54V286.92C318.021 286.52 317.834 286.173 317.567 285.88C317.301 285.573 316.981 285.34 316.607 285.18C316.234 285.007 315.821 284.92 315.367 284.92C314.874 284.92 314.421 285.04 314.007 285.28C313.594 285.52 313.261 285.853 313.007 286.28C312.767 286.707 312.647 287.207 312.647 287.78C312.647 288.313 312.774 288.8 313.027 289.24C313.281 289.68 313.621 290.027 314.047 290.28C314.474 290.533 314.934 290.66 315.427 290.66ZM324.006 280.08H325.866V283.76H328.146V285.22H325.866V292H324.006V285.22H322.486V283.76H324.006V280.08ZM331.193 280.08H333.053V283.76H335.333V285.22H333.053V292H331.193V285.22H329.673V283.76H331.193V280.08ZM341.421 292.2C340.474 292.2 339.661 292.013 338.981 291.64C338.301 291.253 337.774 290.733 337.401 290.08C337.041 289.413 336.861 288.653 336.861 287.8C336.861 286.987 337.068 286.247 337.481 285.58C337.894 284.913 338.448 284.38 339.141 283.98C339.834 283.58 340.608 283.38 341.461 283.38C342.554 283.38 343.461 283.7 344.181 284.34C344.901 284.98 345.388 285.86 345.641 286.98L338.821 289.38L338.381 288.28L343.981 286.24L343.581 286.5C343.421 286.06 343.154 285.68 342.781 285.36C342.408 285.027 341.921 284.86 341.321 284.86C340.814 284.86 340.361 284.987 339.961 285.24C339.561 285.48 339.248 285.813 339.021 286.24C338.794 286.667 338.681 287.153 338.681 287.7C338.681 288.273 338.801 288.78 339.041 289.22C339.281 289.647 339.608 289.987 340.021 290.24C340.448 290.48 340.928 290.6 341.461 290.6C341.821 290.6 342.168 290.533 342.501 290.4C342.848 290.267 343.168 290.093 343.461 289.88L344.321 291.26C343.908 291.54 343.441 291.767 342.921 291.94C342.414 292.113 341.914 292.2 341.421 292.2ZM349.632 283.72L349.812 286.12L349.712 285.8C349.925 285.293 350.232 284.867 350.632 284.52C351.045 284.16 351.472 283.887 351.912 283.7C352.365 283.5 352.758 283.4 353.092 283.4L352.992 285.24C352.365 285.2 351.812 285.32 351.332 285.6C350.865 285.88 350.492 286.253 350.212 286.72C349.945 287.187 349.812 287.687 349.812 288.22V292H347.972V283.72H349.632ZM362.619 280.08H364.479V283.76H366.759V285.22H364.479V292H362.619V285.22H361.099V283.76H362.619V280.08ZM368.287 287.78C368.287 286.953 368.48 286.207 368.867 285.54C369.267 284.873 369.813 284.347 370.507 283.96C371.2 283.573 371.987 283.38 372.867 283.38C373.773 283.38 374.567 283.573 375.247 283.96C375.927 284.347 376.453 284.873 376.827 285.54C377.2 286.207 377.387 286.953 377.387 287.78C377.387 288.607 377.2 289.36 376.827 290.04C376.453 290.707 375.92 291.233 375.227 291.62C374.547 292.007 373.753 292.2 372.847 292.2C371.967 292.2 371.18 292.02 370.487 291.66C369.807 291.287 369.267 290.773 368.867 290.12C368.48 289.453 368.287 288.673 368.287 287.78ZM370.147 287.8C370.147 288.333 370.267 288.82 370.507 289.26C370.747 289.687 371.067 290.027 371.467 290.28C371.88 290.533 372.333 290.66 372.827 290.66C373.347 290.66 373.807 290.533 374.207 290.28C374.62 290.027 374.94 289.687 375.167 289.26C375.393 288.82 375.507 288.333 375.507 287.8C375.507 287.267 375.393 286.787 375.167 286.36C374.94 285.92 374.62 285.573 374.207 285.32C373.807 285.053 373.347 284.92 372.827 284.92C372.32 284.92 371.86 285.053 371.447 285.32C371.047 285.587 370.727 285.94 370.487 286.38C370.26 286.807 370.147 287.28 370.147 287.8ZM387.893 283.72L388.053 285.58L387.973 285.42C388.28 284.793 388.713 284.3 389.273 283.94C389.847 283.58 390.5 283.4 391.233 283.4C391.7 283.4 392.113 283.473 392.473 283.62C392.833 283.767 393.127 283.98 393.353 284.26C393.593 284.527 393.747 284.86 393.813 285.26L393.713 285.32C394.033 284.72 394.473 284.253 395.033 283.92C395.607 283.573 396.207 283.4 396.833 283.4C397.647 283.4 398.287 283.633 398.753 284.1C399.233 284.553 399.48 285.147 399.493 285.88V292H397.633V286.54C397.62 286.113 397.513 285.76 397.313 285.48C397.127 285.187 396.793 285.027 396.313 285C395.833 285 395.4 285.147 395.013 285.44C394.64 285.733 394.347 286.113 394.133 286.58C393.92 287.033 393.807 287.527 393.793 288.06V292H391.933V286.54C391.92 286.113 391.807 285.76 391.593 285.48C391.393 285.187 391.053 285.027 390.573 285C390.08 285 389.647 285.147 389.273 285.44C388.9 285.733 388.607 286.113 388.393 286.58C388.193 287.047 388.093 287.547 388.093 288.08V292H386.233V283.72H387.893ZM406.577 292.2C405.631 292.2 404.817 292.013 404.137 291.64C403.457 291.253 402.931 290.733 402.557 290.08C402.197 289.413 402.017 288.653 402.017 287.8C402.017 286.987 402.224 286.247 402.637 285.58C403.051 284.913 403.604 284.38 404.297 283.98C404.991 283.58 405.764 283.38 406.617 283.38C407.711 283.38 408.617 283.7 409.337 284.34C410.057 284.98 410.544 285.86 410.797 286.98L403.977 289.38L403.537 288.28L409.137 286.24L408.737 286.5C408.577 286.06 408.311 285.68 407.937 285.36C407.564 285.027 407.077 284.86 406.477 284.86C405.971 284.86 405.517 284.987 405.117 285.24C404.717 285.48 404.404 285.813 404.177 286.24C403.951 286.667 403.837 287.153 403.837 287.7C403.837 288.273 403.957 288.78 404.197 289.22C404.437 289.647 404.764 289.987 405.177 290.24C405.604 290.48 406.084 290.6 406.617 290.6C406.977 290.6 407.324 290.533 407.657 290.4C408.004 290.267 408.324 290.093 408.617 289.88L409.477 291.26C409.064 291.54 408.597 291.767 408.077 291.94C407.571 292.113 407.071 292.2 406.577 292.2ZM412.188 290.94C412.188 290.647 412.294 290.4 412.508 290.2C412.734 289.987 412.981 289.88 413.248 289.88C413.488 289.88 413.714 289.987 413.928 290.2C414.154 290.4 414.268 290.647 414.268 290.94C414.268 291.26 414.154 291.52 413.928 291.72C413.714 291.907 413.488 292 413.248 292C412.981 292 412.734 291.907 412.508 291.72C412.294 291.52 412.188 291.26 412.188 290.94Z" fill="#3F4553"/>
</svg>
