<svg width="335" height="380" viewBox="0 0 335 380" fill="none" xmlns="http://www.w3.org/2000/svg">
<mask id="mask0_1607_2744" style="mask-type:alpha" maskUnits="userSpaceOnUse" x="0" y="0" width="335" height="380">
<rect width="335" height="380" rx="10" fill="#FA6E5A"/>
</mask>
<g mask="url(#mask0_1607_2744)">
<g clip-path="url(#clip0_1607_2744)">
<path d="M296.933 44.0425H290.504V74.8044H296.933V44.0425Z" fill="#D4A561"/>
<path d="M307.01 54.3826H300.581V74.8039H307.01V54.3826Z" fill="#D4A561"/>
<path d="M317.099 64.1282H310.67V74.8044H317.099V64.1282Z" fill="#D4A561"/>
</g>
<g clip-path="url(#clip1_1607_2744)">
<path d="M173.733 234.043C209.911 234.043 239.239 229.182 239.239 223.186C239.239 217.189 209.911 212.328 173.733 212.328C137.555 212.328 108.227 217.189 108.227 223.186C108.227 229.182 137.555 234.043 173.733 234.043Z" fill="#585857"/>
</g>
<path d="M162.685 82.3251C162.685 82.3251 160.119 109.36 170.749 108.953C182.151 108.51 179.084 82.3251 179.084 82.3251C177.594 78.1046 177 75.6017 177.668 71.1746H163.823C164.491 75.6017 164.169 78.1046 162.685 82.3251Z" fill="#FDBCA0"/>
<path d="M164.101 76.4043C165.672 76.853 167.255 77.2662 168.894 77.396C170.446 77.52 172.041 77.4255 173.587 77.2662C174.873 77.1304 176.246 76.912 177.532 76.5047C177.328 74.8991 177.359 73.2463 177.674 71.1685H163.829C164.132 73.205 164.225 74.8342 164.101 76.4043Z" fill="#F0A38B"/>
<path d="M170.749 74.8638C174.7 74.8638 178.503 73.3763 181.285 70.6964C184.6 67.5088 187.197 63.9553 187.958 59.7819C188.935 54.4221 187.036 49.0681 182.893 44.759H158.598C154.455 49.0622 152.556 54.4221 153.533 59.7819C154.294 63.9553 156.897 67.5088 160.206 70.6964C162.994 73.3704 166.797 74.8638 170.749 74.8638Z" fill="#FDBCA0"/>
<path d="M171.955 85.4775C171.454 86.0029 170.984 86.5755 170.539 87.1481C170.001 86.7939 169.574 86.363 169.104 85.9203C169.061 85.8789 168.974 85.9202 168.993 85.9793C169.259 86.6758 169.815 87.2425 170.384 87.7265C170.508 87.8269 170.681 87.8387 170.805 87.7265C171.404 87.1658 171.992 86.5105 172.456 85.8376C172.653 85.5602 172.196 85.2237 171.955 85.4775Z" fill="#DF8370"/>
<path d="M185.324 84.4445C181.632 84.7455 177.99 85.3181 174.397 86.1917C174.181 86.2449 174.274 86.5577 174.49 86.5105C178.064 85.7549 181.675 85.2414 185.324 85.0052C185.707 84.9816 185.701 84.415 185.324 84.4445Z" fill="#DF8370"/>
<path d="M156.168 84.4445C159.86 84.7455 163.502 85.3181 167.094 86.1917C167.311 86.2449 167.218 86.5577 167.002 86.5105C163.427 85.7549 159.816 85.2414 156.168 85.0052C155.791 84.9816 155.791 84.415 156.168 84.4445Z" fill="#DF8370"/>
<path d="M156.805 35.8457C151.641 38.6673 148.005 43.1122 147.943 49.0859C147.882 55.8211 156.477 66.5467 156.359 66.281C153.503 59.7288 152.754 50.7092 159.884 46.1935C160.595 45.7449 161.486 45.4851 162.122 44.9598C162.104 41.4003 160.045 37.953 156.805 35.8457Z" fill="#3F4553"/>
<path d="M184.185 35.8457C189.348 38.6673 192.984 43.1122 193.046 49.0859C193.108 55.8211 188.884 61.8126 184.68 66.9009C185.749 64.6814 188.229 50.7033 181.099 46.1935C180.388 45.7449 179.498 45.4851 178.861 44.9598C178.886 41.4003 180.951 37.953 184.185 35.8457Z" fill="#424495"/>
<path d="M258.321 32.2804C254.376 30.4092 249.769 30.0078 245.478 30.8401C243.4 31.2415 241.434 31.944 239.56 32.8943C238.317 33.52 237.056 34.4173 235.609 34.5235C233.853 34.6475 232.313 33.5555 231.008 32.5874C226.952 29.5769 222.827 26.9383 217.608 26.2122C215.085 25.8581 212.266 26.1178 210.312 27.5935C208.308 25.0671 205.322 23.2667 202.032 22.6056C197.679 21.7319 193.542 22.9775 190.122 25.4803C188.193 24.5771 184.817 23.2785 184.39 23.1664C171.528 19.7899 153.967 28.355 156.242 42.7994C158.196 55.2132 174.663 60.9508 186.072 58.4007C188.533 62.8456 194.432 63.8786 198.977 61.5647C199.323 61.8185 199.67 62.0724 200.022 62.3203C207.276 67.3968 215.716 70.6965 224.831 69.1971C228.294 68.6246 231.534 67.4322 234.514 65.7203C237.346 67.7509 241.075 68.3944 244.507 66.8242C247.061 65.6613 248.774 63.5127 249.386 61.0807C249.429 61.0807 249.472 61.0807 249.516 61.0807C257.097 60.9921 265.136 57.3973 267.071 49.812C268.833 42.9174 264.913 35.4031 258.321 32.2804Z" fill="#4E5567"/>
<path d="M223.854 30.0316C226.346 31.9736 227.824 34.6359 226.271 37.5696C225.01 39.9603 222.741 41.7016 221.09 43.8208C219.154 46.3 218.82 49.4817 221.992 51.2938C225.115 53.0765 229.029 50.857 231.633 49.1747C234.848 47.091 238.299 41.0641 241.069 38.4786C253.374 26.9975 265.593 39.2696 265.642 39.311C264.047 36.3241 261.499 33.7917 258.321 32.2806C254.376 30.4094 249.769 30.008 245.478 30.8403C243.4 31.2417 241.434 31.9441 239.56 32.8945C238.317 33.5202 237.056 34.4174 235.609 34.5237C233.853 34.6477 232.313 33.5556 231.008 32.5875C226.952 29.5771 222.827 26.9385 217.608 26.2124C215.141 25.87 212.389 26.118 210.441 27.5111C214.69 25.935 220.446 27.3694 223.854 30.0316Z" fill="#3F4553"/>
<path d="M256.626 59.133C253.615 59.4695 250.795 59.3101 248.025 58.1354C246.832 61.0928 244.389 64.0796 240.939 64.5459C238.62 64.8588 235.88 64.1682 235.404 61.8247C219.104 74.4923 200.832 60.3608 199.069 57.7104C193.986 60.8743 187.58 57.0139 185.682 52.0731C181.811 53.5075 177.346 53.0648 173.587 51.5242C166.581 48.6612 162.697 40.7691 165.146 33.8037C167.187 28.0129 172.622 24.0521 178.645 22.4406C166.902 22.3756 154.294 30.4272 156.242 42.7997C158.196 55.2135 174.656 60.9511 186.071 58.401C188.532 62.8459 194.432 63.8789 198.977 61.565C199.323 61.8188 199.669 62.0726 200.022 62.3206C207.275 67.397 215.716 70.6968 224.83 69.1974C228.293 68.6249 231.533 67.4325 234.514 65.7206C237.346 67.7512 241.075 68.3946 244.506 66.8245C247.06 65.6616 248.773 63.5129 249.385 61.0809C249.429 61.0809 249.472 61.0809 249.515 61.0809C253.133 61.0396 256.849 60.1955 259.965 58.5073C258.871 58.8201 257.733 59.009 256.626 59.133Z" fill="#3F4553"/>
<path d="M166.408 62.9461C164.243 63.2885 160.725 63.4007 158.728 61.3583C158.332 60.951 157.794 61.4114 158.288 61.8187C158.369 61.8836 158.449 61.9426 158.53 62.0017C158.295 62.0666 158.047 62.0961 157.788 62.0784C157.781 62.0784 157.781 62.0843 157.788 62.0902C158.103 62.1906 158.425 62.2201 158.74 62.1611C158.746 62.167 158.752 62.1729 158.758 62.1729C158.486 62.344 158.159 62.4149 157.837 62.5152C157.831 62.5152 157.831 62.5211 157.837 62.527C158.233 62.5624 158.647 62.5152 158.975 62.3145C159.012 62.3381 159.049 62.3499 159.086 62.3736C158.839 62.5565 158.561 62.6923 158.245 62.7631C158.214 62.7691 158.22 62.8163 158.251 62.8163C158.653 62.834 159.037 62.7395 159.358 62.527C159.426 62.5624 159.5 62.592 159.568 62.6274C159.34 62.7868 159.105 62.9284 158.839 63.0465C158.814 63.0583 158.826 63.0996 158.851 63.0996C159.204 63.1114 159.513 62.9402 159.791 62.7395C159.878 62.7809 159.964 62.8104 160.057 62.8458C159.939 62.9579 159.803 63.0642 159.674 63.1705C159.655 63.1882 159.674 63.2118 159.698 63.2118C159.921 63.1586 160.125 63.0701 160.298 62.9461C162.283 63.7253 164.608 63.7489 166.599 63.0642C166.809 62.9816 166.649 62.9107 166.408 62.9461Z" fill="#3F4553"/>
<path d="M175.293 62.9461C177.458 63.2885 180.976 63.4007 182.973 61.3583C183.369 60.951 183.907 61.4114 183.413 61.8187C183.332 61.8836 183.252 61.9426 183.171 62.0017C183.413 62.0666 183.654 62.0961 183.913 62.0784C183.92 62.0784 183.92 62.0843 183.913 62.0902C183.598 62.1906 183.276 62.2201 182.961 62.1611C182.955 62.167 182.949 62.1729 182.943 62.1729C183.215 62.344 183.542 62.4149 183.864 62.5152C183.87 62.5152 183.87 62.5211 183.864 62.527C183.468 62.5624 183.054 62.5152 182.726 62.3145C182.689 62.3381 182.652 62.3499 182.615 62.3736C182.862 62.5565 183.14 62.6923 183.456 62.7631C183.487 62.7691 183.481 62.8163 183.45 62.8163C183.048 62.834 182.664 62.7395 182.343 62.527C182.275 62.5624 182.201 62.592 182.132 62.6274C182.361 62.7868 182.596 62.9284 182.862 63.0465C182.887 63.0583 182.875 63.0996 182.85 63.0996C182.497 63.1114 182.188 62.9402 181.91 62.7395C181.823 62.7809 181.737 62.8104 181.65 62.8458C181.768 62.9579 181.904 63.0642 182.034 63.1705C182.052 63.1882 182.034 63.2118 182.009 63.2118C181.786 63.1586 181.582 63.0701 181.409 62.9461C179.424 63.7253 177.099 63.7489 175.102 63.0642C174.898 62.9816 175.052 62.9107 175.293 62.9461Z" fill="#3F4553"/>
<path d="M172.214 67.2493C171.2 67.751 170.192 67.9517 169.147 67.3496C169.073 67.3083 168.986 67.4087 169.054 67.4677C169.951 68.2292 171.546 68.424 172.443 67.5326C172.591 67.3791 172.406 67.1548 172.214 67.2493Z" fill="#3F4553"/>
<path d="M174.533 70.7319C173.265 71.092 172.016 71.2278 170.779 71.1746C169.542 71.2278 168.293 71.092 167.026 70.7319C166.995 70.7201 166.97 70.7732 167.001 70.785C168.219 71.2809 169.499 71.5465 170.779 71.576C172.059 71.5465 173.339 71.2809 174.557 70.785C174.588 70.7732 174.564 70.726 174.533 70.7319Z" fill="#3F4553"/>
<path d="M164.967 65.8386C164.861 65.7914 164.75 65.7501 164.639 65.7206C163.223 65.3723 161.547 64.7112 160.069 64.9532C159.024 65.1244 158.783 66.3345 159.377 67.0487C160.014 67.8161 161.263 68.0345 162.227 68.1053C163.198 68.1762 164.719 68.2765 165.443 67.5505C166.098 66.8952 165.653 66.1574 164.967 65.8386Z" fill="#FBAD8B"/>
<path d="M176.542 65.8386C176.647 65.7914 176.758 65.7501 176.87 65.7206C178.286 65.3723 179.961 64.7112 181.439 64.9532C182.484 65.1244 182.726 66.3345 182.132 67.0487C181.495 67.8161 180.246 68.0345 179.281 68.1053C178.31 68.1762 176.789 68.2765 176.066 67.5505C175.41 66.8952 175.862 66.1574 176.542 65.8386Z" fill="#FBAD8B"/>
<path d="M152.074 57.0018C150.609 56.7952 149.038 57.3737 149.304 59.0324C149.514 60.3546 151.005 61.671 153.28 61.2755C152.662 59.906 152.235 58.4657 152.074 57.0018Z" fill="#F9CDB9"/>
<path d="M150.658 58.3005C151.06 57.9818 151.685 57.8401 152.223 57.9228C152.192 57.7634 152.173 57.5981 152.148 57.4387C151.413 57.3738 150.547 57.663 150.126 58.1707C149.471 58.9676 149.966 59.853 150.689 60.3961C150.794 60.4787 150.943 60.3489 150.844 60.2485C150.318 59.7172 149.953 58.8613 150.658 58.3005Z" fill="#F8C4AB"/>
<path d="M152.513 59.1858C152.13 58.8553 151.629 58.6723 151.054 58.6959C150.924 58.7018 150.875 58.9084 151.023 58.9261C151.549 58.9969 152 59.2567 152.278 59.6581C151.957 59.8233 151.722 60.1834 152.05 60.4786C152.309 60.7147 152.693 60.7678 153.058 60.7324C152.854 60.2247 152.662 59.7112 152.513 59.1858Z" fill="#F8C4AB"/>
<path d="M151.945 60.8916C151.938 60.8857 151.926 60.8916 151.932 60.8975C152.167 61.4524 152.501 62.751 151.697 63.0167C151.159 63.1937 151.11 62.5326 151.19 62.1843C151.264 61.8656 151.45 61.535 151.605 61.2517C151.605 61.2517 151.234 61.1749 150.893 61.0097C150.43 61.3874 150.263 61.9482 150.343 62.5385C150.417 63.0757 150.776 63.666 151.413 63.6837C151.982 63.7014 152.39 63.2351 152.476 62.7392C152.575 62.0958 152.303 61.417 151.945 60.8916Z" fill="#FDCA27"/>
<path d="M270.274 162.551C266.799 158.602 259.279 158.284 254.345 157.794C239.51 156.318 224.299 156.684 209.458 157.829C202.069 158.402 194.716 159.258 187.395 160.385C182.096 161.205 176.178 161.778 170.885 163.395C165.592 161.778 159.674 161.2 154.374 160.385C147.059 159.252 139.701 158.396 132.311 157.829C117.471 156.684 102.253 156.318 87.4245 157.794C82.4962 158.284 74.9708 158.602 71.4956 162.551C68.1379 166.365 72.2809 170.987 75.4716 173.413C79.8805 176.765 85.4767 178.418 90.8193 179.865C97.5286 181.671 104.392 182.899 111.293 183.831C142.18 187.987 158.95 184.923 175.096 184.734C175.714 185.484 176.295 186.263 176.827 187.072C193.195 187.172 214.219 185.927 230.47 183.831C237.377 182.94 244.235 181.677 250.944 179.865C256.293 178.424 261.883 176.771 266.292 173.413C269.482 170.987 273.625 166.365 270.274 162.551Z" fill="#93BFA8"/>
<path d="M248.359 165.285C248.872 164.659 251.983 163.886 253.207 163.366C247.438 163.809 241.644 164.47 235.887 165.037C224.936 166.111 213.972 168.88 203.596 172.345C198.63 174.003 193.677 175.745 188.743 177.492C184.835 178.873 180.97 180.384 177.303 182.267C177.866 182.102 178.429 181.937 178.991 181.777C184.841 180.136 208.679 167.829 252.817 166.312C251.797 166.099 248.161 165.527 248.359 165.285Z" fill="#66A986"/>
<path d="M94.0594 164.416C93.5461 163.791 90.4358 163.018 89.2114 162.498C94.9807 162.941 100.775 163.602 106.532 164.169C117.483 165.243 128.446 168.011 138.823 171.476C143.788 173.135 148.741 174.876 153.676 176.624C157.584 178.005 161.448 179.516 165.115 181.399C164.553 181.234 163.99 181.069 163.427 180.909C157.577 179.268 133.74 166.961 89.601 165.444C90.6151 165.231 94.2511 164.659 94.0594 164.416Z" fill="#66A986"/>
<path d="M185.806 177.468C183.32 176.518 180.692 176.494 178.274 177.48C174.144 179.174 169.079 176.577 164.788 177.043C160.836 177.474 158.431 181.765 161.455 184.504C162.184 185.166 169.518 187.704 181.137 182.533C182.411 181.966 183.654 181.642 185.095 181.659C185.429 181.665 185.744 181.966 186.096 181.931C186.851 181.842 187.469 181.712 187.89 181.016C188.879 179.375 187.228 178.011 185.806 177.468Z" fill="#FDB597"/>
<path d="M156.805 186.175C158.901 184.587 161.418 183.843 164.021 184.133C168.485 184.628 172.56 180.756 176.815 180.03C180.729 179.363 184.322 182.816 182.244 186.275C181.743 187.108 175.473 191.541 162.79 189.758C161.399 189.563 160.113 189.593 158.74 190C158.425 190.094 158.208 190.472 157.856 190.531C157.108 190.655 156.477 190.697 155.865 190.148C154.43 188.843 155.605 187.084 156.805 186.175Z" fill="#FDBCA0"/>
<path d="M241.074 89.2019C239.646 89.9043 238.143 90.6953 236.739 91.4332C237.481 90.8547 241.6 86.8525 243.201 85.8667C243.374 85.7605 242.966 84.1372 238.755 87.3484C237.5 88.3046 236.016 89.2727 234.835 90.3175C236.337 87.5963 237.593 84.8396 239.559 82.3486C239.639 82.2483 239.615 82.1361 239.547 82.0594C239.145 81.7583 238.137 82.1007 237.685 82.5611C236.882 83.3757 233.827 86.5279 232.343 89.8512C232.368 88.7119 232.262 86.8643 231.415 86.4865C230.883 86.2445 229.999 86.5633 229.43 86.6046C228.311 86.6813 226.846 86.8348 225.801 86.4098C225.646 86.3508 225.256 86.3036 225.399 86.7935C225.875 88.3991 228.225 88.5998 229.684 88.954C230.179 90.0991 228.787 91.9762 227.909 92.5429C226.481 93.4697 224.397 92.5606 224.756 90.7425C225.071 89.1428 226.073 88.4168 225.188 86.8466C224.898 86.3272 223.649 85.8549 223.927 86.6931C224.644 88.8359 222.585 90.6363 222.319 92.7082C222.109 94.3492 223.018 95.8072 223.933 97.1236C223.877 97.2593 223.834 97.3951 223.785 97.525C222.542 99.5792 221.577 101.746 220.878 104.012C222.474 104.514 227.161 104.195 227.142 104.16C227.161 104.195 227.705 101.019 228.954 99.6795C230.321 98.2097 232.04 97.0763 233.685 95.9194C237.141 93.4815 240.654 91.1144 244.215 88.8123C244.419 88.6883 244.252 87.6376 241.074 89.2019Z" fill="#FDBCA0"/>
<path d="M101.072 89.2019C102.5 89.9043 104.003 90.6953 105.406 91.4332C104.664 90.8547 100.546 86.8525 98.9444 85.8667C98.7712 85.7605 99.1794 84.1372 103.39 87.3484C104.646 88.3046 106.13 89.2727 107.311 90.3175C105.808 87.5963 104.553 84.8396 102.587 82.3486C102.506 82.2483 102.531 82.1361 102.599 82.0594C103.001 81.7583 104.009 82.1007 104.46 82.5611C105.264 83.3757 108.319 86.5279 109.803 89.8512C109.778 88.7119 109.883 86.8643 110.73 86.4865C111.262 86.2445 112.146 86.5633 112.715 86.6046C113.835 86.6813 115.3 86.8348 116.345 86.4098C116.5 86.3508 116.889 86.3036 116.747 86.7935C116.271 88.3991 113.921 88.5998 112.462 88.954C111.967 90.0991 113.358 91.9762 114.236 92.5429C115.665 93.4697 117.749 92.5606 117.39 90.7425C117.075 89.1428 116.073 88.4168 116.957 86.8466C117.248 86.3272 118.497 85.8549 118.219 86.6931C117.501 88.8359 119.561 90.6363 119.826 92.7082C120.037 94.3492 119.128 95.8072 118.213 97.1236C118.268 97.2593 118.311 97.3951 118.361 97.525C119.604 99.5792 120.568 101.746 121.267 104.012C119.672 104.514 114.985 104.195 115.003 104.16C114.985 104.195 114.441 101.019 113.191 99.6795C111.825 98.2097 110.106 97.0763 108.461 95.9194C105.004 93.4815 101.492 91.1144 97.9303 88.8123C97.7262 88.6883 97.8932 87.6376 101.072 89.2019Z" fill="#FDBCA0"/>
<path d="M219.21 101.923C216.891 107.631 209.025 128.704 205.742 137.641C203.788 132.86 198.507 112.099 194.061 87.9978C192.676 80.507 183.827 81.5755 179.091 82.3251C178.75 87.3544 173.637 101.297 170.891 101.327C168.146 101.297 162.704 88.3402 162.692 82.3251C157.961 81.5755 149.106 80.507 147.721 87.9978C143.269 112.099 137.994 132.866 136.04 137.641C132.751 128.704 124.891 107.631 122.572 101.923C119.598 103.263 116.308 104.001 113.025 104.184C115.566 110.635 123.958 156.324 136.325 156.324C141.686 156.324 145.081 150.887 150.547 130.747C150.819 134.111 150.912 140.575 150.776 147.369C150.677 152.263 147.134 157.918 142.391 156.826C141.432 156.607 140.183 157.298 141.371 158.526C141.692 158.862 142.106 159.11 142.533 159.299C150.108 162.723 150.405 167.84 154.876 170.821C157.578 172.622 160.905 173.188 164.077 173.802C167.515 174.463 171.058 174.959 174.558 174.458C180.377 173.625 184.897 169.912 189.714 167.008C192.404 165.385 195.137 164.086 198.297 163.643C206.428 162.504 205.89 157.026 204.19 157.138C198.495 157.51 190.994 150.58 190.951 142.954C190.92 137.877 191.025 133.373 191.235 130.747C196.701 150.887 200.096 156.324 205.457 156.324C217.825 156.324 226.216 110.635 228.757 104.184C225.474 104.001 222.184 103.257 219.21 101.923Z" fill="#F2EDE4"/>
<g clip-path="url(#clip2_1607_2744)">
<path d="M299.978 152.533L321.14 145.773L310.532 116.098L289.37 122.857C288.541 123.121 288.091 123.971 288.378 124.754L297.971 151.588C298.25 152.372 299.149 152.797 299.978 152.533Z" fill="#3F4553"/>
<path d="M299.993 151.947L321.683 145.019L311.462 116.435L289.773 123.363C289.238 123.531 288.951 124.081 289.13 124.593L298.692 151.339C298.878 151.845 299.459 152.116 299.993 151.947Z" fill="#DDDDE3"/>
<path d="M300.451 151.801L322.14 144.873L311.919 116.288L290.23 123.217C289.695 123.385 289.409 123.934 289.587 124.447L299.149 151.193C299.335 151.699 299.916 151.977 300.451 151.801Z" fill="#E2E5FF"/>
<path d="M301.621 152.006L322.783 145.246L312.175 115.578L291.013 122.337C290.183 122.601 289.734 123.451 290.021 124.234L299.614 151.068C299.893 151.852 300.792 152.27 301.621 152.006Z" fill="#4E5567"/>
<path d="M310.988 115.957L310.533 116.102L321.142 145.778L321.597 145.633L310.988 115.957Z" fill="#3F4553"/>
<path d="M314.011 139.138L314.484 138.186L315.476 138.669L307.727 116.998C307.588 116.618 307.239 116.647 306.836 116.779C306.433 116.911 306.131 117.086 306.27 117.467L314.011 139.138Z" fill="#D4A561"/>
<path d="M266.463 123.825L280.706 107.864L277.827 105.57L263.584 121.53L266.463 123.825Z" fill="#3F4553"/>
<path d="M263.581 121.525L266.456 123.817L262.303 125.978C262.163 126.051 261.977 125.897 262.024 125.758L263.581 121.525Z" fill="#F2EDE4"/>
<path d="M262.311 125.985L263.434 125.399L262.458 124.615L262.039 125.758C261.985 125.897 262.171 126.051 262.311 125.985Z" fill="#3F4553"/>
<path d="M265.509 123.065L279.752 107.104L278.775 106.325L264.532 122.286L265.509 123.065Z" fill="#D4A561"/>
</g>
<g clip-path="url(#clip3_1607_2744)">
<path d="M109.182 -30.1477C90.8224 -30.1477 75.9487 -15.9728 75.9487 1.52395C75.9487 19.0107 90.8224 33.1956 109.182 33.1956C127.53 33.1956 142.414 19.0207 142.414 1.52395C142.404 -15.9728 127.53 -30.1477 109.182 -30.1477ZM109.182 27.8389C93.9311 27.8389 81.5695 16.058 81.5695 1.52395C81.5695 -13.0101 93.9311 -24.791 109.182 -24.791C124.432 -24.791 136.794 -13.0101 136.794 1.52395C136.794 16.058 124.432 27.8389 109.182 27.8389Z" fill="#FDFDFD"/>
<path d="M134.659 11.6698C140.542 -1.73868 133.906 -17.1537 119.837 -22.7607C105.767 -28.3676 89.5924 -22.0433 83.7091 -8.63482C77.8258 4.77362 84.4619 20.1886 98.5312 25.7956C112.601 31.4026 128.775 25.0782 134.659 11.6698Z" fill="#D4A561"/>
<path d="M134.312 1.57251C134.312 -0.272924 131.298 -0.282899 131.298 1.57251C131.298 3.42793 134.312 3.42793 134.312 1.57251Z" fill="#FDFDFD"/>
<path d="M109.117 25.474C111.054 25.474 111.064 22.6011 109.117 22.6011C107.181 22.6011 107.17 25.474 109.117 25.474Z" fill="#FDFDFD"/>
<path d="M84.0408 1.46423C84.0408 3.30967 87.0553 3.31964 87.0553 1.46423C87.0553 -0.381199 84.0408 -0.391175 84.0408 1.46423Z" fill="#FDFDFD"/>
<path d="M121.052 9.21476C120.874 9.21476 120.696 9.17485 120.539 9.0751L108.659 2.34176C108.355 2.17218 108.167 1.85297 108.167 1.5138V-16.5814C108.167 -17.1101 108.617 -17.5391 109.172 -17.5391C109.726 -17.5391 110.176 -17.1101 110.176 -16.5814V0.97514L121.565 7.42917C122.046 7.69851 122.203 8.28705 121.91 8.74592C121.732 9.04518 121.397 9.21476 121.052 9.21476Z" fill="#FDFDFD"/>
</g>
<path d="M42.9503 66.4926L42.2873 62.9079L38.442 63.5325C37.832 61.8588 36.8376 60.3849 35.5514 59.1858L37.8055 56.1757L34.6497 54.0898L32.4089 57.0875C30.7912 56.3381 28.9879 55.9259 27.105 55.9384L26.4288 52.3037L22.6232 52.9282L23.2862 56.5504C21.5094 57.125 19.9448 58.0617 18.6719 59.2733L15.4763 57.1499L13.2619 60.1226L16.4443 62.2335C15.6487 63.7573 15.2111 65.456 15.2244 67.2296L11.3923 67.8541L12.0553 71.4388L15.9006 70.8143C16.5106 72.488 17.505 73.9618 18.7912 75.1609L16.5371 78.171L19.6929 80.2569L21.9337 77.2592C23.5514 78.0087 25.3547 78.4208 27.2376 78.4084L27.9138 82.043L31.7194 81.4185L31.0564 77.7963C32.8332 77.2218 34.3978 76.285 35.6707 75.0735L38.8663 77.1968L41.0807 74.2241L37.8983 72.1133C38.6939 70.5894 39.1315 68.8908 39.1182 67.1172L42.9503 66.4926ZM27.7812 70.502C25.8321 70.8268 23.9757 69.5902 23.631 67.7542C23.2862 65.9181 24.5989 64.1695 26.5481 63.8447C28.4973 63.52 30.3536 64.7565 30.6984 66.5926C31.0431 68.4286 29.7437 70.1773 27.7812 70.502Z" fill="#999996"/>
<path d="M79.2292 59.2604V54.7514H74.3894C74.0314 52.5781 73.143 50.5797 71.8436 48.856L75.2778 45.621L71.8966 42.436L68.4756 45.6585C66.6591 44.422 64.5508 43.5602 62.2436 43.1979V38.614H57.4569V43.173C55.1497 43.5102 53.0149 44.347 51.1983 45.5711L47.7641 42.3361L44.3829 45.5211L47.8039 48.7436C46.4912 50.4548 45.5763 52.4407 45.1917 54.614H40.3254V59.123H45.1652C45.5232 61.2963 46.4116 63.2948 47.7111 65.0184L44.2768 68.2534L47.658 71.4384L51.079 68.2159C52.8956 69.4525 55.0039 70.3143 57.311 70.6765V75.2604H62.0978V70.7015C64.4049 70.3642 66.5265 69.5274 68.3563 68.3034L71.7906 71.5383L75.1718 68.3533L71.7508 65.1308C73.0635 63.4197 73.9784 61.4337 74.3629 59.2604H79.2292V59.2604ZM59.7773 61.1339C57.3243 61.1339 55.3221 59.2604 55.3221 56.9372C55.3221 54.6265 57.311 52.7405 59.7773 52.7405C62.2304 52.7405 64.2326 54.614 64.2326 56.9372C64.2193 59.2479 62.2304 61.1339 59.7773 61.1339Z" fill="#585857"/>
<g opacity="0.3">
<path d="M303.785 25.7614L268.224 18.1443C267.876 18.0719 267.654 17.7399 267.736 17.4079L272.214 -1.59247C272.29 -1.92444 272.638 -2.13569 272.987 -2.05722L308.548 5.56588C308.896 5.63831 309.118 5.97027 309.035 6.30224L304.551 25.3027C304.475 25.6286 304.133 25.8398 303.785 25.7614Z" fill="#ECECEC"/>
<path d="M268.325 17.6976C268.23 17.6795 268.173 17.5889 268.199 17.5044L272.683 -1.49599C272.702 -1.58652 272.797 -1.64084 272.885 -1.6167L308.446 6.0064C308.541 6.02451 308.598 6.11505 308.573 6.19955L304.089 25.2C304.07 25.2905 303.975 25.3448 303.886 25.3207L268.325 17.6976Z" fill="#F5F4F5"/>
<path d="M303.542 4.48745L277.999 -0.986938L277.895 -0.545305L303.438 4.92908L303.542 4.48745Z" fill="#706F6E"/>
<path d="M275.514 1.74491L274.336 1.49141C274.19 1.46123 274.095 1.32241 274.127 1.17755L274.311 0.386871C274.342 0.248049 274.488 0.157515 274.64 0.187693L275.818 0.441192C275.964 0.471371 276.059 0.610192 276.027 0.755049L275.843 1.54573C275.805 1.68455 275.66 1.77508 275.514 1.74491Z" fill="#585857"/>
<path d="M274.386 1.26807C274.367 1.26203 274.354 1.24392 274.361 1.22582L274.544 0.435137C274.551 0.41703 274.57 0.404958 274.589 0.410994L275.767 0.664495C275.786 0.670531 275.798 0.688638 275.792 0.706745L275.608 1.49742C275.602 1.51553 275.583 1.5276 275.564 1.52156L274.386 1.26807Z" fill="#5E5E5D"/>
<path d="M277.673 2.20377L276.495 1.95027C276.349 1.92009 276.254 1.78127 276.286 1.63641L276.47 0.845735C276.501 0.706914 276.647 0.616377 276.799 0.646556L277.977 0.900057C278.123 0.930235 278.218 1.06906 278.186 1.21391L278.002 2.00459C277.964 2.14945 277.819 2.23395 277.673 2.20377Z" fill="#585857"/>
<path d="M276.546 1.73267C276.527 1.72663 276.514 1.70852 276.52 1.69041L276.704 0.899737C276.71 0.88163 276.729 0.869558 276.748 0.875593L277.926 1.12909C277.945 1.13513 277.958 1.15324 277.952 1.17134L277.768 1.96202C277.762 1.98013 277.743 1.9922 277.724 1.98616L276.546 1.73267Z" fill="#5E5E5D"/>
<path d="M279.833 2.66825L278.655 2.41475C278.509 2.38457 278.414 2.24575 278.446 2.10089L278.629 1.31021C278.661 1.17139 278.807 1.08085 278.959 1.11103L280.137 1.36453C280.282 1.39471 280.377 1.53353 280.346 1.67839L280.162 2.46907C280.124 2.60789 279.978 2.69843 279.833 2.66825Z" fill="#585857"/>
<path d="M278.705 2.19165C278.686 2.18561 278.674 2.16751 278.68 2.1494L278.864 1.35872C278.87 1.34061 278.889 1.32854 278.908 1.33458L280.086 1.58808C280.105 1.59411 280.118 1.61222 280.111 1.63033L279.928 2.42101C279.921 2.43911 279.902 2.45118 279.883 2.44515L278.705 2.19165Z" fill="#5E5E5D"/>
<path d="M281.992 3.12686L280.814 2.87337C280.669 2.84319 280.574 2.70436 280.605 2.55951L280.789 1.76883C280.821 1.63001 280.966 1.53947 281.118 1.56965L282.296 1.82315C282.442 1.85333 282.537 1.99215 282.505 2.13701L282.322 2.92769C282.284 3.07254 282.138 3.16308 281.992 3.12686Z" fill="#585857"/>
<path d="M280.865 2.65637C280.846 2.65034 280.834 2.63223 280.84 2.61412L281.024 1.82344C281.03 1.80534 281.049 1.79326 281.068 1.7993L282.246 2.0528C282.265 2.05884 282.278 2.07694 282.271 2.09505L282.088 2.88573C282.081 2.90384 282.062 2.91591 282.043 2.90987L280.865 2.65637Z" fill="#5E5E5D"/>
<path d="M284.146 3.59183L282.968 3.33833C282.822 3.30815 282.727 3.16933 282.759 3.02447L282.942 2.23379C282.974 2.09497 283.12 2.00444 283.272 2.03462L284.45 2.28812C284.595 2.31829 284.69 2.45712 284.659 2.60197L284.475 3.39265C284.443 3.53751 284.298 3.62201 284.146 3.59183Z" fill="#585857"/>
<path d="M283.025 3.12122C283.006 3.11518 282.993 3.09707 283 3.07897L283.183 2.28829C283.19 2.27018 283.209 2.25811 283.228 2.26414L284.406 2.51764C284.425 2.52368 284.437 2.54179 284.431 2.55989L284.247 3.35057C284.241 3.36868 284.222 3.38075 284.203 3.37471L283.025 3.12122Z" fill="#5E5E5D"/>
<path d="M286.305 4.05655L285.127 3.80305C284.982 3.77287 284.887 3.63405 284.918 3.4892L285.102 2.69852C285.134 2.5597 285.279 2.46916 285.431 2.49934L286.609 2.75284C286.755 2.78302 286.85 2.92184 286.818 3.0667L286.635 3.85737C286.603 3.9962 286.457 4.08673 286.305 4.05655Z" fill="#585857"/>
<path d="M285.184 3.57983C285.165 3.5738 285.153 3.55569 285.159 3.53758L285.343 2.7469C285.349 2.7288 285.368 2.71673 285.387 2.72276L286.565 2.97626C286.584 2.9823 286.597 3.0004 286.59 3.01851L286.407 3.80919C286.4 3.8273 286.381 3.83937 286.362 3.83333L285.184 3.57983Z" fill="#5E5E5D"/>
<path d="M288.465 4.51541L287.287 4.26191C287.142 4.23174 287.047 4.09291 287.078 3.94806L287.262 3.15738C287.294 3.01856 287.439 2.92802 287.591 2.9582L288.769 3.2117C288.915 3.24188 289.01 3.3807 288.978 3.52556L288.795 4.31624C288.763 4.46109 288.611 4.55163 288.465 4.51541Z" fill="#585857"/>
<path d="M287.344 4.04455C287.325 4.03852 287.312 4.02041 287.319 4.0023L287.502 3.21162C287.509 3.19352 287.528 3.18145 287.547 3.18748L288.725 3.44098C288.744 3.44702 288.756 3.46512 288.75 3.48323L288.566 4.27391C288.56 4.29202 288.541 4.30409 288.522 4.29805L287.344 4.04455Z" fill="#5E5E5D"/>
<path d="M290.625 4.98026L289.447 4.72676C289.301 4.69658 289.206 4.55776 289.238 4.4129L289.422 3.62222C289.453 3.4834 289.599 3.39287 289.751 3.42304L290.929 3.67654C291.075 3.70672 291.17 3.84554 291.138 3.9904L290.954 4.78108C290.916 4.92594 290.771 5.01044 290.625 4.98026Z" fill="#585857"/>
<path d="M289.504 4.50928C289.485 4.50324 289.472 4.48513 289.478 4.46703L289.662 3.67635C289.668 3.65824 289.687 3.64617 289.706 3.6522L290.884 3.90571C290.903 3.91174 290.916 3.92985 290.91 3.94796L290.726 4.73863C290.72 4.75674 290.701 4.76881 290.682 4.76278L289.504 4.50928Z" fill="#5E5E5D"/>
<path d="M292.785 5.44498L291.607 5.19148C291.461 5.1613 291.366 5.02248 291.398 4.87762L291.582 4.08694C291.613 3.94812 291.759 3.85759 291.911 3.88777L293.089 4.14127C293.235 4.17144 293.33 4.31027 293.298 4.45512L293.114 5.2458C293.076 5.38462 292.931 5.47516 292.785 5.44498Z" fill="#585857"/>
<path d="M291.657 4.96801C291.638 4.96198 291.625 4.94387 291.632 4.92577L291.815 4.13509C291.822 4.11698 291.841 4.10491 291.86 4.11095L293.038 4.36444C293.057 4.37048 293.069 4.38859 293.063 4.40669L292.879 5.19737C292.873 5.21548 292.854 5.22755 292.835 5.22152L291.657 4.96801Z" fill="#5E5E5D"/>
<path d="M294.944 5.90372L293.766 5.65022C293.62 5.62004 293.525 5.48122 293.557 5.33636L293.741 4.54569C293.772 4.40686 293.918 4.31633 294.07 4.34651L295.248 4.60001C295.394 4.63019 295.489 4.76901 295.457 4.91386L295.273 5.70454C295.235 5.8494 295.09 5.93994 294.944 5.90372Z" fill="#585857"/>
<path d="M293.817 5.4331C293.798 5.42707 293.785 5.40896 293.791 5.39085L293.975 4.60018C293.981 4.58207 294 4.57 294.019 4.57603L295.197 4.82953C295.216 4.83557 295.229 4.85367 295.223 4.87178L295.039 5.66246C295.033 5.68057 295.014 5.69264 294.995 5.6866L293.817 5.4331Z" fill="#5E5E5D"/>
<path d="M297.104 6.3682L295.926 6.1147C295.78 6.08452 295.685 5.9457 295.717 5.80084L295.9 5.01016C295.932 4.87134 296.078 4.78081 296.23 4.81098L297.408 5.06448C297.553 5.09466 297.648 5.23348 297.617 5.37834L297.433 6.16902C297.395 6.31388 297.249 6.39838 297.104 6.3682Z" fill="#585857"/>
<path d="M295.976 5.89758C295.957 5.89154 295.944 5.87344 295.95 5.85533L296.134 5.06465C296.14 5.04654 296.159 5.03447 296.178 5.04051L297.356 5.29401C297.375 5.30005 297.388 5.31815 297.382 5.33626L297.198 6.12694C297.192 6.14505 297.173 6.15712 297.154 6.15108L295.976 5.89758Z" fill="#5E5E5D"/>
<path d="M299.263 6.83328L298.085 6.57979C297.939 6.54961 297.844 6.41079 297.876 6.26593L298.059 5.47525C298.091 5.33643 298.237 5.24589 298.389 5.27607L299.567 5.52957C299.712 5.55975 299.807 5.69857 299.776 5.84343L299.592 6.63411C299.554 6.77293 299.408 6.86346 299.263 6.83328Z" fill="#585857"/>
<path d="M298.135 6.3562C298.116 6.35017 298.104 6.33206 298.11 6.31395L298.294 5.52327C298.3 5.50516 298.319 5.49309 298.338 5.49913L299.516 5.75263C299.535 5.75867 299.548 5.77677 299.541 5.79488L299.358 6.58556C299.351 6.60366 299.332 6.61574 299.313 6.6097L298.135 6.3562Z" fill="#5E5E5D"/>
<path d="M301.423 7.29191L300.245 7.0384C300.099 7.00823 300.004 6.8694 300.036 6.72455L300.219 5.93387C300.251 5.79505 300.397 5.70451 300.549 5.73469L301.727 5.98819C301.872 6.01837 301.967 6.15719 301.936 6.30205L301.752 7.09273C301.714 7.23758 301.568 7.32812 301.423 7.29191Z" fill="#585857"/>
<path d="M300.295 6.82104C300.276 6.81501 300.264 6.7969 300.27 6.77879L300.454 5.98812C300.46 5.97001 300.479 5.95794 300.498 5.96397L301.676 6.21747C301.695 6.22351 301.708 6.24162 301.701 6.25972L301.518 7.0504C301.511 7.06851 301.492 7.08058 301.473 7.07454L300.295 6.82104Z" fill="#5E5E5D"/>
<path d="M303.582 7.75638L302.404 7.50288C302.259 7.4727 302.164 7.33388 302.195 7.18902L302.379 6.39835C302.411 6.25953 302.556 6.16899 302.708 6.19917L303.886 6.45267C304.032 6.48285 304.127 6.62167 304.095 6.76652L303.912 7.5572C303.874 7.70206 303.728 7.78656 303.582 7.75638Z" fill="#585857"/>
<path d="M302.455 7.28589C302.436 7.27985 302.424 7.26174 302.43 7.24364L302.614 6.45296C302.62 6.43485 302.639 6.42278 302.658 6.42882L303.836 6.68231C303.855 6.68835 303.868 6.70646 303.861 6.72456L303.678 7.51524C303.671 7.53335 303.652 7.54542 303.633 7.53939L302.455 7.28589Z" fill="#5E5E5D"/>
<path d="M305.735 8.22123L304.557 7.96773C304.412 7.93755 304.317 7.79873 304.348 7.65387L304.532 6.86319C304.564 6.72437 304.709 6.63383 304.861 6.66401L306.039 6.91751C306.185 6.94769 306.28 7.08651 306.248 7.23137L306.065 8.02205C306.033 8.16087 305.887 8.2514 305.735 8.22123Z" fill="#585857"/>
<path d="M304.615 7.74438C304.596 7.73835 304.583 7.72024 304.59 7.70213L304.773 6.91146C304.78 6.89335 304.799 6.88128 304.818 6.88731L305.996 7.14081C306.015 7.14685 306.027 7.16496 306.021 7.18306L305.837 7.97374C305.831 7.99185 305.812 8.00392 305.793 7.99788L304.615 7.74438Z" fill="#5E5E5D"/>
<path d="M274.31 1.76339L275.767 2.07725C275.931 2.11346 276.039 2.27039 276.001 2.43335L275.678 3.79742C275.64 3.95435 275.475 4.05696 275.304 4.02074L273.848 3.70689C273.683 3.67067 273.575 3.51374 273.613 3.35078L273.936 1.98671C273.974 1.82978 274.139 1.72717 274.31 1.76339Z" fill="#585857"/>
<path d="M273.905 3.48306C273.867 3.47703 273.842 3.43478 273.848 3.39856L274.171 2.03449C274.177 1.99828 274.222 1.97414 274.26 1.98017L275.716 2.29403C275.754 2.30006 275.78 2.34231 275.773 2.37853L275.45 3.7426C275.444 3.77881 275.4 3.80296 275.362 3.79692L273.905 3.48306Z" fill="#5E5E5D"/>
<path d="M276.799 2.29994L278.255 2.6138C278.42 2.65002 278.528 2.80694 278.49 2.96991L278.167 4.33398C278.129 4.49091 277.964 4.59351 277.793 4.5573L276.336 4.24344C276.172 4.20723 276.064 4.0503 276.102 3.88734L276.425 2.52326C276.463 2.3603 276.628 2.26373 276.799 2.29994Z" fill="#585857"/>
<path d="M276.394 4.02005C276.356 4.01401 276.33 3.97177 276.337 3.93555L276.66 2.57148C276.666 2.53527 276.71 2.51112 276.748 2.51716L278.205 2.83102C278.243 2.83705 278.268 2.8793 278.262 2.91552L277.939 4.27959C277.933 4.3158 277.888 4.33994 277.85 4.33391L276.394 4.02005Z" fill="#5E5E5D"/>
<path d="M279.289 2.83163L280.745 3.14548C280.91 3.1817 281.018 3.33862 280.98 3.50159L280.657 4.86566C280.619 5.02259 280.454 5.1252 280.283 5.08898L278.826 4.77512C278.662 4.73891 278.554 4.58198 278.592 4.41902L278.915 3.05495C278.953 2.89802 279.124 2.79541 279.289 2.83163Z" fill="#585857"/>
<path d="M278.883 4.55142C278.845 4.54539 278.82 4.50314 278.826 4.46693L279.149 3.10285C279.155 3.06664 279.2 3.0425 279.238 3.04853L280.694 3.36239C280.732 3.36842 280.758 3.41067 280.751 3.44689L280.428 4.81096C280.422 4.84718 280.378 4.87132 280.34 4.86528L278.883 4.55142Z" fill="#5E5E5D"/>
<path d="M281.777 3.36275L283.234 3.67661C283.399 3.71283 283.506 3.86975 283.468 4.03272L283.145 5.39679C283.107 5.55372 282.943 5.65632 282.772 5.62011L281.315 5.30625C281.15 5.27004 281.043 5.11311 281.081 4.95015L281.404 3.58608C281.442 3.42915 281.613 3.32654 281.777 3.36275Z" fill="#585857"/>
<path d="M281.372 5.08865C281.334 5.08262 281.309 5.04037 281.315 5.00415L281.638 3.64008C281.645 3.60387 281.689 3.57973 281.727 3.58576L283.183 3.89962C283.221 3.90565 283.247 3.94791 283.24 3.98412L282.917 5.34819C282.911 5.3844 282.867 5.40855 282.829 5.40251L281.372 5.08865Z" fill="#5E5E5D"/>
<path d="M284.266 3.8998L285.722 4.21365C285.887 4.24987 285.995 4.4068 285.957 4.56976L285.634 5.93383C285.596 6.09076 285.431 6.19337 285.26 6.15715L283.803 5.8433C283.639 5.80708 283.531 5.65015 283.569 5.48719L283.892 4.12312C283.936 3.96016 284.101 3.86358 284.266 3.8998Z" fill="#585857"/>
<path d="M283.861 5.61966C283.823 5.61363 283.797 5.57138 283.804 5.53516L284.127 4.17109C284.133 4.13488 284.177 4.11073 284.215 4.11677L285.672 4.43063C285.71 4.43666 285.735 4.47891 285.729 4.51513L285.406 5.8792C285.4 5.91541 285.355 5.93956 285.317 5.93352L283.861 5.61966Z" fill="#5E5E5D"/>
<path d="M286.755 4.43099L288.212 4.74485C288.376 4.78106 288.484 4.93799 288.446 5.10096L288.123 6.46503C288.085 6.62195 287.92 6.72456 287.749 6.68835L286.293 6.37449C286.128 6.33828 286.02 6.18135 286.058 6.01838L286.381 4.65431C286.426 4.49738 286.59 4.39478 286.755 4.43099Z" fill="#585857"/>
<path d="M286.349 6.1514C286.311 6.14536 286.286 6.10311 286.292 6.0669L286.615 4.70283C286.622 4.66661 286.666 4.64247 286.704 4.64851L288.161 4.96236C288.199 4.9684 288.224 5.01065 288.218 5.04686L287.895 6.41094C287.888 6.44715 287.844 6.47129 287.806 6.46526L286.349 6.1514Z" fill="#5E5E5D"/>
<path d="M289.244 4.96779L290.701 5.28165C290.866 5.31786 290.973 5.47479 290.935 5.63775L290.612 7.00183C290.574 7.15875 290.41 7.26136 290.239 7.22515L288.782 6.91129C288.617 6.87508 288.51 6.71815 288.548 6.55518L288.871 5.19111C288.915 5.02815 289.08 4.93158 289.244 4.96779Z" fill="#585857"/>
<path d="M288.838 6.68814C288.8 6.68211 288.775 6.63986 288.781 6.60364L289.104 5.23957C289.111 5.20336 289.155 5.17921 289.193 5.18525L290.65 5.49911C290.688 5.50514 290.713 5.54739 290.707 5.58361L290.384 6.94768C290.377 6.98389 290.333 7.00804 290.295 7.002L288.838 6.68814Z" fill="#5E5E5D"/>
<path d="M291.739 5.49947L293.196 5.81333C293.361 5.84954 293.468 6.00647 293.43 6.16944L293.107 7.53351C293.069 7.69044 292.905 7.79304 292.734 7.75683L291.277 7.44297C291.112 7.40676 291.005 7.24983 291.043 7.08687L291.366 5.72279C291.404 5.56586 291.568 5.46326 291.739 5.49947Z" fill="#585857"/>
<path d="M291.328 7.21951C291.29 7.21348 291.264 7.17123 291.271 7.13501L291.594 5.77094C291.6 5.73473 291.644 5.71059 291.682 5.71662L293.139 6.03048C293.177 6.03652 293.202 6.07877 293.196 6.11498L292.873 7.47905C292.867 7.51526 292.822 7.53941 292.784 7.53337L291.328 7.21951Z" fill="#5E5E5D"/>
<path d="M294.228 6.03023L295.685 6.34409C295.849 6.38031 295.957 6.53723 295.919 6.7002L295.596 8.06427C295.558 8.2212 295.393 8.3238 295.222 8.28759L293.766 7.97373C293.601 7.93752 293.493 7.78059 293.531 7.61763L293.854 6.25355C293.892 6.09663 294.057 5.99402 294.228 6.03023Z" fill="#585857"/>
<path d="M293.823 7.75626C293.785 7.75022 293.76 7.70797 293.766 7.67176L294.089 6.30769C294.095 6.27147 294.14 6.24733 294.178 6.25337L295.634 6.56722C295.672 6.57326 295.698 6.61551 295.691 6.65172L295.368 8.01579C295.362 8.05201 295.318 8.07615 295.28 8.07012L293.823 7.75626Z" fill="#5E5E5D"/>
<path d="M296.717 6.56777L298.174 6.88162C298.339 6.91784 298.446 7.07477 298.408 7.23773L298.085 8.6018C298.047 8.75873 297.883 8.86134 297.712 8.82512L296.255 8.51127C296.09 8.47505 295.983 8.31812 296.021 8.15516L296.344 6.79109C296.382 6.62812 296.546 6.53155 296.717 6.56777Z" fill="#585857"/>
<path d="M296.312 8.28799C296.274 8.28196 296.248 8.23971 296.255 8.2035L296.578 6.83943C296.584 6.80321 296.628 6.77907 296.666 6.7851L298.123 7.09896C298.161 7.105 298.186 7.14725 298.18 7.18346L297.857 8.54753C297.851 8.58374 297.806 8.60789 297.768 8.60185L296.312 8.28799Z" fill="#5E5E5D"/>
<path d="M299.206 7.09859L300.663 7.41245C300.828 7.44867 300.935 7.60559 300.897 7.76856L300.574 9.13263C300.536 9.28956 300.372 9.39216 300.201 9.35595L298.75 9.04209C298.586 9.00588 298.478 8.84895 298.516 8.68598L298.839 7.32191C298.871 7.16499 299.035 7.06238 299.206 7.09859Z" fill="#585857"/>
<path d="M298.801 8.819C298.763 8.81297 298.738 8.77072 298.744 8.7345L299.067 7.37043C299.073 7.33421 299.118 7.31007 299.156 7.31611L300.612 7.62996C300.65 7.636 300.676 7.67825 300.669 7.71447L300.34 9.07854C300.334 9.11475 300.289 9.13889 300.251 9.13286L298.801 8.819Z" fill="#5E5E5D"/>
<path d="M301.695 7.636L303.152 7.94986C303.316 7.98607 303.424 8.143 303.386 8.30597L303.063 9.67004C303.025 9.82697 302.86 9.92957 302.689 9.89336L301.233 9.5795C301.068 9.54329 300.96 9.38636 300.998 9.2234L301.321 7.85932C301.359 7.69636 301.53 7.59979 301.695 7.636Z" fill="#585857"/>
<path d="M301.29 9.35623C301.252 9.3502 301.227 9.30795 301.233 9.27173L301.556 7.90766C301.562 7.87145 301.607 7.84731 301.645 7.85334L303.101 8.1672C303.139 8.17323 303.165 8.21548 303.158 8.2517L302.835 9.61577C302.829 9.65198 302.785 9.67613 302.747 9.67009L301.29 9.35623Z" fill="#5E5E5D"/>
<path d="M304.184 8.16695L305.64 8.48081C305.805 8.51702 305.913 8.67395 305.875 8.83692L305.552 10.201C305.514 10.3579 305.349 10.4605 305.178 10.4243L303.721 10.1105C303.557 10.0742 303.449 9.91731 303.487 9.75434L303.816 8.39027C303.848 8.23335 304.019 8.13074 304.184 8.16695Z" fill="#585857"/>
<path d="M303.779 9.88748C303.741 9.88145 303.715 9.8392 303.722 9.80298L304.045 8.43891C304.051 8.4027 304.095 8.37856 304.133 8.38459L305.59 8.69845C305.628 8.70448 305.653 8.74673 305.647 8.78295L305.324 10.147C305.318 10.1832 305.273 10.2074 305.235 10.2013L303.779 9.88748Z" fill="#5E5E5D"/>
<path d="M273.784 3.97225L275.241 4.28611C275.405 4.32232 275.513 4.47925 275.475 4.64222L275.152 6.00629C275.114 6.16321 274.949 6.26582 274.778 6.22961L273.322 5.91575C273.157 5.87953 273.049 5.72261 273.087 5.55964L273.417 4.19557C273.455 4.03864 273.619 3.93604 273.784 3.97225Z" fill="#585857"/>
<path d="M273.379 5.69241C273.341 5.68638 273.316 5.64413 273.322 5.60791L273.645 4.24384C273.652 4.20763 273.696 4.18349 273.734 4.18952L275.191 4.50338C275.229 4.50941 275.254 4.55167 275.248 4.58788L274.925 5.95195C274.918 5.98816 274.874 6.01231 274.836 6.00627L273.379 5.69241Z" fill="#5E5E5D"/>
<path d="M276.28 4.50917L277.737 4.82303C277.902 4.85924 278.009 5.01617 277.971 5.17914L277.648 6.54321C277.61 6.70013 277.446 6.80274 277.275 6.76653L275.818 6.45267C275.653 6.41646 275.546 6.25953 275.584 6.09656L275.907 4.73249C275.945 4.56953 276.109 4.47296 276.28 4.50917Z" fill="#585857"/>
<path d="M275.869 6.22952C275.831 6.22349 275.805 6.18124 275.812 6.14502L276.135 4.78095C276.141 4.74474 276.185 4.7206 276.223 4.72663L277.68 5.04049C277.718 5.04653 277.743 5.08877 277.737 5.12499L277.414 6.48906C277.407 6.52527 277.363 6.54942 277.325 6.54338L275.869 6.22952Z" fill="#5E5E5D"/>
<path d="M278.769 5.04049L280.225 5.35435C280.39 5.39056 280.498 5.54749 280.46 5.71045L280.137 7.07452C280.099 7.23145 279.934 7.33406 279.763 7.29784L278.306 6.98399C278.142 6.94777 278.034 6.79084 278.072 6.62788L278.395 5.26381C278.433 5.10688 278.598 5.00427 278.769 5.04049Z" fill="#585857"/>
<path d="M278.364 6.76078C278.326 6.75474 278.3 6.71249 278.307 6.67628L278.63 5.3122C278.636 5.27599 278.68 5.25185 278.718 5.25788L280.175 5.57174C280.213 5.57778 280.238 5.62003 280.232 5.65624L279.909 7.02031C279.903 7.05653 279.858 7.08067 279.82 7.07463L278.364 6.76078Z" fill="#5E5E5D"/>
<path d="M281.257 5.57186L282.714 5.88572C282.878 5.92193 282.986 6.07886 282.948 6.24182L282.625 7.6059C282.587 7.76282 282.422 7.86543 282.251 7.82922L280.795 7.51536C280.63 7.47915 280.522 7.32222 280.56 7.15925L280.883 5.79518C280.921 5.63825 281.086 5.53565 281.257 5.57186Z" fill="#585857"/>
<path d="M280.852 7.29178C280.814 7.28575 280.789 7.2435 280.795 7.20728L281.118 5.84321C281.124 5.807 281.169 5.78285 281.207 5.78889L282.663 6.10275C282.701 6.10878 282.727 6.15103 282.72 6.18725L282.397 7.55132C282.391 7.58753 282.347 7.61167 282.309 7.60564L280.852 7.29178Z" fill="#5E5E5D"/>
<path d="M283.747 6.10878L285.204 6.42264C285.369 6.45885 285.476 6.61578 285.438 6.77874L285.115 8.14282C285.077 8.29974 284.913 8.40235 284.742 8.36614L283.285 8.05228C283.12 8.01606 283.013 7.85914 283.051 7.69617L283.374 6.3321C283.412 6.16914 283.583 6.07257 283.747 6.10878Z" fill="#585857"/>
<path d="M283.341 7.82901C283.303 7.82298 283.278 7.78073 283.284 7.74451L283.607 6.38044C283.614 6.34423 283.658 6.32008 283.696 6.32612L285.153 6.63998C285.191 6.64601 285.216 6.68826 285.21 6.72448L284.887 8.08855C284.88 8.12476 284.836 8.14891 284.798 8.14287L283.341 7.82901Z" fill="#5E5E5D"/>
<path d="M286.236 6.63973L287.692 6.95359C287.857 6.9898 287.965 7.14673 287.927 7.3097L287.604 8.67377C287.566 8.8307 287.401 8.9333 287.23 8.89709L285.773 8.58323C285.609 8.54702 285.501 8.39009 285.539 8.22712L285.862 6.86305C285.9 6.70613 286.071 6.60352 286.236 6.63973Z" fill="#585857"/>
<path d="M285.831 8.36014C285.793 8.35411 285.768 8.31185 285.774 8.27564L286.097 6.91157C286.103 6.87535 286.148 6.85121 286.186 6.85725L287.642 7.1711C287.68 7.17714 287.706 7.21939 287.699 7.2556L287.376 8.61968C287.37 8.65589 287.326 8.68003 287.288 8.674L285.831 8.36014Z" fill="#5E5E5D"/>
<path d="M288.724 7.17726L290.181 7.49112C290.346 7.52733 290.453 7.68426 290.415 7.84723L290.092 9.2113C290.054 9.36823 289.89 9.47083 289.719 9.43462L288.262 9.12076C288.097 9.08455 287.99 8.92762 288.028 8.76466L288.351 7.40059C288.395 7.23762 288.56 7.14105 288.724 7.17726Z" fill="#585857"/>
<path d="M288.319 8.89749C288.281 8.89146 288.256 8.84921 288.262 8.81299L288.585 7.44892C288.592 7.41271 288.636 7.38857 288.674 7.3946L290.131 7.70846C290.169 7.71449 290.194 7.75674 290.188 7.79296L289.865 9.15703C289.858 9.19324 289.814 9.21739 289.776 9.21135L288.319 8.89749Z" fill="#5E5E5D"/>
<path d="M291.214 7.70785L292.67 8.0217C292.835 8.05792 292.943 8.21485 292.905 8.37781L292.582 9.74188C292.544 9.89881 292.379 10.0014 292.208 9.9652L290.751 9.65135C290.587 9.61513 290.479 9.4582 290.517 9.29524L290.84 7.93117C290.884 7.77424 291.049 7.67163 291.214 7.70785Z" fill="#585857"/>
<path d="M290.808 9.4285C290.77 9.42246 290.744 9.38021 290.751 9.344L291.074 7.97993C291.08 7.94371 291.124 7.91957 291.162 7.92561L292.619 8.23946C292.657 8.2455 292.682 8.28775 292.676 8.32396L292.353 9.68803C292.347 9.72425 292.302 9.74839 292.264 9.74235L290.808 9.4285Z" fill="#5E5E5D"/>
<path d="M293.703 8.23958L295.159 8.55344C295.324 8.58966 295.432 8.74659 295.394 8.90955L295.071 10.2736C295.033 10.4305 294.868 10.5332 294.697 10.4969L293.241 10.1831C293.076 10.1469 292.968 9.98994 293.006 9.82698L293.329 8.46291C293.374 8.30598 293.538 8.20337 293.703 8.23958Z" fill="#585857"/>
<path d="M293.297 9.95975C293.259 9.95371 293.234 9.91146 293.24 9.87525L293.563 8.51118C293.569 8.47496 293.614 8.45082 293.652 8.45686L295.108 8.77071C295.146 8.77675 295.172 8.819 295.165 8.85521L294.842 10.2193C294.836 10.2555 294.792 10.2796 294.754 10.2736L293.297 9.95975Z" fill="#5E5E5D"/>
<path d="M296.191 8.77651L297.648 9.09036C297.813 9.12658 297.92 9.28351 297.882 9.44647L297.559 10.8105C297.521 10.9675 297.357 11.0701 297.186 11.0339L295.729 10.72C295.564 10.6838 295.457 10.5269 295.495 10.3639L295.818 8.99983C295.862 8.83686 296.027 8.74029 296.191 8.77651Z" fill="#585857"/>
<path d="M295.786 10.497C295.748 10.4909 295.723 10.4487 295.729 10.4125L296.052 9.04841C296.059 9.0122 296.103 8.98805 296.141 8.99409L297.598 9.30795C297.636 9.31398 297.661 9.35623 297.655 9.39245L297.332 10.7565C297.325 10.7927 297.281 10.8169 297.243 10.8108L295.786 10.497Z" fill="#5E5E5D"/>
<path d="M298.686 9.3077L300.143 9.62156C300.308 9.65777 300.415 9.8147 300.377 9.97766L300.054 11.3417C300.016 11.4987 299.852 11.6013 299.681 11.5651L298.224 11.2512C298.059 11.215 297.952 11.0581 297.99 10.8951L298.313 9.53102C298.351 9.37409 298.515 9.27149 298.686 9.3077Z" fill="#585857"/>
<path d="M298.275 11.0279C298.237 11.0218 298.211 10.9796 298.218 10.9434L298.541 9.57929C298.547 9.54308 298.591 9.51894 298.629 9.52497L300.086 9.83883C300.124 9.84486 300.149 9.88711 300.143 9.92333L299.82 11.2874C299.814 11.3236 299.769 11.3478 299.731 11.3417L298.275 11.0279Z" fill="#5E5E5D"/>
<path d="M301.176 9.84499L302.633 10.1588C302.797 10.1951 302.905 10.352 302.867 10.515L302.544 11.879C302.506 12.0359 302.341 12.1386 302.17 12.1023L300.714 11.7885C300.549 11.7523 300.441 11.5953 300.479 11.4324L300.802 10.0683C300.84 9.90534 301.005 9.80877 301.176 9.84499Z" fill="#585857"/>
<path d="M300.771 11.5651C300.733 11.5591 300.708 11.5168 300.714 11.4806L301.037 10.1165C301.043 10.0803 301.088 10.0562 301.126 10.0622L302.582 10.3761C302.62 10.3821 302.645 10.4243 302.639 10.4606L302.316 11.8246C302.31 11.8608 302.266 11.885 302.228 11.879L300.771 11.5651Z" fill="#5E5E5D"/>
<path d="M303.665 10.3763L305.122 10.6902C305.287 10.7264 305.394 10.8833 305.356 11.0463L305.033 12.4103C304.995 12.5673 304.831 12.6699 304.66 12.6337L303.203 12.3198C303.038 12.2836 302.931 12.1267 302.969 11.9637L303.292 10.5996C303.33 10.4427 303.494 10.3401 303.665 10.3763Z" fill="#585857"/>
<path d="M303.259 12.0963C303.221 12.0903 303.196 12.0481 303.202 12.0118L303.525 10.6478C303.532 10.6116 303.576 10.5874 303.614 10.5935L305.071 10.9073C305.109 10.9133 305.134 10.9556 305.128 10.9918L304.805 12.3559C304.798 12.3921 304.754 12.4162 304.716 12.4102L303.259 12.0963Z" fill="#5E5E5D"/>
<path d="M273.266 6.18111L274.722 6.49497C274.887 6.53118 274.995 6.68811 274.957 6.85108L274.634 8.21515C274.596 8.37208 274.431 8.47468 274.26 8.43847L272.803 8.12461C272.639 8.0884 272.531 7.93147 272.569 7.76851L272.892 6.40443C272.936 6.24751 273.101 6.1449 273.266 6.18111Z" fill="#585857"/>
<path d="M272.86 7.90115C272.822 7.89512 272.797 7.85287 272.803 7.81665L273.126 6.45258C273.132 6.41637 273.177 6.39223 273.215 6.39826L274.671 6.71212C274.709 6.71816 274.735 6.76041 274.728 6.79662L274.405 8.16069C274.399 8.1969 274.355 8.22105 274.317 8.21501L272.86 7.90115Z" fill="#5E5E5D"/>
<path d="M275.754 6.71217L277.211 7.02603C277.376 7.06224 277.483 7.21917 277.445 7.38213L277.122 8.74621C277.084 8.90313 276.92 9.00574 276.749 8.96953L275.292 8.65567C275.127 8.61946 275.02 8.46253 275.058 8.29956L275.381 6.93549C275.425 6.77856 275.59 6.68199 275.754 6.71217Z" fill="#585857"/>
<path d="M275.349 8.43887C275.311 8.43284 275.286 8.39059 275.292 8.35437L275.615 6.9903C275.622 6.95409 275.666 6.92995 275.704 6.93598L277.161 7.24984C277.199 7.25588 277.224 7.29813 277.218 7.33434L276.895 8.69841C276.888 8.73462 276.844 8.75877 276.806 8.75273L275.349 8.43887Z" fill="#5E5E5D"/>
<path d="M278.243 7.24947L279.699 7.56333C279.864 7.59954 279.972 7.75647 279.934 7.91944L279.611 9.28351C279.573 9.44044 279.408 9.54304 279.237 9.50683L277.78 9.19297C277.616 9.15676 277.508 8.99983 277.546 8.83686L277.869 7.47279C277.913 7.31586 278.078 7.21326 278.243 7.24947Z" fill="#585857"/>
<path d="M277.838 8.96964C277.8 8.9636 277.774 8.92135 277.781 8.88514L278.104 7.52106C278.11 7.48485 278.154 7.46071 278.192 7.46674L279.649 7.7806C279.687 7.78664 279.712 7.82889 279.706 7.8651L279.383 9.22917C279.377 9.26539 279.332 9.28953 279.294 9.28349L277.838 8.96964Z" fill="#5E5E5D"/>
<path d="M280.739 7.7806L282.195 8.09446C282.36 8.13067 282.468 8.2876 282.43 8.45056L282.107 9.81464C282.069 9.97157 281.904 10.0742 281.733 10.038L280.276 9.7241C280.112 9.68789 280.004 9.53096 280.042 9.36799L280.365 8.00392C280.403 7.84699 280.568 7.74439 280.739 7.7806Z" fill="#585857"/>
<path d="M280.327 9.50077C280.289 9.49473 280.264 9.45248 280.27 9.41627L280.593 8.05219C280.599 8.01598 280.644 7.99184 280.682 7.99787L282.138 8.31173C282.176 8.31777 282.202 8.36002 282.195 8.39623L281.872 9.7603C281.866 9.79652 281.822 9.82066 281.784 9.81462L280.327 9.50077Z" fill="#5E5E5D"/>
<path d="M283.227 8.31813L284.684 8.63199C284.849 8.6682 284.956 8.82513 284.918 8.98809L284.595 10.3522C284.557 10.5091 284.393 10.6117 284.222 10.5755L282.765 10.2616C282.6 10.2254 282.493 10.0685 282.531 9.90552L282.854 8.54145C282.892 8.37849 283.056 8.28192 283.227 8.31813Z" fill="#585857"/>
<path d="M282.822 10.0379C282.784 10.0318 282.759 9.98959 282.765 9.95338L283.088 8.5893C283.095 8.55309 283.139 8.52895 283.177 8.53498L284.634 8.84884C284.672 8.85487 284.697 8.89712 284.691 8.93334L284.368 10.2974C284.361 10.3336 284.317 10.3578 284.279 10.3517L282.822 10.0379Z" fill="#5E5E5D"/>
<path d="M285.717 8.84896L287.173 9.16282C287.338 9.19903 287.445 9.35596 287.407 9.51892L287.084 10.883C287.046 11.0399 286.882 11.1425 286.711 11.1063L285.254 10.7925C285.09 10.7562 284.982 10.5993 285.02 10.4364L285.343 9.07228C285.381 8.91535 285.546 8.81275 285.717 8.84896Z" fill="#585857"/>
<path d="M285.311 10.5691C285.273 10.5631 285.248 10.5208 285.254 10.4846L285.577 9.12055C285.583 9.08434 285.628 9.0602 285.666 9.06623L287.122 9.38009C287.16 9.38612 287.186 9.42837 287.179 9.46459L286.856 10.8287C286.85 10.8649 286.806 10.889 286.768 10.883L285.311 10.5691Z" fill="#5E5E5D"/>
<path d="M288.206 9.3799L289.663 9.69375C289.827 9.72997 289.935 9.8869 289.897 10.0499L289.574 11.4139C289.536 11.5709 289.371 11.6735 289.2 11.6373L287.744 11.3234C287.579 11.2872 287.471 11.1303 287.509 10.9673L287.832 9.60322C287.87 9.44629 288.035 9.34972 288.206 9.3799Z" fill="#585857"/>
<path d="M287.8 11.1062C287.762 11.1002 287.737 11.0579 287.743 11.0217L288.066 9.65766C288.072 9.62145 288.117 9.59731 288.155 9.60334L289.611 9.9172C289.649 9.92323 289.675 9.96548 289.668 10.0017L289.345 11.3658C289.339 11.402 289.295 11.4261 289.257 11.4201L287.8 11.1062Z" fill="#5E5E5D"/>
<path d="M290.694 9.91713L292.151 10.231C292.316 10.2672 292.423 10.4241 292.385 10.5871L292.062 11.9512C292.024 12.1081 291.86 12.2107 291.689 12.1745L290.232 11.8606C290.067 11.8244 289.96 11.6675 289.998 11.5045L290.321 10.1405C290.359 9.97749 290.53 9.88092 290.694 9.91713Z" fill="#585857"/>
<path d="M290.289 11.6374C290.251 11.6313 290.226 11.5891 290.232 11.5529L290.555 10.1888C290.562 10.1526 290.606 10.1284 290.644 10.1345L292.101 10.4483C292.139 10.4544 292.164 10.4966 292.158 10.5328L291.835 11.8969C291.828 11.9331 291.784 11.9573 291.746 11.9512L290.289 11.6374Z" fill="#5E5E5D"/>
<path d="M293.183 10.4486L294.639 10.7624C294.804 10.7986 294.912 10.9556 294.874 11.1185L294.551 12.4826C294.513 12.6395 294.348 12.7421 294.177 12.7059L292.72 12.3921C292.556 12.3559 292.448 12.1989 292.486 12.036L292.809 10.6719C292.847 10.515 293.018 10.4124 293.183 10.4486Z" fill="#585857"/>
<path d="M292.778 12.1685C292.74 12.1625 292.715 12.1202 292.721 12.084L293.044 10.7199C293.05 10.6837 293.095 10.6596 293.133 10.6656L294.589 10.9795C294.627 10.9855 294.653 11.0277 294.646 11.064L294.317 12.428C294.311 12.4642 294.266 12.4884 294.228 12.4823L292.778 12.1685Z" fill="#5E5E5D"/>
<path d="M295.672 10.9856L297.129 11.2995C297.293 11.3357 297.401 11.4926 297.363 11.6556L297.04 13.0196C297.002 13.1766 296.837 13.2792 296.666 13.243L295.21 12.9291C295.045 12.8929 294.937 12.736 294.975 12.573L295.298 11.2089C295.343 11.046 295.507 10.9494 295.672 10.9856Z" fill="#585857"/>
<path d="M295.266 12.7057C295.228 12.6997 295.203 12.6635 295.209 12.6212L295.532 11.2572C295.539 11.2209 295.583 11.1968 295.621 11.2028L297.078 11.5167C297.116 11.5227 297.141 11.565 297.135 11.6012L296.812 12.9653C296.805 13.0015 296.761 13.0256 296.723 13.0196L295.266 12.7057Z" fill="#5E5E5D"/>
<path d="M298.161 11.5167L299.618 11.8305C299.783 11.8668 299.89 12.0237 299.852 12.1866L299.529 13.5507C299.491 13.7076 299.327 13.8103 299.156 13.774L297.699 13.4602C297.534 13.424 297.427 13.267 297.465 13.1041L297.788 11.74C297.832 11.5831 297.997 11.4805 298.161 11.5167Z" fill="#585857"/>
<path d="M297.756 13.2367C297.718 13.2307 297.692 13.1884 297.699 13.1522L298.022 11.7882C298.028 11.7519 298.072 11.7278 298.11 11.7338L299.567 12.0477C299.605 12.0537 299.63 12.096 299.624 12.1322L299.301 13.4963C299.295 13.5325 299.25 13.5566 299.212 13.5506L297.756 13.2367Z" fill="#5E5E5D"/>
<path d="M300.65 12.0479L302.106 12.3618C302.271 12.398 302.379 12.5549 302.341 12.7179L302.018 14.082C301.98 14.2389 301.815 14.3415 301.644 14.3053L300.188 13.9914C300.023 13.9552 299.915 13.7983 299.953 13.6353L300.276 12.2713C300.321 12.1143 300.485 12.0117 300.65 12.0479Z" fill="#585857"/>
<path d="M300.245 13.774C300.207 13.7679 300.182 13.7257 300.188 13.6895L300.511 12.3254C300.517 12.2892 300.562 12.265 300.6 12.2711L302.056 12.5849C302.094 12.591 302.12 12.6332 302.113 12.6694L301.79 14.0275C301.784 14.0637 301.74 14.0878 301.702 14.0818L300.245 13.774Z" fill="#5E5E5D"/>
<path d="M303.145 12.585L304.602 12.8988C304.767 12.935 304.874 13.092 304.836 13.2549L304.513 14.619C304.475 14.7759 304.311 14.8785 304.14 14.8423L302.683 14.5285C302.518 14.4923 302.411 14.3353 302.449 14.1724L302.772 12.8083C302.81 12.6453 302.974 12.5488 303.145 12.585Z" fill="#585857"/>
<path d="M302.734 14.3053C302.696 14.2993 302.67 14.257 302.677 14.2208L303 12.8568C303.006 12.8205 303.05 12.7964 303.088 12.8024L304.545 13.1163C304.583 13.1223 304.608 13.1646 304.602 13.2008L304.279 14.5649C304.272 14.6011 304.228 14.6252 304.19 14.6192L302.734 14.3053Z" fill="#5E5E5D"/>
<path d="M272.746 8.39046L274.202 8.70432C274.367 8.74054 274.475 8.89746 274.437 9.06043L274.114 10.4245C274.076 10.5814 273.911 10.684 273.74 10.6478L272.283 10.334C272.119 10.2977 272.011 10.1408 272.049 9.97786L272.372 8.61378C272.41 8.45686 272.581 8.35425 272.746 8.39046Z" fill="#585857"/>
<path d="M272.341 10.1105C272.303 10.1045 272.277 10.0622 272.284 10.026L272.607 8.66194C272.613 8.62572 272.657 8.60158 272.695 8.60761L274.152 8.92147C274.19 8.92751 274.215 8.96976 274.209 9.00597L273.886 10.37C273.88 10.4063 273.835 10.4304 273.797 10.4244L272.341 10.1105Z" fill="#5E5E5D"/>
<path d="M275.235 8.92159L276.692 9.23545C276.856 9.27166 276.964 9.42859 276.926 9.59155L276.603 10.9556C276.565 11.1126 276.4 11.2152 276.229 11.1789L274.773 10.8651C274.608 10.8289 274.5 10.6719 274.538 10.509L274.861 9.14491C274.899 8.98798 275.07 8.88538 275.235 8.92159Z" fill="#585857"/>
<path d="M274.83 10.6418C274.792 10.6357 274.767 10.5935 274.773 10.5573L275.096 9.19319C275.103 9.15697 275.147 9.13283 275.185 9.13886L276.641 9.45272C276.679 9.45876 276.705 9.50101 276.698 9.53722L276.375 10.9013C276.369 10.9375 276.325 10.9616 276.287 10.9556L274.83 10.6418Z" fill="#5E5E5D"/>
<path d="M277.724 9.45876L279.181 9.77261C279.346 9.80883 279.453 9.96576 279.415 10.1287L279.092 11.4928C279.054 11.6497 278.89 11.7523 278.719 11.7161L277.262 11.4023C277.097 11.366 276.99 11.2091 277.028 11.0461L277.357 9.68208C277.395 9.51911 277.56 9.42254 277.724 9.45876Z" fill="#585857"/>
<path d="M277.318 11.1786C277.28 11.1726 277.255 11.1303 277.261 11.0941L277.584 9.73005C277.591 9.69384 277.635 9.66969 277.673 9.67573L279.13 9.98958C279.168 9.99562 279.193 10.0379 279.187 10.0741L278.864 11.4382C278.857 11.4744 278.813 11.4985 278.775 11.4925L277.318 11.1786Z" fill="#5E5E5D"/>
<path d="M280.213 9.98995L281.669 10.3038C281.834 10.34 281.942 10.497 281.904 10.6599L281.581 12.024C281.543 12.1809 281.378 12.2835 281.207 12.2473L279.751 11.9335C279.586 11.8972 279.478 11.7403 279.516 11.5773L279.839 10.2133C279.884 10.0563 280.048 9.95374 280.213 9.98995Z" fill="#585857"/>
<path d="M279.808 11.71C279.77 11.704 279.745 11.6617 279.751 11.6255L280.074 10.2614C280.08 10.2252 280.125 10.2011 280.163 10.2071L281.619 10.521C281.657 10.527 281.683 10.5692 281.676 10.6055L281.353 11.9695C281.347 12.0057 281.303 12.0299 281.265 12.0239L279.808 11.71Z" fill="#5E5E5D"/>
<path d="M291.625 12.4344L282.689 10.521C282.524 10.4848 282.366 10.5814 282.328 10.7383L281.979 12.205C281.954 12.3136 282.024 12.4223 282.138 12.4464L291.156 14.3778C291.321 14.4141 291.492 14.3115 291.53 14.1545L291.853 12.7905C291.897 12.6335 291.796 12.4706 291.625 12.4344Z" fill="#585857"/>
<path d="M282.227 12.2289L282.569 10.7864C282.575 10.7562 282.613 10.7321 282.645 10.7441L291.581 12.6575C291.619 12.6635 291.644 12.7057 291.638 12.742L291.315 14.106C291.308 14.1422 291.264 14.1664 291.226 14.1604L282.227 12.2289Z" fill="#5E5E5D"/>
<path d="M292.665 12.6578L294.121 12.9717C294.286 13.0079 294.393 13.1648 294.355 13.3278L294.032 14.6918C293.994 14.8488 293.83 14.9514 293.659 14.9152L292.202 14.6013C292.038 14.5651 291.93 14.4082 291.968 14.2452L292.291 12.8811C292.329 12.7242 292.494 12.6216 292.665 12.6578Z" fill="#585857"/>
<path d="M292.259 14.3778C292.221 14.3718 292.195 14.3296 292.202 14.2933L292.525 12.9293C292.531 12.8931 292.575 12.8689 292.613 12.8749L294.07 13.1888C294.108 13.1948 294.133 13.2371 294.127 13.2733L293.804 14.6374C293.798 14.6736 293.753 14.6977 293.715 14.6917L292.259 14.3778Z" fill="#5E5E5D"/>
<path d="M295.153 13.195L296.61 13.5088C296.774 13.545 296.882 13.702 296.844 13.8649L296.521 15.229C296.483 15.3859 296.318 15.4885 296.147 15.4523L294.691 15.1385C294.526 15.1022 294.418 14.9453 294.456 14.7824L294.779 13.4183C294.817 13.2553 294.988 13.1587 295.153 13.195Z" fill="#585857"/>
<path d="M294.748 14.9151C294.71 14.909 294.685 14.8668 294.691 14.8306L295.014 13.4665C295.02 13.4303 295.065 13.4061 295.103 13.4122L296.559 13.726C296.597 13.7321 296.623 13.7743 296.616 13.8105L296.293 15.1746C296.287 15.2108 296.243 15.235 296.205 15.2289L294.748 14.9151Z" fill="#5E5E5D"/>
<path d="M297.641 13.726L299.098 14.0399C299.263 14.0761 299.37 14.233 299.332 14.396L299.009 15.7601C298.971 15.917 298.807 16.0196 298.636 15.9834L297.179 15.6695C297.014 15.6333 296.907 15.4764 296.945 15.3134L297.268 13.9494C297.306 13.7924 297.477 13.6898 297.641 13.726Z" fill="#585857"/>
<path d="M297.236 15.4462C297.198 15.4402 297.173 15.3979 297.179 15.3617L297.502 13.9976C297.509 13.9614 297.553 13.9373 297.591 13.9433L299.048 14.2572C299.086 14.2632 299.111 14.3054 299.105 14.3417L298.782 15.7057C298.775 15.7419 298.737 15.7661 298.693 15.7601L297.236 15.4462Z" fill="#5E5E5D"/>
<path d="M300.131 14.2569L301.587 14.5708C301.752 14.607 301.86 14.7639 301.822 14.9269L301.499 16.291C301.461 16.4479 301.296 16.5505 301.125 16.5143L299.668 16.2004C299.504 16.1642 299.396 16.0073 299.434 15.8443L299.757 14.4802C299.801 14.3233 299.966 14.2207 300.131 14.2569Z" fill="#585857"/>
<path d="M299.725 15.9773C299.687 15.9713 299.662 15.929 299.668 15.8928L299.991 14.5288C299.997 14.4925 300.042 14.4684 300.08 14.4744L301.536 14.7883C301.574 14.7943 301.6 14.8366 301.593 14.8728L301.27 16.2369C301.264 16.2731 301.22 16.2972 301.182 16.2912L299.725 15.9773Z" fill="#5E5E5D"/>
<path d="M302.62 14.7943L304.077 15.1082C304.241 15.1444 304.349 15.3013 304.311 15.4643L303.988 16.8284C303.95 16.9853 303.785 17.0879 303.614 17.0517L302.158 16.7378C301.993 16.7016 301.885 16.5447 301.923 16.3817L302.246 15.0176C302.291 14.8547 302.455 14.7581 302.62 14.7943Z" fill="#585857"/>
<path d="M302.215 16.5146C302.177 16.5085 302.152 16.4663 302.158 16.4301L302.481 15.066C302.488 15.0298 302.532 15.0056 302.57 15.0117L304.026 15.3255C304.064 15.3316 304.09 15.3738 304.083 15.41L303.761 16.7741C303.754 16.8103 303.71 16.8344 303.672 16.8284L302.215 16.5146Z" fill="#5E5E5D"/>
<path d="M291.175 16.2848L283.867 14.7215C283.538 14.6491 283.208 14.8483 283.139 15.1622L282.258 18.8862C282.182 19.2 282.391 19.5139 282.721 19.5803L290.029 21.1435C290.358 21.216 290.688 21.0168 290.757 20.7029L291.638 16.9789C291.714 16.665 291.505 16.3572 291.175 16.2848Z" fill="#EDEDED"/>
<path d="M291.232 16.0615L283.924 14.4982C283.468 14.4017 283.012 14.6733 282.911 15.1079L282.03 18.8319C281.929 19.2665 282.214 19.701 282.67 19.7976L289.978 21.3609C290.434 21.4574 290.89 21.1858 290.992 20.7512L291.872 17.0272C291.973 16.5926 291.688 16.1641 291.232 16.0615ZM290.764 20.703C290.688 21.0168 290.365 21.216 290.035 21.1436L282.727 19.5803C282.398 19.5079 282.189 19.2001 282.265 18.8862L283.145 15.1622C283.221 14.8483 283.544 14.6491 283.873 14.7216L291.182 16.2848C291.511 16.3572 291.72 16.6651 291.644 16.9789L290.764 20.703Z" fill="#9D9B9B"/>
<path d="M282.696 17.0513L282.265 18.8861C282.189 19.2 282.398 19.5138 282.727 19.5802L290.036 21.1435C290.365 21.2159 290.694 21.0167 290.764 20.7029L291.195 18.868L282.696 17.0513Z" fill="#DFDFDE"/>
<path d="M286.913 17.9511L282.696 17.0458L282.265 18.8806C282.189 19.1945 282.398 19.5083 282.727 19.5747L286.35 20.3533L286.913 17.9511Z" fill="#D9D9DA"/>
<path d="M308.713 5.59573L272.829 -2.09377C272.62 -2.14205 272.474 -2.32916 272.493 -2.53438L276.248 -22.1022C276.299 -22.6393 276.831 -23.0075 277.382 -22.8868L313.931 -15.0524C314.482 -14.9317 314.799 -14.3825 314.602 -13.8755L309.213 5.33619C309.137 5.52933 308.928 5.64401 308.713 5.59573Z" fill="#E3E1E1"/>
<path d="M274.057 -3.97103L277.522 -20.4908C277.572 -20.9978 278.073 -21.3478 278.592 -21.2332L312.088 -14.0567C312.608 -13.9481 312.905 -13.423 312.722 -12.9461L308.44 3.39254C308.288 3.7909 307.851 4.01422 307.414 3.92368L274.748 -3.07774C274.311 -3.16828 274.019 -3.55457 274.057 -3.97103Z" fill="#C7C7C6"/>
<path d="M274.298 -3.94692L277.762 -20.4787C277.8 -20.8469 278.161 -21.1004 278.541 -21.0159L312.05 -13.8334C312.424 -13.755 312.645 -13.3747 312.512 -13.0307L308.218 3.32007C308.111 3.60979 307.794 3.77275 307.477 3.70636L274.792 -3.3011C274.481 -3.36749 274.266 -3.64514 274.298 -3.94692Z" fill="#C6E6F2"/>
<path d="M303.513 4.48492L277.977 -0.989474L277.99 -1.3999L303.734 4.11674L303.513 4.48492Z" fill="#585857"/>
</g>
<path d="M67.9887 117.577C66.2857 110.716 59.0868 106.485 51.9266 108.114C44.7568 109.744 40.3349 116.632 42.0379 123.484C43.2377 128.299 47.1467 131.817 51.8492 132.919C52.1202 133.604 52.6233 137.761 53.5232 139.095C53.9296 139.697 54.4424 139.798 55.2261 139.641C55.8551 141.78 58.4869 143.743 60.6543 143.548C62.1734 143.409 63.2765 142.409 63.77 141.067C64.157 140.021 64.4666 138.817 64.6601 137.65C65.7051 137.623 66.2083 137.521 66.1599 136.586C66.0728 134.965 64.2344 130.502 64.1667 129.817C67.5049 126.79 69.1304 122.179 67.9887 117.577Z" fill="#FDFFFC"/>
<path d="M61.0511 117.114C60.8479 116.42 60.1319 115.957 59.3771 116.133C58.6708 116.29 58.1386 117.04 58.3515 117.734C58.4773 118.16 58.8063 118.503 59.203 118.66C58.9127 120.457 58.545 122.225 58.3902 124.04C58.2451 125.725 58.0999 127.373 57.7129 129.012C55.6132 126.003 53.5232 123.003 51.2107 120.142C51.8493 119.559 51.3655 118.253 50.2915 118.494C49.0239 118.781 49.4884 120.67 50.7656 120.383C50.7753 120.383 50.7849 120.373 50.7946 120.364C53.1942 123.614 55.5455 126.91 57.5 130.429C57.7129 130.808 58.2934 130.725 58.4289 130.336C59.0675 128.521 59.2514 126.669 59.3868 124.771C59.5416 122.725 59.9577 120.716 60.1319 118.679C60.7802 118.475 61.2446 117.772 61.0511 117.114Z" fill="#D4A561"/>
<path d="M44.9398 105.929C42.2402 104.651 39.531 103.364 36.8314 102.077C36.2702 101.818 35.7573 102.587 36.3186 102.874C38.9504 104.263 41.5919 105.642 44.2238 107.031C44.9978 107.438 45.7139 106.3 44.9398 105.929Z" fill="#D4A561"/>
<path d="M50.0202 96.1148C49.7977 95.6426 49.1591 95.9852 49.2074 96.4111C49.5364 99.0777 50.5717 101.8 51.3845 104.374C51.5877 105.003 52.6037 104.79 52.4392 104.133C51.7716 101.485 51.191 98.6055 50.0202 96.1148Z" fill="#D4A561"/>
<path d="M62.5992 95.3371C61.9025 95.9204 61.4768 96.8463 61.0413 97.6241C60.5866 98.4389 60.1802 99.2722 59.7931 100.115C59.4835 100.8 60.6737 101.161 60.9736 100.457C61.3316 99.5962 61.7187 98.7629 62.1637 97.9389C62.5411 97.226 63.0926 96.5315 63.3152 95.763C63.441 95.3464 62.9185 95.0594 62.5992 95.3371Z" fill="#D4A561"/>
</g>
<defs>
<clipPath id="clip0_1607_2744">
<rect width="26.5821" height="30.7619" fill="white" transform="translate(290.504 44.0425)"/>
</clipPath>
<clipPath id="clip1_1607_2744">
<rect width="131.012" height="21.7143" fill="white" transform="translate(108.227 212.328)"/>
</clipPath>
<clipPath id="clip2_1607_2744">
<rect width="60.759" height="47.0476" fill="white" transform="translate(262.023 105.566)"/>
</clipPath>
<clipPath id="clip3_1607_2744">
<rect width="66.4551" height="63.3333" fill="white" transform="translate(75.9487 -30.1477)"/>
</clipPath>
</defs>
</svg>
